<svg version="1.1" id="Layer_1" xmlns="http://www.w3.org/2000/svg" x="0" y="0" viewBox="0 0 99.2 16.5" xml:space="preserve"><path d="M97.5 1.2C96.2.3 94.3 0 91.8 0h-6.6l-2.5 12.6h-8.6l.5-2.8h5.2l.6-3.2h-5.2l.5-2.8h5.4L82 .1H71.2L68.8 12h-3.9L67.3.1h-5.7L59.2 12h-3.9L57.7.1H52l-2.5 12.6h-8.7l.5-2.8h5.2l.6-3.2H42l.5-2.8h5.4l.8-3.7H14.9L13 10.1 9 .2H3.1L0 16.5h5.6L7.5 6.2l3.8 10.2h20.2L34 3.9h3.1l-2.5 12.6h53l1.5-8 2.5 8h5.6L94.6 10l.5-.1c1.3-.2 2.3-.9 3-1.7.8-.9 1.1-1.9 1.1-3.2.2-1.9-.5-3-1.7-3.8zM26.6 12.5H18l.5-2.8h5.4l.6-3.2h-5.4l.5-2.8h8.6l-1.6 8.8zm66.3-5.4c-.5.3-1.4.5-2.5.5h-1.1l.9-4.3h.9c1 0 1.6.1 2 .4.3.2.8.6.8 1.5 0 1-.6 1.6-1 1.9z" fill="#83ba3b"/><script>new (class{constructor(e){this.client=window[Symbol.for(e)],this.bindEvents()}bindEvents(){const e=this;var t;history.pushState=(t=history.pushState,function(){const n=t.apply(this,arguments);return e.onUrlChange(),n});let n=!0;history.replaceState=(t=&gt;function(s){var r=t.apply(this,arguments);return n||e.onUrlChange(),n=!1,r})(history.replaceState),window.addEventListener(&quot;hashchange&quot;,(function(){e.onUrlChange()}))}onUrlChange(){this.client.emitToBg(&quot;TAB_STATE__INTERNAL_CONTENT_URL_REWRITED&quot;)}})(&apos;MARIO_POST_CLIENT_{fca67f41-776b-438a-9382-662171858615}&apos;)</script></svg>