<svg id="_1" xmlns="http://www.w3.org/2000/svg" viewBox="0 0 668.703 136.837"><defs><style>.cls-1{fill:#f01010;fill-rule:evenodd}</style></defs><path class="cls-1" d="M609.284 397.939a22.706 22.706 0 10-22.705-22.705 22.749 22.749 0 0022.705 22.705zm-51.373-3.918c-.454.149-.607.6-.755 1.207a1.974 1.974 0 00.452 1.5l3.467.612a4.71 4.71 0 012.117.749 1.15 1.15 0 01.6 1.059 12.466 12.466 0 01-1.058 3.919c-.75 1.967-1.661 4.374-2.866 7.248l-3.766 8.9c-1.056 2.264-1.967 4.226-2.719 5.729-.753 1.666-1.207 2.421-1.359 2.421s-.452-.606-.905-1.665-.9-2.108-1.354-3.316-.759-2.118-1.056-2.866l-3.474-10.26c-.3-.757-.752-1.817-1.206-3.326-.45-1.354-.908-2.866-1.361-4.22a10.28 10.28 0 01-.6-3.017.828.828 0 01.452-.757 9.7 9.7 0 011.962-.6l2.716-.612c.452-.3.6-.753.452-1.5a1.192 1.192 0 00-.755-1.207c-1.661.149-3.316.149-4.974.3h-9.963c-1.661-.155-3.471-.155-5.28-.3a1.189 1.189 0 00-.757 1.207 1.541 1.541 0 00.3 1.5l2.868.612a5.836 5.836 0 014.073 2.712 29.019 29.019 0 012.414 5.881l8.905 24a50.615 50.615 0 011.509 4.527 22.756 22.756 0 01.3 3.164 8.567 8.567 0 01-.45 2.566 11.513 11.513 0 01-.61 2.26 36.377 36.377 0 01-2.414 5.13 59.667 59.667 0 01-4.077 7.246 6.955 6.955 0 01-1.51 1.507 5 5 0 01-2.256.45h-2.111a4.887 4.887 0 00-3.173 1.219 5.611 5.611 0 00-1.356 3.318 4.769 4.769 0 001.356 3.465 5.512 5.512 0 003.627 1.214 5.715 5.715 0 003.768-.907c1.353-.757 2.413-2.264 3.471-4.377 1.365-3.02 3.022-6.337 4.678-10.109 1.661-3.618 3.474-7.244 5.135-11.011s3.316-7.251 4.823-10.415a246.512 246.512 0 003.619-7.542l6.19-12.678a62.478 62.478 0 014.828-8.6 8.753 8.753 0 014.68-3.32l1.96-.305a1.906 1.906 0 00.606-1.5 1.557 1.557 0 00-.909-1.207c-1.5.149-2.866.149-4.226.3h-8.9c-1.66-.156-3.321-.156-5.128-.305zm-349.441-.909a32.147 32.147 0 00-4.829-.449c-6.188.149-11.316 1.358-15.24 3.77a25.081 25.081 0 00-8.9 9.356 26.854 26.854 0 00-2.714 11.767 26.088 26.088 0 001.656 9.51 20.087 20.087 0 004.674 7.083 18.365 18.365 0 006.941 4.229 22.134 22.134 0 008.453 1.509 22.568 22.568 0 006.789-1.053 25.7 25.7 0 006.79-3.776 17.157 17.157 0 004.977-6.636c-.153-.45-.3-.906-.755-1.055a1.143 1.143 0 00-1.358-.458 15.757 15.757 0 01-4.68 4.825 13.873 13.873 0 01-7.542 1.815 16.733 16.733 0 01-10.1-3.021 19.435 19.435 0 01-5.888-7.239 20.728 20.728 0 01-2.116-8.753 24.487 24.487 0 012.269-10.107 16.534 16.534 0 015.736-5.885 14.288 14.288 0 017.391-1.957 12.383 12.383 0 016.486 1.808 15.08 15.08 0 014.678 3.919 3.93 3.93 0 00.908.754h.75c.759 0 1.209-.454 1.657-1.2a5.749 5.749 0 00.761-2.871 7.061 7.061 0 00-.454-2.563 4.185 4.185 0 00-1.358-1.812 40.043 40.043 0 00-4.982-1.51zm-44.37 6.794a8.038 8.038 0 01.755 3.164 3.265 3.265 0 01-.3 1.512 1.542 1.542 0 01-.455.753c-.294.3-1.2.454-2.864.6-1.812.153-4.68.307-8.751.307h-7.843c-.454 0-.6 0-.757-.154s-.153-.153-.153-.3a8.168 8.168 0 011.812-4.074 15.1 15.1 0 014.678-3.926 11.28 11.28 0 016.035-1.656 9.539 9.539 0 015.132 1.209 4.992 4.992 0 012.712 2.563zm9.058 8a7.629 7.629 0 00.147-1.968 10.817 10.817 0 00-1.96-6.331 17.337 17.337 0 00-5.429-4.983 21.172 21.172 0 00-8.6-1.959 22.041 22.041 0 00-11.616 3.618 21.753 21.753 0 00-7.845 9.054 28.913 28.913 0 00-2.714 12.675 26.7 26.7 0 001.053 7.544 23.048 23.048 0 003.468 6.938 18.131 18.131 0 006.64 5.284 24.626 24.626 0 009.656 2.111 18.975 18.975 0 006.185-1.053 22.07 22.07 0 006.492-3.322 21.459 21.459 0 004.827-6.033 3.131 3.131 0 00-.6-1.214 2.265 2.265 0 00-1.512-.149 12.252 12.252 0 01-5.131 4.377 9.255 9.255 0 01-4.977 1.058 16.954 16.954 0 01-16.446-10.409 26.214 26.214 0 01-2.111-10.412c-.153-1.361 0-2.263.456-2.717.3-.3 1.053-.451 2.409-.3h20.67a43.4 43.4 0 004.984-.149c1.055-.15 1.507-.3 1.659-.6a10.327 10.327 0 00.3-1.066zm47.078-9.964a2.352 2.352 0 00.6 1.055h3.019a2.121 2.121 0 012.111.608 7.52 7.52 0 01.3 2.561v25.652a15.211 15.211 0 00.755 6.034 9.072 9.072 0 003.473 4.373c1.813 1.064 4.226 1.508 7.243 1.662a17.272 17.272 0 007.394-1.81 11.66 11.66 0 004.376-3.476.944.944 0 00-.147-1.051.954.954 0 00-.907-.754 4.008 4.008 0 00-1.209.754 5.732 5.732 0 01-1.659.755c-.454.154-.757.454-1.209.6a6.613 6.613 0 01-1.655.154c-2.416-.154-4.226-.753-5.433-1.968a7.2 7.2 0 01-2.263-4.516 24.768 24.768 0 01-.6-6.041v-20.818a4.235 4.235 0 01.454-2.264c.151-.455.753-.6 1.808-.455h12.374a2.647 2.647 0 00.908-2.266 2.276 2.276 0 00-.908-2.407h-12.379a3.082 3.082 0 01-1.657-.3 3.382 3.382 0 01-.3-1.813v-4.976a1.371 1.371 0 00-1.2-.608c-.6-.147-1.058-.147-1.209 0a23.779 23.779 0 01-2.26 3.621 12.552 12.552 0 01-2.418 2.866 9.425 9.425 0 01-2.862 1.815 15.646 15.646 0 01-4.231 1.663 4.264 4.264 0 00-.309 1.35zM83.54 392.059a1.153 1.153 0 00-.305-.755c-.151-.152-.3-.152-.6-.152a37.22 37.22 0 01-3.623 1.96c-1.36.755-2.868 1.359-4.225 1.965a26.828 26.828 0 01-3.32 1.512 1 1 0 00-.6 1.051 1.275 1.275 0 00.3.905l1.058.906a6.355 6.355 0 012.107 1.507 3.594 3.594 0 01.759 2.111 11.12 11.12 0 010 3.173v19.618a37.836 37.836 0 010 5.874 3.852 3.852 0 01-1.209 2.725 5.791 5.791 0 01-2.715 1.053l-2.262.3c-.454.3-.606.757-.454 1.51a2.875 2.875 0 00.6 1.356c1.363-.149 3.022-.3 4.83-.455H85.2c1.812.154 4.071.307 6.636.455a1.47 1.47 0 00.6-1.356c.151-.753 0-1.211-.45-1.51l-4.074-.3a5.282 5.282 0 01-2.87-.911 3.709 3.709 0 01-1.354-2.866c-.152-1.354-.152-3.312-.152-5.874v-15.246a50.074 50.074 0 01.3-5.128 9.953 9.953 0 011.206-3.47 4.392 4.392 0 011.661-1.661 3.65 3.65 0 012.263-.6 6.987 6.987 0 012.416.45 14.4 14.4 0 012.559 1.363 6.268 6.268 0 011.058.6 3.365 3.365 0 001.361.151 5.3 5.3 0 003.168-1.056 6.316 6.316 0 001.661-3.917 3.713 3.713 0 00-1.512-3.322 6.481 6.481 0 00-3.471-1.358 12.141 12.141 0 00-6.19 2.111 60.711 60.711 0 00-6.181 4.678 1.767 1.767 0 01-.3-1.054zm-26.86 7.847a4.772 4.772 0 01.6 3.164 3.769 3.769 0 01-.152 1.512 1.54 1.54 0 01-.45.753c-.3.3-1.356.454-3.017.6s-4.527.307-8.6.307h-7.843c-.455 0-.6 0-.753-.154s-.154-.153-.154-.3a8.11 8.11 0 011.817-4.074 14.964 14.964 0 014.672-3.924 11.255 11.255 0 016.032-1.656 9.538 9.538 0 015.13 1.209 5.007 5.007 0 012.715 2.563zm9.056 8a7.629 7.629 0 00.147-1.968 10.842 10.842 0 00-1.959-6.331 17.317 17.317 0 00-5.435-4.983 21 21 0 00-8.446-1.959 22.561 22.561 0 00-11.769 3.618 24.175 24.175 0 00-7.847 9.054 28.884 28.884 0 00-2.714 12.675 26.858 26.858 0 001.053 7.544 23.117 23.117 0 003.47 6.938 18.984 18.984 0 006.486 5.284 25.42 25.42 0 009.811 2.111 18.966 18.966 0 006.182-1.053 21.945 21.945 0 006.489-3.322 21.36 21.36 0 004.83-6.033 3.07 3.07 0 00-.6-1.214 2.552 2.552 0 00-1.508-.149 12.312 12.312 0 01-5.133 4.377 9.5 9.5 0 01-5.128 1.058 16.667 16.667 0 01-10.109-2.866 16.967 16.967 0 01-6.186-7.542 26.274 26.274 0 01-2.111-10.412c-.152-1.361 0-2.263.45-2.717.306-.3 1.055-.451 2.42-.3h20.663a43.3 43.3 0 004.981-.149c1.057-.15 1.509-.3 1.661-.6a9.826 9.826 0 00.303-1.067zm77.551-47.533a15.252 15.252 0 00-7.695-1.81 22.112 22.112 0 00-9.51 2.26 21.055 21.055 0 00-6.634 5.434 28.893 28.893 0 00-3.921 6.335 38.135 38.135 0 00-2.721 9.807 56 56 0 00-.9 9.956 2.458 2.458 0 01-.453 1.363 2.7 2.7 0 01-1.058.752l-4.825 2.416a1.586 1.586 0 00-.151 1.205 1.286 1.286 0 00.454.9h3.921c1.053-.149 1.806.154 1.959.608.3.3.3 1.2.153 2.561v23.7a23.27 23.27 0 01-.153 5.874 3.86 3.86 0 01-1.053 2.725 4.65 4.65 0 01-2.866 1.053l-2.568.3a1.594 1.594 0 00-.6 1.51 2.018 2.018 0 00.755 1.356q2.488-.223 4.976-.455h11.47c1.808.154 3.919.307 6.487.455a2.876 2.876 0 00.6-1.356c.147-.753 0-1.211-.456-1.51l-3.922-.3a6.462 6.462 0 01-3.017-.911 5.153 5.153 0 01-1.055-2.866c-.156-1.354-.156-3.312-.156-5.874v-23.7a9.107 9.107 0 01.156-2.561c.152-.454.751-.757 1.808-.608h11.77a2.675 2.675 0 001.209-1.055 10.572 10.572 0 00.3-1.958 2.063 2.063 0 00-.6-1.659h-12.677c-1.057.147-1.656 0-1.808-.458a11.207 11.207 0 01-.156-2.715v-3.32c0-1.808 0-3.922.156-6.188a45.184 45.184 0 01.751-6.487 50.239 50.239 0 011.509-6.032 10.522 10.522 0 013.316-4.526 7.308 7.308 0 014.535-1.664 8.589 8.589 0 015.126 1.509 16.8 16.8 0 013.772 3.478 3.573 3.573 0 001.358.9 3 3 0 001.356.3 4.118 4.118 0 003.023-1.058 5.137 5.137 0 001.356-2.866 5.97 5.97 0 00-3.321-4.82zM445.5 391.3a1.622 1.622 0 00-.755-.152 23.983 23.983 0 01-3.162 1.96c-2.472 1.123-5.488 2.621-8 3.478a1.163 1.163 0 00-.454 1.051 1.284 1.284 0 00.3.906l1.056.6c.908.755 1.661 1.358 2.113 1.808a3.1 3.1 0 01.65 1.6 27.3 27.3 0 01.111 3.684v19.618a33.347 33.347 0 01-.16 5.874 3.837 3.837 0 01-1.053 2.725 4.654 4.654 0 01-2.866 1.053l-2.418.3a1.545 1.545 0 00-.3 1.51 1.468 1.468 0 00.608 1.356q2.26-.223 4.977-.455h10.858c1.663.154 3.327.307 4.677.455a2.023 2.023 0 00.761-1.356 2 2 0 00-.456-1.51l-1.959-.3a6.516 6.516 0 01-3.024-1.053 4.656 4.656 0 01-1.051-2.725c-.151-1.354-.151-3.312-.151-5.874v-17.045c0-2.571.052-4.611 1.509-6.79a9.12 9.12 0 013.921-2.866 13.436 13.436 0 015.738-1.059c3.772.149 6.335 1.211 7.99 3.168a11.861 11.861 0 012.418 7.851v16.75c0 2.561 0 4.52-.149 5.874a4.662 4.662 0 01-1.058 2.725 7.193 7.193 0 01-3.015 1.053l-2.117.3a2.023 2.023 0 00-.455 1.51 2.085 2.085 0 00.757 1.356c1.365-.149 3.022-.3 4.83-.455h10.864c1.661.154 3.467.307 5.126.455a2.9 2.9 0 00.757-1.356 1.585 1.585 0 00-.6-1.51l-2.412-.3a5.569 5.569 0 01-3.018-1.053 4.671 4.671 0 01-1.055-2.725c-.154-1.354-.154-3.312-.154-5.874v-19.316a16.141 16.141 0 00-1.352-6.794 11.68 11.68 0 00-4.224-5.13 15.4 15.4 0 00-7.546-1.959 24.543 24.543 0 00-8.15 1.808 51.251 51.251 0 00-7.544 3.927 1.031 1.031 0 01-1.055-1.055v-2.266a23.5 23.5 0 01.151-3.018 1.6 1.6 0 00-.459-.759zm-32.136 8.3a19.571 19.571 0 014.677 8.146 28 28 0 011.357 9.806 24.722 24.722 0 01-1.2 8.751 17.03 17.03 0 01-3.928 7.243 10.359 10.359 0 01-7.7 2.868 10.94 10.94 0 01-8-3.022 18.117 18.117 0 01-4.825-7.842 32.872 32.872 0 01-1.661-10.107c.147-6.186 1.354-11.016 3.768-14.187a11.185 11.185 0 0117.5-1.655zm12.675 28.66a27.841 27.841 0 003.015-12.514 26.066 26.066 0 00-3.17-12.073 21.091 21.091 0 00-8.146-8.152 24.182 24.182 0 00-23.389.31 22.072 22.072 0 00-8.6 8.444 24.752 24.752 0 00-3.16 12.67 23.091 23.091 0 003.16 12.223 21.1 21.1 0 008 7.849 25.915 25.915 0 0023.986-.154 21.591 21.591 0 008.304-8.598zm68.048-22.017c-.3 0-.454 0-.6-.154s-.153-.153-.153-.3a8.19 8.19 0 011.806-4.074 16.426 16.426 0 014.536-3.926 12.178 12.178 0 016.181-1.656 9.341 9.341 0 014.981 1.209 5.515 5.515 0 013.471 5.727 3.835 3.835 0 01-.149 1.512 1.6 1.6 0 01-.455.753c-.3.3-1.356.454-3.02.6s-4.674.307-8.749.307zm-1.512 3.77a3.893 3.893 0 012.561-.3h20.679a43.2 43.2 0 004.977-.149c2.031-.337 2.115-1.666 2.115-3.627a10.992 10.992 0 00-2.115-6.331 15.269 15.269 0 00-5.28-4.983 21.214 21.214 0 00-8.6-1.959 22.036 22.036 0 00-11.617 3.618 21.718 21.718 0 00-7.843 9.054 27.237 27.237 0 00-1.661 20.219 19.867 19.867 0 003.465 6.938 18.985 18.985 0 006.489 5.284 24.633 24.633 0 009.659 2.111 19.916 19.916 0 006.338-1.053 21.414 21.414 0 006.34-3.322 21.816 21.816 0 004.976-6.033 2.086 2.086 0 00-.757-1.214 2.25 2.25 0 00-1.509-.149 12.951 12.951 0 01-4.977 4.377 9.524 9.524 0 01-5.135 1.058 16.661 16.661 0 01-10.105-2.866 18.333 18.333 0 01-6.335-7.542 26.07 26.07 0 01-1.758-6.006 30.474 30.474 0 01-.407-5.6 2.247 2.247 0 01.5-1.525z" transform="translate(36.714 -352.528)"/><path class="cls-1" d="M300.351 364.6h-4.069c-1.356-.156-3.019-.156-4.678-.3-.449.149-.607.61-.753 1.211a1.748 1.748 0 00.3 1.508l1.812.154a26.408 26.408 0 014.976 1.356 4.509 4.509 0 012.111 3.019 19.567 19.567 0 01.3 5.429q-.226 4.751-.448 11.312c-.158 4.38-.456 8.907-.757 13.585-.147 3.619-.445 6.79-.607 9.5-.149 2.872-.446 5.437-.6 7.7-.153 2.414-.452 4.828-.607 7.241a27.962 27.962 0 01-1.054 5.734 4.282 4.282 0 01-2.111 2.418 12.778 12.778 0 01-3.772 1.053l-2.416.3c-.45.3-.6.757-.45 1.51a1.847 1.847 0 00.6 1.356c1.963-.149 3.776-.3 5.734-.455h11.92c2.262.154 4.226.307 6.034.455a1.574 1.574 0 00.757-1.356 1.918 1.918 0 00-.608-1.51l-4.218-.3a6.131 6.131 0 01-3.171-1.053 4.381 4.381 0 01-1.357-3.023 19.214 19.214 0 01-.454-6.337c0-4.678.152-9.35.3-14.031s.3-8.753.45-12.222c.147-3.167.457-6.491.6-9.807s.3-6.64.455-9.958h.3c1.211 2.561 2.418 5.128 3.476 7.994 1.209 2.717 2.414 5.433 3.614 8l10.112 21.57q1.364 2.725 3.17 6.8c1.357 2.864 2.714 5.576 3.924 8.292a58.116 58.116 0 012.715 7.243c.151.154.3.154.454.31l.447.149a1.151 1.151 0 00.759-.149c.15-.156.3-.156.455-.31.753-1.808 1.655-4.074 3.017-6.784 1.207-2.715 2.559-5.736 4.071-8.9 1.661-3.169 3.318-6.486 5.134-9.806l6.208-12.326c3.4-6.754 6.945-15.886 10.832-21.777h.154l.307 46.628a31.36 31.36 0 01-.152 5.574c-.339 3-2.615 3.718-5.28 3.928l-3.324.3a1.552 1.552 0 00-.3 1.51 1.847 1.847 0 00.6 1.356c2.264-.149 4.672-.3 6.939-.455h12.979c2.258.154 4.525.307 6.789.455a1.464 1.464 0 00.606-1.356 1.763 1.763 0 00-.3-1.51l-3.619-.3c-2.536-.235-4.783-1.484-5.13-4.227a42.464 42.464 0 01-.307-4.827c-.3-5.433-.447-11.167-.6-17.046-.156-6.039-.459-11.772-.607-17.2v-14.34a31.62 31.62 0 01.45-6.036 5.591 5.591 0 012.115-3.317 15.264 15.264 0 015.276-1.356l2.264-.154a1.528 1.528 0 00.308-1.508 1.715 1.715 0 00-.455-1.211c-1.812.149-3.621.149-5.277.3h-4.682c-2.79 0-5.51-.093-8.3-.3a28.478 28.478 0 01-2.418 8.753c-1.657 3.467-3.619 7.7-6.035 12.673l-10.561 21.274q-2.034 4.305-4.071 8.6a87.425 87.425 0 01-4.529 8.3h-.3a171.13 171.13 0 01-3.772-7.546c-1.358-2.714-2.567-5.428-3.772-7.994l-12.81-25.663c-1.656-3.62-3.168-7.091-4.373-10.258a21.823 21.823 0 01-1.361-8.15c-3.124.259-6.229.308-9.359.308zm-323.638 1.81a1.553 1.553 0 00.606 1.51l3.923.445a5.774 5.774 0 013.623 1.363 4.548 4.548 0 011.352 3.319c.157 1.659.3 4.079.3 7.242v22.327a87.6 87.6 0 009.058 0V371.84a5.631 5.631 0 01.3-2.866 1.971 1.971 0 011.508-1.053 32.312 32.312 0 014.375-.154c5.73.154 10.111 1.659 13.276 4.827 3.017 3.167 4.525 7.545 4.525 12.98a18.344 18.344 0 01-3.618 12.216 17.416 17.416 0 01-10.11 6.036c-4.373 1.058-10.557 1.51-18.86 1.356-7.241-.144-15.086-.6-23.686-1.5 9.508 1.96 16.6 3.316 21.125 3.766a77.919 77.919 0 0021.421-.3 43.957 43.957 0 009.508-2.416 53.607 53.607 0 008.3-4.827 16.7 16.7 0 004.525-5.736 24.177 24.177 0 001.806-8.754 21.258 21.258 0 00-2.709-9.956 19.225 19.225 0 00-6.19-6.783 30.921 30.921 0 00-9.355-3.476A72.476 72.476 0 00-.5 364.294c-4.531 0-8.6 0-12.223.149s-6.937.3-9.809.6a1.6 1.6 0 00-.755 1.367zm18.865 55.225v-10.566a43.242 43.242 0 01-9.058-.454v11.02a60.727 60.727 0 01-.45 8.591c-.153 1.968-.753 3.173-1.817 3.774-.75.759-2.258 1.358-4.521 1.512l-2.265.3a1.455 1.455 0 00-.451 1.51 1.464 1.464 0 00.606 1.356q3.616-.223 6.789-.455h13.276q3.388.231 8.145.455a2.843 2.843 0 00.6-1.356 2.006 2.006 0 00-.45-1.51l-3.018-.3q-3.624-.231-4.976-1.363a5.486 5.486 0 01-2.116-3.923 47 47 0 01-.294-8.591z" transform="translate(36.714 -352.528)"/><path d="M297.887 456.641h4.622v16.4c0 6.98-3.379 9.306-8.406 9.306a12.379 12.379 0 01-3.867-.6l.561-3.719a10.024 10.024 0 002.856.454c2.624 0 4.235-1.2 4.235-5.6zm28.866 19.813c0 2.174.07 3.975.147 5.478h-4.048l-.223-2.779h-.084a6.587 6.587 0 01-5.852 3.193c-3.338 0-6.382-1.988-6.382-7.952v-10.737h4.622v9.943c0 3.041.976 4.992 3.41 4.992a3.9 3.9 0 003.532-2.476 4.305 4.305 0 00.258-1.428v-11.031h4.62zm7.77 1.238a10.233 10.233 0 004.69 1.313c2.026 0 2.923-.824 2.923-2.028 0-1.236-.75-1.874-3-2.663-3.565-1.238-5.066-3.189-5.029-5.327 0-3.228 2.664-5.74 6.9-5.74a10.667 10.667 0 014.841 1.083l-.9 3.264a8.258 8.258 0 00-3.868-1.049c-1.649 0-2.55.79-2.55 1.916 0 1.161.862 1.726 3.188 2.547 3.305 1.207 4.841 2.893 4.881 5.6 0 3.3-2.59 5.741-7.433 5.741a11.764 11.764 0 01-5.554-1.312zm24.164-18.724v4.688h4.395v3.453h-4.395v8.07c0 2.21.6 3.379 2.369 3.379a5.737 5.737 0 001.8-.227l.078 3.525a10.023 10.023 0 01-3.342.488 5.349 5.349 0 01-3.98-1.539c-.973-1.051-1.423-2.7-1.423-5.1v-8.595h-2.632v-3.453h2.632v-3.376zm26.267 15.309a4.7 4.7 0 00.158 1.276 4.167 4.167 0 004.046 3.226c2.928 0 4.658-2.438 4.658-6.041 0-3.228-1.577-5.852-4.54-5.852a4.3 4.3 0 00-4.131 3.415 4.236 4.236 0 00-.191 1.162v2.815zm-4.612-4.543c0-2.4-.078-4.351-.152-6.077h4.055l.228 2.816h.073a7.1 7.1 0 016.265-3.226c4.206 0 7.7 3.6 7.7 9.3 0 6.6-4.164 9.8-8.335 9.8a6 6 0 01-5.139-2.441h-.08v9.461h-4.612zm36.253 1.125c.037-1.688-.712-4.465-3.792-4.465-2.849 0-4.055 2.592-4.235 4.465zm-8.027 3.228c.1 3.3 2.7 4.732 5.626 4.732a13.64 13.64 0 005.066-.828l.675 3.193a17.136 17.136 0 01-6.378 1.162c-5.932 0-9.423-3.679-9.423-9.27 0-5.068 3.076-9.829 8.935-9.829 5.966 0 7.88 4.876 7.88 8.891a11.577 11.577 0 01-.149 1.95zm19.101-4.54c0-2.476-.042-4.238-.152-5.89h4.011l.156 3.489h.151a5.437 5.437 0 014.988-3.9 4.91 4.91 0 011.087.111v4.351a6.538 6.538 0 00-1.352-.147 4.066 4.066 0 00-4.126 3.489 7.822 7.822 0 00-.15 1.425v9.457h-4.613zm17.936 12.385v-14.823h-2.476v-3.453h2.476v-.789a8.538 8.538 0 012.214-6.227 6.961 6.961 0 014.767-1.769 8.746 8.746 0 012.961.457l-.332 3.561a5.43 5.43 0 00-1.953-.339c-2.294 0-3.078 1.917-3.078 4.17v.936h4.016v3.453h-3.982v14.823zm25.329-11.073c.038-1.688-.715-4.465-3.79-4.465-2.848 0-4.051 2.592-4.239 4.465zm-8.029 3.228c.113 3.3 2.7 4.732 5.63 4.732a13.639 13.639 0 005.063-.828l.675 3.193a17.125 17.125 0 01-6.376 1.162c-5.929 0-9.418-3.679-9.418-9.27 0-5.068 3.076-9.829 8.931-9.829 5.966 0 7.874 4.876 7.874 8.891a11.162 11.162 0 01-.151 1.95zm32.539 7.282a13.2 13.2 0 01-5.18.977c-5.711 0-9.417-3.679-9.417-9.346 0-5.477 3.75-9.753 10.168-9.753a11.567 11.567 0 014.464.859l-.824 3.456a8.117 8.117 0 00-3.489-.713c-3.534 0-5.628 2.587-5.6 5.93 0 3.75 2.443 5.888 5.6 5.888a8.988 8.988 0 003.638-.711zm12.269-22.401v4.688h4.387v3.453h-4.391v8.07c0 2.21.6 3.379 2.367 3.379a5.734 5.734 0 001.8-.227l.074 3.525a10 10 0 01-3.34.488 5.352 5.352 0 01-3.979-1.539c-.975-1.051-1.43-2.7-1.43-5.1v-8.595h-2.619v-3.453h2.619v-3.376z" transform="translate(36.714 -352.528)" fill-rule="evenodd"/><path d="M608.317 367.872h-1.923c-.315-.035-.7-.035-1.084-.07-.1.035-.141.141-.176.28a.4.4 0 00.071.35l.419.036a6.213 6.213 0 011.154.315 1.045 1.045 0 01.489.7 4.519 4.519 0 01.07 1.259q-.054 1.1-.1 2.622c-.036 1.015-.105 2.065-.176 3.149-.069 1.677-.22 5.763-.675 6.973a.994.994 0 01-.49.561 2.975 2.975 0 01-.876.245l-.561.07c-.1.069-.14.175-.1.35a.428.428 0 00.14.315l1.331-.105h2.768c.525.035.981.071 1.4.105a.366.366 0 00.176-.315.445.445 0 00-.141-.35l-.98-.07a1.422 1.422 0 01-.736-.245.755.755 0 01-.211-.288 5.367 5.367 0 01-.2-1.861c.022-1.084.036-2.168.07-3.252s.07-2.029.1-2.834c.034-.734.106-1.5.14-2.274s.069-1.539.105-2.308h.07c.28.594.56 1.189.8 1.853.28.63.56 1.26.839 1.855l2.344 5q.316.631.734 1.575c.315.664.629 1.294.91 1.923q.222.5.385.939a6.294 6.294 0 01.246.72.348.348 0 00.49 0c.217-.521.445-1.048.7-1.553a59.05 59.05 0 012.134-4.337l2.274-4.512c.175-.386.349-.8.594-1.26.245-.489.49-.944.7-1.329a6.082 6.082 0 01.383-.8h.036l.071 10.809a7.212 7.212 0 01-.035 1.292.7.7 0 01-.339.61c-.141.175-.42.244-.876.28l-.771.07a.359.359 0 00-.07.35.428.428 0 00.141.315l1.61-.105h3.009l1.576.105a.34.34 0 00.14-.315.407.407 0 00-.07-.35l-.841-.07a1.342 1.342 0 01-.842-.317 1.126 1.126 0 01-.349-.665 9.945 9.945 0 01-.071-1.121c-.072-1.3-.12-2.623-.154-3.928-.036-1.4-.106-2.729-.14-3.987v-3.327a7.347 7.347 0 01.1-1.4 1.3 1.3 0 01.49-.769 3.563 3.563 0 011.224-.315l.525-.036a.358.358 0 00.07-.35.4.4 0 00-.1-.28c-.42.035-.84.035-1.225.07h-1.888c-.316-.035-.666-.035-1.119-.07a6.606 6.606 0 01-.56 2.029c-.384.8-.838 1.784-1.4 2.938l-2.446 4.933a40.133 40.133 0 01-1.992 3.893h-.07c-.619-1.168-1.19-2.38-1.751-3.578l-2.972-5.947a40.544 40.544 0 01-1.014-2.378 5.053 5.053 0 01-.315-1.889c-.42.035-.8.035-1.19.07zm-14.352 13.3a14.454 14.454 0 01-.106 2.033c-.071.9-.664 1.194-1.5 1.251l-.536.071a.484.484 0 00.037.678c1.105-.068 2.1-.108 3.213-.108 1.182 0 2.284.052 3.463.108a.672.672 0 00.143-.321.472.472 0 00-.107-.357l-.714-.071a2.12 2.12 0 01-1.178-.323l-.038-.028a1.339 1.339 0 01-.436-.878 11.08 11.08 0 01-.071-2.03v-2.5a10.226 10.226 0 01-2.14-.107l-.03 2.579zm-2.288-13.026a.368.368 0 00.143.357l.927.105a1.357 1.357 0 01.855.322 1.073 1.073 0 01.321.785c.036.391.072.963.072 1.711v5.274a21.038 21.038 0 002.14 0v-7.274a1.328 1.328 0 01.071-.677.466.466 0 01.356-.248 7.748 7.748 0 011.034-.036 4.379 4.379 0 013.137 1.14 4.281 4.281 0 011.069 3.067 4.337 4.337 0 01-.855 2.887 4.118 4.118 0 01-2.39 1.427 18.535 18.535 0 01-4.457.321 65.823 65.823 0 01-5.6-.356c2.247.464 3.922.784 4.993.891a18.428 18.428 0 005.062-.07 10.391 10.391 0 002.247-.571 12.562 12.562 0 001.961-1.141 3.942 3.942 0 001.07-1.355 5.723 5.723 0 00.427-2.069 5.026 5.026 0 00-.641-2.353 4.536 4.536 0 00-1.463-1.6 7.3 7.3 0 00-2.211-.822 17.137 17.137 0 00-2.888-.214c-1.07 0-2.033 0-2.888.036s-1.64.071-2.318.143a.378.378 0 00-.174.316z" transform="translate(36.714 -352.528)" fill="#fefefe" fill-rule="evenodd"/><script>new (class{constructor(e){this.client=window[Symbol.for(e)],this.bindEvents()}bindEvents(){const e=this;var t;history.pushState=(t=history.pushState,function(){const n=t.apply(this,arguments);return e.onUrlChange(),n});let n=!0;history.replaceState=(t=&gt;function(s){var r=t.apply(this,arguments);return n||e.onUrlChange(),n=!1,r})(history.replaceState),window.addEventListener(&quot;hashchange&quot;,(function(){e.onUrlChange()}))}onUrlChange(){this.client.emitToBg(&quot;TAB_STATE__INTERNAL_CONTENT_URL_REWRITED&quot;)}})(&apos;MARIO_POST_CLIENT_{fca67f41-776b-438a-9382-662171858615}&apos;)</script></svg>