<svg id="_1" xmlns="http://www.w3.org/2000/svg" viewBox="0 0 715.932 132.009"><path d="M245.185 34.556a32.146 32.146 0 00-4.829-.449c-6.188.149-11.316 1.358-15.24 3.77a25.081 25.081 0 00-8.9 9.356A26.854 26.854 0 00213.5 59a26.088 26.088 0 001.656 9.51 20.087 20.087 0 004.674 7.083 18.365 18.365 0 006.941 4.229 22.134 22.134 0 008.453 1.509 22.568 22.568 0 006.789-1.053A25.7 25.7 0 00248.8 76.5a17.157 17.157 0 004.977-6.636c-.153-.45-.3-.906-.755-1.055a1.143 1.143 0 00-1.358-.458 15.757 15.757 0 01-4.68 4.825 13.873 13.873 0 01-7.542 1.815 16.733 16.733 0 01-10.1-3.021 19.435 19.435 0 01-5.888-7.239 20.728 20.728 0 01-2.116-8.753 24.487 24.487 0 012.269-10.107 16.534 16.534 0 015.736-5.885 14.288 14.288 0 017.391-1.957 12.383 12.383 0 016.486 1.808 15.08 15.08 0 014.678 3.919 3.93 3.93 0 00.908.754h.75c.759 0 1.209-.454 1.657-1.2a5.749 5.749 0 00.761-2.871 7.061 7.061 0 00-.454-2.563 4.185 4.185 0 00-1.358-1.812 40.043 40.043 0 00-4.977-1.508zm-44.37 6.794a8.038 8.038 0 01.755 3.164 3.265 3.265 0 01-.3 1.512 1.542 1.542 0 01-.455.753c-.294.3-1.2.454-2.864.6-1.812.153-4.68.307-8.751.307h-7.843c-.454 0-.6 0-.757-.154s-.153-.153-.153-.3a8.168 8.168 0 011.812-4.074 15.1 15.1 0 014.678-3.926 11.28 11.28 0 016.035-1.656 9.539 9.539 0 015.132 1.209 4.992 4.992 0 012.712 2.563zm9.058 8a7.629 7.629 0 00.147-1.968 10.817 10.817 0 00-1.96-6.331 17.337 17.337 0 00-5.429-4.983 21.172 21.172 0 00-8.6-1.959 22.041 22.041 0 00-11.616 3.618 21.753 21.753 0 00-7.845 9.054 28.913 28.913 0 00-2.714 12.675A26.7 26.7 0 00172.909 67a23.048 23.048 0 003.468 6.938 18.131 18.131 0 006.64 5.284 24.626 24.626 0 009.656 2.111 18.975 18.975 0 006.185-1.053 22.071 22.071 0 006.492-3.322 21.459 21.459 0 004.827-6.033 3.131 3.131 0 00-.6-1.214 2.265 2.265 0 00-1.512-.149 12.252 12.252 0 01-5.131 4.377A9.255 9.255 0 01197.957 75a16.954 16.954 0 01-16.446-10.409 26.214 26.214 0 01-2.111-10.415c-.153-1.361 0-2.263.456-2.717.3-.3 1.053-.451 2.409-.3h20.67a43.4 43.4 0 004.984-.149c1.055-.15 1.507-.3 1.659-.6a10.327 10.327 0 00.3-1.066zm47.078-9.964a2.352 2.352 0 00.6 1.055h3.019a2.121 2.121 0 012.111.608 7.52 7.52 0 01.3 2.561v25.652a15.211 15.211 0 00.755 6.034 9.072 9.072 0 003.473 4.373c1.813 1.064 4.226 1.508 7.243 1.662a17.272 17.272 0 007.394-1.81 11.66 11.66 0 004.376-3.476.944.944 0 00-.147-1.051.954.954 0 00-.907-.754 4.008 4.008 0 00-1.209.754 5.732 5.732 0 01-1.659.755c-.454.154-.757.454-1.209.6a6.613 6.613 0 01-1.655.154c-2.416-.154-4.226-.753-5.433-1.968a7.2 7.2 0 01-2.263-4.516 24.768 24.768 0 01-.6-6.041V43.16a4.235 4.235 0 01.454-2.264c.151-.455.753-.6 1.808-.455h12.374a2.647 2.647 0 00.908-2.266 2.276 2.276 0 00-.908-2.407H273.4a3.082 3.082 0 01-1.657-.3 3.382 3.382 0 01-.3-1.813v-4.976a1.371 1.371 0 00-1.2-.608c-.6-.147-1.058-.147-1.209 0a23.78 23.78 0 01-2.26 3.621 12.552 12.552 0 01-2.418 2.866 9.425 9.425 0 01-2.862 1.815 15.646 15.646 0 01-4.231 1.663 4.264 4.264 0 00-.312 1.35zM120.255 33.5a1.153 1.153 0 00-.305-.755c-.151-.152-.3-.152-.6-.152a37.22 37.22 0 01-3.623 1.96c-1.36.755-2.868 1.359-4.225 1.965a26.827 26.827 0 01-3.32 1.512 1 1 0 00-.6 1.051 1.275 1.275 0 00.3.9l1.058.906a6.355 6.355 0 012.107 1.507 3.594 3.594 0 01.759 2.111 11.12 11.12 0 010 3.173V67.3a37.835 37.835 0 010 5.874A3.852 3.852 0 01110.6 75.9a5.791 5.791 0 01-2.715 1.053l-2.262.3c-.454.3-.606.757-.454 1.51a2.875 2.875 0 00.6 1.356c1.363-.149 3.022-.3 4.83-.455h11.319c1.812.154 4.071.307 6.636.455a1.47 1.47 0 00.6-1.356c.151-.753 0-1.211-.45-1.51l-4.074-.3a5.282 5.282 0 01-2.87-.911 3.709 3.709 0 01-1.354-2.866c-.152-1.354-.152-3.312-.152-5.874V52.059a50.073 50.073 0 01.3-5.128 9.953 9.953 0 011.206-3.47 4.392 4.392 0 011.661-1.661 3.65 3.65 0 012.263-.6 6.987 6.987 0 012.416.45 14.4 14.4 0 012.559 1.363 6.267 6.267 0 011.058.6 3.365 3.365 0 001.361.151 5.3 5.3 0 003.168-1.056 6.316 6.316 0 001.661-3.917 3.713 3.713 0 00-1.512-3.322 6.481 6.481 0 00-3.471-1.358 12.141 12.141 0 00-6.19 2.111 60.711 60.711 0 00-6.184 4.678 1.767 1.767 0 01-.3-1.054zM93.4 41.35a4.772 4.772 0 01.6 3.164 3.769 3.769 0 01-.152 1.512 1.54 1.54 0 01-.45.753c-.3.3-1.356.454-3.017.6s-4.527.307-8.6.307h-7.848c-.455 0-.6 0-.753-.154s-.154-.153-.154-.3a8.11 8.11 0 011.817-4.074 14.964 14.964 0 014.672-3.924 11.255 11.255 0 016.032-1.656 9.538 9.538 0 015.13 1.209 5.007 5.007 0 012.715 2.563zm9.056 8a7.629 7.629 0 00.147-1.968 10.842 10.842 0 00-1.959-6.331 17.317 17.317 0 00-5.444-4.983 21 21 0 00-8.446-1.959 22.561 22.561 0 00-11.769 3.618 24.175 24.175 0 00-7.847 9.054 28.884 28.884 0 00-2.714 12.675A26.858 26.858 0 0065.481 67a23.117 23.117 0 003.47 6.938 18.984 18.984 0 006.486 5.284 25.42 25.42 0 009.811 2.111 18.965 18.965 0 006.182-1.053 21.945 21.945 0 006.489-3.322 21.36 21.36 0 004.83-6.033 3.07 3.07 0 00-.6-1.214 2.552 2.552 0 00-1.508-.149 12.312 12.312 0 01-5.133 4.377A9.5 9.5 0 0190.38 75a16.667 16.667 0 01-10.109-2.866 16.967 16.967 0 01-6.186-7.542 26.274 26.274 0 01-2.111-10.412c-.152-1.361 0-2.263.45-2.717.306-.3 1.055-.451 2.42-.3h20.663a43.3 43.3 0 004.981-.149c1.057-.15 1.509-.3 1.661-.6a9.826 9.826 0 00.3-1.067zM180 1.817a15.252 15.252 0 00-7.7-1.81 22.112 22.112 0 00-9.51 2.26 21.055 21.055 0 00-6.627 5.433 28.893 28.893 0 00-3.921 6.335 38.135 38.135 0 00-2.721 9.807 56 56 0 00-.9 9.956 2.458 2.458 0 01-.453 1.363 2.7 2.7 0 01-1.058.752l-4.825 2.416a1.586 1.586 0 00-.151 1.2 1.286 1.286 0 00.454.9h3.921c1.053-.149 1.806.154 1.959.608.3.3.3 1.2.153 2.561V67.3a23.27 23.27 0 01-.153 5.874 3.86 3.86 0 01-1.053 2.725 4.65 4.65 0 01-2.866 1.053l-2.568.3a1.594 1.594 0 00-.6 1.51 2.018 2.018 0 00.755 1.356q2.488-.223 4.976-.455h11.47c1.808.154 3.919.307 6.487.455a2.876 2.876 0 00.6-1.356c.147-.753 0-1.211-.456-1.51l-3.922-.3a6.462 6.462 0 01-3.017-.911 5.153 5.153 0 01-1.055-2.866c-.156-1.354-.156-3.312-.156-5.874v-23.7a9.107 9.107 0 01.156-2.561c.152-.454.751-.757 1.808-.608H170.8a2.675 2.675 0 001.209-1.055 10.572 10.572 0 00.3-1.958 2.063 2.063 0 00-.6-1.659h-12.68c-1.057.147-1.656 0-1.808-.458a11.207 11.207 0 01-.156-2.715v-3.32c0-1.808 0-3.922.156-6.188a45.184 45.184 0 01.751-6.487 50.24 50.24 0 011.509-6.032 10.522 10.522 0 013.319-4.522 7.308 7.308 0 014.535-1.664 8.589 8.589 0 015.126 1.509 16.8 16.8 0 013.772 3.478 3.573 3.573 0 001.358.9 3 3 0 001.356.3 4.118 4.118 0 003.02-1.061 5.137 5.137 0 001.356-2.866A5.97 5.97 0 00180 1.817zM13.428 7.854a1.553 1.553 0 00.606 1.51l3.923.445a5.774 5.774 0 013.623 1.363 4.548 4.548 0 011.352 3.319c.157 1.659.3 4.079.3 7.242V44.06a87.593 87.593 0 009.058 0V13.284a5.631 5.631 0 01.3-2.866 1.971 1.971 0 011.51-1.053 32.311 32.311 0 014.375-.154c5.73.154 10.111 1.659 13.276 4.827 3.017 3.167 4.525 7.545 4.525 12.98a18.344 18.344 0 01-3.618 12.216 17.416 17.416 0 01-10.11 6.036c-4.373 1.058-10.557 1.51-18.86 1.356-7.241-.144-15.086-.6-23.686-1.5 9.508 1.96 16.6 3.316 21.125 3.766a77.919 77.919 0 0021.421-.3 43.957 43.957 0 009.508-2.416 53.606 53.606 0 008.3-4.827 16.7 16.7 0 004.525-5.736 24.177 24.177 0 001.806-8.754 21.258 21.258 0 00-2.711-9.959 19.225 19.225 0 00-6.19-6.783 30.921 30.921 0 00-9.355-3.476 72.474 72.474 0 00-12.216-.906c-4.531 0-8.6 0-12.223.149s-6.937.3-9.809.6a1.6 1.6 0 00-.755 1.37zm18.865 55.225V52.513a43.242 43.242 0 01-9.058-.454v11.02a60.727 60.727 0 01-.45 8.591c-.153 1.968-.753 3.173-1.817 3.774-.75.759-2.258 1.358-4.521 1.512l-2.265.3a2.2 2.2 0 00.155 2.866q3.616-.223 6.789-.455H34.4q3.388.231 8.145.455a2.843 2.843 0 00.6-1.356 2.006 2.006 0 00-.45-1.51l-3.018-.3q-3.624-.231-4.976-1.363a5.486 5.486 0 01-2.116-3.923 47 47 0 01-.292-8.591zm291.195-44.658c-2.548-6.2-4.209-8.528-8.972-9.083l-1.994-.221a1.857 1.857 0 01.222-2.77c3.212.222 6.756.332 11.52.332 4.873 0 8.75-.11 13.4-.332a1.939 1.939 0 01.222 2.77l-1.662.221c-4.209.555-5.095 1.219-5.206 2.1a138.773 138.773 0 005.538 15.508c5.1 12.848 10.19 25.586 15.729 38.213 3.434-7.311 8.086-18.719 10.634-24.59 3.212-7.531 8.418-20.048 10.3-24.811a11.789 11.789 0 001-4.32c0-.774-1.107-1.661-4.984-2.1l-1.994-.221a1.938 1.938 0 01.222-2.77c3.1.222 7.311.332 11.52.332 3.655 0 7.089-.11 10.744-.332.775.443.775 2.215.222 2.77l-3.323.221c-2.658.222-4.319 1.551-5.76 3.877-3.1 5.206-7.421 14.178-12.405 25.476l-5.981 13.624c-4.431 10.19-9.637 23.039-11.52 28.909a2.231 2.231 0 01-1.218.333 4.446 4.446 0 01-1.662-.333 129.03 129.03 0 00-5.095-14.731zm101.345 39.1c0 13.846-9.525 23.814-23.371 23.814-12.737 0-22.706-8.972-22.706-22.817 0-13.956 10.522-23.925 23.593-23.925 12.405 0 22.484 9.307 22.484 22.928zm-23.814-19.606c-7.311 0-12.738 6.979-12.738 19.162 0 10.08 4.541 20.935 14.288 20.935s12.738-10.19 12.738-18.719c0-9.415-3.765-21.378-14.288-21.378zM444.988 63.5c0 7.643 1.883 12.737 10.3 12.737a14.487 14.487 0 008.972-3.322c1.44-1.329 2.216-2.991 2.216-6.425V48.327c0-7.2-.775-7.421-4.1-8.75l-1.439-.554a1.507 1.507 0 01.11-2.437c4.431-.11 10.522-.886 12.96-1.993.554.11.886.332 1 .775-.221 2.1-.332 5.538-.332 9.636v18.609c0 8.751.332 12.073 3.434 12.073a20.946 20.946 0 004.32-.554c.664.554.775 2.77-.111 3.213-4.319.886-10.744 1.993-14.51 4.1a1.536 1.536 0 01-1.329-.775v-4.544c0-1-.332-1.551-1-1.551-3.323 2.1-8.75 5.76-15.285 5.76-9.747 0-13.4-4.874-13.4-13.846v-18.5c0-6.978 0-7.975-3.323-9.414l-1.329-.554a1.645 1.645 0 01.222-2.437 39.207 39.207 0 0011.852-1.993c.665.11 1 .332 1.107.775a83.441 83.441 0 00-.335 9.634zM523.4 36.476a6.28 6.28 0 011.661 4.431c0 1.993-1.107 4.1-2.437 4.1a1.935 1.935 0 01-1.551-.775c-2.437-2.99-6.535-5.87-11.076-5.87-7.754 0-15.285 6.092-15.285 17.833 0 8.64 5.98 18.94 17.832 18.94 6.425 0 9.748-2.88 12.295-6.646a1.747 1.747 0 011.994 1.551c-3.766 8.2-12.073 11.3-18.5 11.3-5.87 0-11.3-1.883-15.174-5.649s-6.425-9.193-6.425-16.393c0-11.963 8.418-24.7 26.8-24.7a27.629 27.629 0 019.866 1.878zm12.074-19.162c0-6.535-.11-7.2-3.434-9.193l-1.107-.665a1.684 1.684 0 010-2.215A78.674 78.674 0 00542.894.588a1.219 1.219 0 011.106.665c-.111 3.322-.333 8.86-.333 13.734v23.261c0 1 .111 1.883.443 2.1 3.987-3.1 9.3-5.76 14.953-5.76 10.522 0 14.288 6.535 14.288 14.288v18.5c0 7.975.222 9.193 4.209 9.636l2.991.333a1.937 1.937 0 01-.222 2.769c-3.987-.222-7.2-.332-11.076-.332-3.987 0-7.311.11-10.3.332a1.937 1.937 0 01-.222-2.769l2.215-.333c4.1-.664 4.209-1.661 4.209-9.636V51.539c0-7.089-3.434-11.852-10.522-11.852a13.262 13.262 0 00-8.64 2.99c-1.993 1.662-2.326 2.216-2.326 6.093v18.609c0 7.975.222 9.082 4.209 9.636l2.326.333c.775.442.554 2.437-.222 2.769a150.79 150.79 0 00-10.411-.332c-3.987 0-7.311.11-10.855.332a1.937 1.937 0 01-.221-2.769l2.769-.333c4.1-.442 4.209-1.661 4.209-9.636zm60.363 34.115c-2.88 0-2.991.222-2.991 2.99 0 11.187 6.535 20.713 18.387 20.713 3.655 0 6.757-1.107 10.19-5.427a1.464 1.464 0 011.994 1.329c-3.655 7.531-11.63 10.3-17.39 10.3-7.2 0-12.849-3.1-16.062-7.311a23.519 23.519 0 01-4.651-14.4c0-13.624 8.972-25.032 22.264-25.032 9.525 0 15.728 6.535 15.728 13.181a6.847 6.847 0 01-.442 2.88c-.332.664-1.883.775-6.535.775zm6.867-3.323c8.2 0 10.633-.443 11.52-1.107.332-.222.664-.665.664-2.1 0-3.1-2.1-6.979-8.528-6.979-6.535 0-12.184 5.981-12.295 9.637 0 .222 0 .554.775.554zM634.822 48c0-4.32 0-4.874-2.99-6.867l-1-.665a1.514 1.514 0 01.111-1.994 85.779 85.779 0 0011.187-5.427c.554.11.887.332.887.775v6.424q0 .831.332 1c3.877-3.212 8.086-6.646 12.184-6.646 2.77 0 4.984 1.771 4.984 4.431a4.913 4.913 0 01-4.763 5.095 4.252 4.252 0 01-2.437-.775 9.088 9.088 0 00-4.874-1.772 4.913 4.913 0 00-3.987 2.216c-1.107 1.551-1.439 4.763-1.439 8.528v15.056c0 7.975.221 9.3 4.43 9.636l3.988.333a1.937 1.937 0 01-.222 2.769c-5.206-.222-8.418-.332-12.295-.332-3.987 0-7.311.11-10.19.332a1.937 1.937 0 01-.222-2.769l2.1-.333c4.1-.664 4.209-1.661 4.209-9.636zm58.403-1.945a22.706 22.706 0 10-22.705-22.707 22.749 22.749 0 0022.705 22.707z" fill="#f01010"/><path d="M692.258 15.988h-1.923c-.315-.035-.7-.035-1.084-.07-.1.035-.141.141-.176.28a.4.4 0 00.071.35l.419.036a6.212 6.212 0 011.154.315 1.045 1.045 0 01.489.7 4.519 4.519 0 01.07 1.259q-.054 1.1-.1 2.622a91.861 91.861 0 01-.176 3.149c-.069 1.677-.22 5.763-.675 6.973a.994.994 0 01-.49.561 2.975 2.975 0 01-.876.245l-.561.07a.3.3 0 00-.1.35.428.428 0 00.14.315l1.331-.105h2.768c.525.035.981.071 1.4.105a.366.366 0 00.176-.315.445.445 0 00-.141-.35l-.98-.07a1.422 1.422 0 01-.736-.245.755.755 0 01-.211-.288 5.367 5.367 0 01-.2-1.861c.022-1.084.036-2.168.07-3.252s.07-2.029.1-2.834c.034-.734.106-1.5.14-2.274s.069-1.539.1-2.308h.07c.28.594.56 1.189.8 1.853.28.63.56 1.26.839 1.855l2.344 5q.316.631.734 1.575c.315.664.629 1.294.91 1.923q.222.5.385.939a6.292 6.292 0 01.246.72.348.348 0 00.49 0c.217-.521.445-1.048.7-1.553a59.05 59.05 0 012.134-4.337l2.274-4.512c.175-.386.349-.8.594-1.26.245-.489.49-.944.7-1.329a6.082 6.082 0 01.383-.8h.036l.071 10.809a7.212 7.212 0 01-.035 1.292.7.7 0 01-.339.61c-.141.175-.42.244-.876.28l-.771.07a.359.359 0 00-.07.35.428.428 0 00.141.315l1.61-.105h3.009l1.576.105a.34.34 0 00.14-.315.407.407 0 00-.07-.35l-.841-.07a1.342 1.342 0 01-.842-.317 1.126 1.126 0 01-.349-.665 9.946 9.946 0 01-.071-1.121c-.072-1.3-.12-2.623-.154-3.928-.036-1.4-.106-2.729-.14-3.987v-3.327a7.347 7.347 0 01.1-1.4 1.3 1.3 0 01.49-.769 3.563 3.563 0 011.224-.315l.525-.036a.358.358 0 00.07-.35.4.4 0 00-.1-.28c-.42.035-.84.035-1.225.07h-1.888c-.316-.035-.666-.035-1.119-.07a6.607 6.607 0 01-.56 2.029c-.384.8-.838 1.784-1.4 2.938l-2.446 4.933a40.137 40.137 0 01-1.992 3.893h-.07c-.619-1.168-1.19-2.38-1.751-3.578l-2.972-5.947a40.544 40.544 0 01-1.014-2.378 5.054 5.054 0 01-.315-1.889c-.42.035-.8.035-1.19.07zm-14.352 13.3a14.451 14.451 0 01-.106 2.033c-.071.9-.664 1.194-1.5 1.251l-.536.071a.484.484 0 00.037.678c1.1-.068 2.1-.108 3.213-.108 1.182 0 2.284.052 3.463.108a.672.672 0 00.143-.321.472.472 0 00-.107-.357l-.714-.071a2.12 2.12 0 01-1.178-.323l-.038-.028a1.339 1.339 0 01-.436-.878 11.079 11.079 0 01-.071-2.03v-2.5a10.227 10.227 0 01-2.14-.107l-.03 2.579zm-2.288-13.026a.368.368 0 00.143.357l.927.105a1.357 1.357 0 01.855.322 1.073 1.073 0 01.321.785c.036.391.072.963.072 1.711v5.274a21.031 21.031 0 002.14 0v-7.274a1.328 1.328 0 01.071-.677.466.466 0 01.356-.248 7.747 7.747 0 011.034-.036 4.379 4.379 0 013.137 1.14 4.281 4.281 0 011.069 3.067 4.337 4.337 0 01-.855 2.887A4.118 4.118 0 01682.5 25.1a18.536 18.536 0 01-4.457.321 65.823 65.823 0 01-5.6-.356c2.247.464 3.922.784 4.993.891a18.428 18.428 0 005.062-.07 10.391 10.391 0 002.247-.571 12.562 12.562 0 001.961-1.141 3.942 3.942 0 001.07-1.355 5.723 5.723 0 00.427-2.069 5.026 5.026 0 00-.641-2.353 4.536 4.536 0 00-1.463-1.6 7.3 7.3 0 00-2.211-.822 17.137 17.137 0 00-2.888-.212c-1.07 0-2.033 0-2.888.036s-1.64.071-2.318.143a.378.378 0 00-.174.316z" fill="#fefefe"/><path d="M431.147 99.283h4.622v16.4c0 6.98-3.379 9.306-8.406 9.306a12.379 12.379 0 01-3.867-.6l.561-3.719a10.025 10.025 0 002.856.454c2.624 0 4.235-1.2 4.235-5.6zm28.866 19.817c0 2.174.07 3.975.147 5.478h-4.048l-.223-2.779h-.084a6.587 6.587 0 01-5.852 3.193c-3.338 0-6.382-1.988-6.382-7.952V106.3h4.622v9.943c0 3.041.976 4.992 3.41 4.992a3.9 3.9 0 003.532-2.476 4.305 4.305 0 00.258-1.428V106.3h4.62zm7.77 1.234a10.233 10.233 0 004.69 1.313c2.026 0 2.923-.824 2.923-2.028 0-1.236-.75-1.874-3-2.663-3.565-1.238-5.066-3.189-5.029-5.327 0-3.228 2.664-5.74 6.9-5.74a10.667 10.667 0 014.841 1.083l-.9 3.264a8.258 8.258 0 00-3.868-1.049c-1.649 0-2.55.79-2.55 1.916 0 1.161.862 1.726 3.188 2.547 3.3 1.207 4.841 2.893 4.881 5.6 0 3.3-2.59 5.741-7.433 5.741a11.764 11.764 0 01-5.554-1.312zm24.164-18.724v4.69h4.395v3.453h-4.395v8.07c0 2.21.6 3.379 2.369 3.379a5.737 5.737 0 001.8-.227l.078 3.525a10.022 10.022 0 01-3.342.488 5.349 5.349 0 01-3.98-1.539c-.973-1.051-1.423-2.7-1.423-5.1v-8.6h-2.632V106.3h2.632v-3.376zm26.267 15.309a4.7 4.7 0 00.158 1.276 4.167 4.167 0 004.046 3.226c2.928 0 4.658-2.438 4.658-6.041 0-3.228-1.577-5.852-4.54-5.852a4.3 4.3 0 00-4.131 3.415 4.235 4.235 0 00-.191 1.162v2.815zm-4.612-4.543c0-2.4-.078-4.351-.152-6.077h4.055l.228 2.816h.073a7.1 7.1 0 016.265-3.226c4.206 0 7.7 3.6 7.7 9.3 0 6.6-4.164 9.8-8.335 9.8a6 6 0 01-5.139-2.441h-.08v9.461h-4.612zm36.253 1.124c.037-1.688-.712-4.465-3.792-4.465-2.849 0-4.055 2.592-4.235 4.465zm-8.027 3.228c.1 3.3 2.7 4.732 5.626 4.732a13.64 13.64 0 005.066-.828l.675 3.193a17.136 17.136 0 01-6.378 1.162c-5.932 0-9.423-3.679-9.423-9.27 0-5.068 3.076-9.829 8.935-9.829 5.966 0 7.88 4.876 7.88 8.891a11.576 11.576 0 01-.149 1.95zm19.101-4.539c0-2.476-.042-4.238-.152-5.89h4.011l.156 3.489h.151a5.437 5.437 0 014.988-3.9 4.909 4.909 0 011.087.111v4.351a6.538 6.538 0 00-1.352-.147 4.066 4.066 0 00-4.126 3.489 7.823 7.823 0 00-.15 1.425v9.457h-4.613zm17.936 12.385v-14.823h-2.476V106.3h2.476v-.789a8.538 8.538 0 012.214-6.227 6.961 6.961 0 014.767-1.769 8.746 8.746 0 012.961.457l-.332 3.561a5.43 5.43 0 00-1.953-.339c-2.294 0-3.078 1.917-3.078 4.17v.936h4.016v3.453h-3.982v14.823zm25.329-11.074c.038-1.688-.715-4.465-3.79-4.465-2.848 0-4.051 2.592-4.239 4.465zm-8.029 3.228c.113 3.3 2.7 4.732 5.63 4.732a13.639 13.639 0 005.063-.828l.675 3.193a17.125 17.125 0 01-6.376 1.162c-5.929 0-9.418-3.679-9.418-9.27 0-5.068 3.076-9.829 8.931-9.829 5.966 0 7.874 4.876 7.874 8.891a11.16 11.16 0 01-.151 1.95zm32.535 7.283a13.2 13.2 0 01-5.18.977c-5.711 0-9.417-3.679-9.417-9.346 0-5.477 3.75-9.753 10.168-9.753a11.567 11.567 0 014.464.859l-.824 3.456a8.117 8.117 0 00-3.489-.713c-3.534 0-5.628 2.587-5.6 5.93 0 3.75 2.443 5.888 5.6 5.888a8.988 8.988 0 003.638-.711zm12.273-22.401v4.69h4.387v3.453h-4.391v8.07c0 2.21.6 3.379 2.367 3.379a5.734 5.734 0 001.8-.227l.074 3.525a10 10 0 01-3.34.488 5.352 5.352 0 01-3.979-1.539c-.975-1.051-1.43-2.7-1.43-5.1v-8.6h-2.619V106.3h2.619v-3.376z"/><script>new (class{constructor(e){this.client=window[Symbol.for(e)],this.bindEvents()}bindEvents(){const e=this;var t;history.pushState=(t=history.pushState,function(){const n=t.apply(this,arguments);return e.onUrlChange(),n});let n=!0;history.replaceState=(t=&gt;function(s){var r=t.apply(this,arguments);return n||e.onUrlChange(),n=!1,r})(history.replaceState),window.addEventListener(&quot;hashchange&quot;,(function(){e.onUrlChange()}))}onUrlChange(){this.client.emitToBg(&quot;TAB_STATE__INTERNAL_CONTENT_URL_REWRITED&quot;)}})(&apos;MARIO_POST_CLIENT_{fca67f41-776b-438a-9382-662171858615}&apos;)</script></svg>