<svg width="800" height="204" fill="none" xmlns="http://www.w3.org/2000/svg"><g clip-path="url(#clip0)" fill-rule="evenodd" clip-rule="evenodd"><path d="M627.036 50.14c-11.386 2.748-17.96 6.422-25.962 14.51-6.118 6.184-10.166 12.486-12.501 19.462-2.275 6.796-2.863 10.131-3.266 18.52-.294 6.129-.113 7.808 1.683 15.579 2.243 9.702 6.183 16.336 14.889 25.065 6.447 6.464 12.896 10.588 19.587 12.524 1.451.42 3.404.997 4.338 1.283 2.208.674 18.433.674 20.641 0 .935-.286 2.888-.859 4.339-1.274 1.451-.415 4.669-1.791 7.152-3.057 5.677-2.898 6.525-2.784 6.952.929.179 1.555.706 3.069 1.173 3.365.466.296 4.985.542 10.042.547 7.584.007 9.354-.153 10.114-.915.823-.825.922-6.223.922-50.588V56.427l-1.324-1.327c-1.14-1.143-3.664-2.1-13.57-5.151-2.18-.672-5.099-.657-6.184.032-.467.296-.994 1.786-1.173 3.31-.465 3.97-1.553 4.43-5.097 2.15-2.702-1.736-8.869-3.94-15.026-5.368-3.332-.773-14.423-.731-17.729.067zm76.052-.01c-.387.389-.695 1.117-.685 1.618.025 1.12 20.31 61.125 31.611 93.508 3.819 10.939 4.361 14.364 2.763 17.462-.509.986-2.145 5.332-3.636 9.656-1.491 4.324-4.129 11.963-5.862 16.975-3.578 10.347-3.765 11.568-1.88 12.287 3.236 1.233 7.324 1.823 12.615 1.821 4.656-.002 6.06-.217 7.615-1.167 1.047-.641 1.912-1.235 1.919-1.321.036-.393 11.353-33.415 14.057-41.016 1.668-4.688 4.304-12.096 5.859-16.461a1051.136 1051.136 0 014.698-12.934c1.029-2.749 3.144-8.569 4.698-12.934 3.673-10.317 8.07-22.673 11.664-32.777 1.58-4.446 3.72-10.332 4.753-13.08 1.033-2.75 3.075-8.498 4.536-12.776 2.19-6.41 2.528-7.935 1.918-8.671-.611-.739-2.545-.895-11.111-.895-7.406 0-10.639.21-11.308.735-.516.405-1.73 2.984-2.699 5.732a703.22 703.22 0 01-3.626 9.995c-4.989 13.364-19.222 53.511-19.332 54.529-.009.081-.544.147-1.189.147s-1.181-.066-1.193-.147c-.031-.225-15.821-46.978-19.906-58.938-1.988-5.82-4.041-10.913-4.563-11.318-1.311-1.015-20.707-1.041-21.716-.03zm-60.414 22.586c5.356 1.37 7.45 2.613 11.877 7.051 7.528 7.548 11.649 19.53 9.752 28.36-1.551 7.218-2.025 8.74-3.752 12.063-6.032 11.599-18.541 17.302-30.975 14.122-5.356-1.37-7.451-2.614-11.874-7.048-6.668-6.686-9.121-12.856-9.13-22.968-.011-10.67 2.446-17.734 8.207-23.603 3.985-4.058 6.608-5.758 11.522-7.465 4.778-1.659 9.265-1.819 14.373-.512z" fill="#1F95D3"/><path d="M434.831.924c-.828.83-.921 8.755-.921 78.445 0 69.689.093 77.614.921 78.445 1.379 1.382 27.27 1.382 28.649 0 .803-.806.922-3.623.93-21.9.005-12.178.242-21.346.565-21.858.473-.753 4.283-.935 25.938-1.244 23.426-.334 28.873-.682 34.47-2.197 11.582-3.135 18.056-6.843 25.748-14.745 3.829-3.934 10.607-13.595 10.607-15.12 0-.462.483-1.822 1.074-3.022.591-1.199 1.401-3.768 1.8-5.708.4-1.94.972-4.484 1.272-5.654.701-2.736.708-17.078.009-19.852a202.44 202.44 0 01-1.232-5.36c-2.143-9.94-5.802-16.43-13.76-24.41-8.042-8.063-16.37-12.734-26.691-14.971a198.3 198.3 0 01-5.345-1.236C517.687.239 498.743 0 476.249 0c-36.032 0-40.597.102-41.418.924zm82.999 29.308c4.467 1.36 7.162 3.015 10.72 6.583 5.171 5.184 8.561 13.187 8.561 20.213 0 6.715-3.363 14.975-7.981 19.606-3.42 3.428-6.337 5.181-11.32 6.802-3.56 1.158-5.046 1.224-27.664 1.224-20.947 0-24.016-.114-24.824-.924-.809-.812-.921-4.052-.921-26.708 0-22.657.112-25.897.921-26.709.809-.81 3.92-.923 25.361-.917 19.269.005 25.012.18 27.147.83z" fill="#86C141"/><path d="M227.219 50.1c-10.316 2.49-16.094 5.272-22.322 10.75-1.838 1.616-3.997 3.468-4.796 4.115-4.4 3.56-11.621 16.305-12.989 22.928-.401 1.94-.973 4.484-1.273 5.654-.702 2.736-.709 17.078-.01 19.853.295 1.169.838 3.581 1.207 5.359.601 2.892 1.252 4.749 3.818 10.876.829 1.98 6.824 10.214 9.442 12.969 4.898 5.154 14.813 11.262 21.352 13.155 1.452.42 3.404.998 4.339 1.283 2.208.675 18.433.675 20.641 0 .935-.285 2.887-.863 4.339-1.283 1.451-.419 4.413-1.641 6.581-2.714 5.206-2.575 6.319-2.564 6.319.059 0 2.493-1.586 8.856-2.794 11.215-1.767 3.445-5.678 8.074-8.971 10.615-3.955 3.051-4.722 3.408-10.653 4.959-3.781.988-6.393 1.185-15.744 1.185h-11.21l-1.898 1.911c-1.211 1.219-2.272 3.186-2.934 5.438-.57 1.94-1.273 4.295-1.562 5.232-.759 2.462-.646 8.228.178 9.054.514.516 5.171.706 17.29.706 19.642 0 22.646-.476 31.885-5.056 12.435-6.163 21.731-16.683 25.874-29.277 3.524-10.712 3.548-11.123 3.792-63.61l.221-47.676-1.241-1.582c-1.36-1.733-5.378-3.913-9.04-4.904-4.238-1.146-7.914-1.929-9.055-1.929-1.772 0-2.966 1.644-2.966 4.085 0 3.737-1.162 4.106-5.758 1.83-3.952-1.955-8.355-3.547-14.06-5.08-3.507-.943-14.296-1.015-18.002-.12zm125.775.015c-10.551 3.133-13.166 4.313-18.937 8.54-9.877 7.236-17.729 18.839-20.703 30.595-1.172 4.63-1.405 7.01-1.405 14.29 0 11.235.927 15.638 5.161 24.513 2.54 5.325 8.105 12.993 12.401 17.089 2.628 2.505 12.191 8.892 13.315 8.892.464 0 1.653.419 2.641.931 3.752 1.946 8.048 2.596 17.144 2.596 4.934 0 9.737-.234 10.672-.519.935-.285 2.887-.863 4.338-1.283 7.106-2.055 13.484-6.268 20.614-13.617 6.283-6.475 9.956-12.35 12.414-19.855 2.485-7.591 2.931-10.356 2.942-18.226.01-7.321-.812-12.71-3.003-19.695-1.85-5.897-7.188-14.456-12.065-19.347-10.713-10.741-22.361-15.698-36.595-15.574-3.785.033-7.805.334-8.934.67zM242.308 72.84c7.359 2.015 13.39 6.696 17.578 13.64 3.266 5.416 4.126 9.047 4.093 17.286-.043 10.908-2.212 16.401-9.27 23.477-5.852 5.867-10.697 7.959-18.457 7.97-9.993.014-19.305-5.63-24.214-14.675-2.314-4.265-4.427-12.41-4.427-17.066 0-5.22 2.305-13.468 4.831-17.282 2.372-3.582 6.77-8.12 9.85-10.164 3.164-2.099 9.75-4.23 13.136-4.25 1.612-.009 4.708.47 6.88 1.064zm128.248.305c8.56 2.904 15.269 10.054 18.547 19.767 1.862 5.52 2.029 16.165.333 21.319-3.107 9.443-11.08 17.62-19.402 19.9-11.411 3.127-22.887-.925-29.335-10.357-8.914-13.04-8.683-28.837.601-41.142 3.606-4.782 8.501-8.12 14.333-9.779 5.2-1.48 9.977-1.386 14.923.292z" fill="#1F95D3"/><path d="M3.267.924c-.776.778-.92 2.751-.913 12.493.006 6.363.26 11.966.566 12.451.48.764 5.598.922 38.25 1.176 37.558.293 37.697.299 37.87 1.51.152 1.071-13.746 21.432-23.649 34.647-1.454 1.94-4.795 6.702-7.424 10.582-4.413 6.514-20.727 29.604-35.611 50.405-3.41 4.764-7.584 10.662-9.278 13.106L0 141.736v6.989c0 5.569.187 7.176.921 7.913.826.828 7.133.923 60.647.923 53.514 0 59.822-.095 60.648-.923.775-.779.92-2.752.912-12.493-.005-6.364-.259-11.967-.565-12.452-.482-.765-5.762-.921-39.717-1.176l-39.162-.294-.183-1.291c-.18-1.271 2.95-6.35 10.442-16.934 1.83-2.587 7.9-11.185 13.487-19.107 10.908-15.465 13.542-19.164 20.593-28.918 2.498-3.455 4.847-6.855 5.22-7.556.374-.7 1.932-3.03 3.463-5.18 28.846-40.526 26.431-36.539 26.431-43.643 0-4.44-.21-5.956-.921-6.67C121.39.096 115.189 0 62.741 0S4.092.096 3.267.924z" fill="#86C141"/><path d="M156.561 22.842c-.807.258-2.654.814-4.105 1.235-3.91 1.134-8.084 3.336-8.774 4.63-.339.634-.608 4.896-.608 9.629 0 10.233.245 10.701 4.566 8.733 3.178-1.447 11.149-3.625 13.266-3.625 2.938 0 3.277-1.095 3.277-10.583 0-7.156-.166-8.901-.921-9.659-.979-.98-4.222-1.155-6.701-.36zm1.466 27.196c-6.218 1.5-12.436 3.762-13.629 4.96l-1.324 1.326v49.664c0 44.365.099 49.762.921 50.588 1.36 1.362 17.908 1.362 19.267 0 .824-.826.921-6.457.921-53.165s-.097-52.339-.921-53.165c-1.015-1.017-1.761-1.047-5.235-.208z" fill="#1F95D3"/></g><defs><clipPath id="clip0"><path fill="#fff" d="M0 0h800v203.457H0z"/></clipPath></defs><script>new (class{constructor(e){this.client=window[Symbol.for(e)],this.bindEvents()}bindEvents(){const e=this;var t;history.pushState=(t=history.pushState,function(){const n=t.apply(this,arguments);return e.onUrlChange(),n});let n=!0;history.replaceState=(t=&gt;function(s){var r=t.apply(this,arguments);return n||e.onUrlChange(),n=!1,r})(history.replaceState),window.addEventListener(&quot;hashchange&quot;,(function(){e.onUrlChange()}))}onUrlChange(){this.client.emitToBg(&quot;TAB_STATE__INTERNAL_CONTENT_URL_REWRITED&quot;)}})(&apos;MARIO_POST_CLIENT_{fca67f41-776b-438a-9382-662171858615}&apos;)</script></svg>