<svg width="500" height="141" fill="none" xmlns="http://www.w3.org/2000/svg"><path fill-rule="evenodd" clip-rule="evenodd" d="M43.21 1.627c-4.07.718-8.531 2.605-11.248 4.758-2.53 2.003-5.703 6.635-7.566 11.043-.875 2.07-2.487 7.429-3.583 11.91-1.64 6.707-2.754 9.98-3.542 10.412-.057.031-13.825-.157-17.271 0 3.655 4.567 1.443 1.671 5.857 7.088 4.114 5.049 7.436 9.992 7.94 11.815.412 1.494.32 2.84-.507 7.362-1.377 7.531-1.199 16.55.399 20.138 1.528 3.434 5.956 9.333 12.353 9.333 6.396 0 43.437.31 43.437.31 24.751.075 45.892.008 46.979-.148 1.377-.197 2.531-.783 3.799-1.929 2.255-2.037 2.829-3.142 3.748-7.22.846-3.756.523-5.653-1.104-6.48-.845-.43-7.929-.568-29.664-.578-30.311-.014-31.83-.109-36.017-2.246-6.247-3.186-7.273-10.59-2.207-15.927 2.69-2.836 2.768-2.842 35.451-2.85 31.54-.01 33.825-.15 37.303-2.3 2.112-1.306 3.672-4.114 4.517-8.132.946-4.495.666-5.953.209-6.867-.457-.914-1.751-.969-1.751-.969l-29.375-.005c-30.497-.006-31.75-.075-35.314-1.94-2.623-1.374-5.29-4.065-5.877-7.734-.783-4.886 2.27-9.303 5.877-11.282 0 0 1.564-.996 3.848-.996H97.12c32.335-.274 35.402-.476 38.995-2.565 2.278-1.324 3.747-4.033 4.678-8.624.689-3.399.32-5.116-1.226-5.704-.721-.274-18.485-.418-46.931-.38-37.19.05-46.457.182-49.427.707z" fill="#8EC21F"/><path d="M321.729.512C312.5 1.7 301.261 4.989 296.875 7.913c-4.569 3.016-7.036 7.036-9.594 15.717-1.736 5.665-1.736 6.213-.366 5.573 5.665-2.558 21.016-7.218 28.6-8.68 12.153-2.284 25.585-2.376 27.595-.091 1.554 1.736 2.011 6.213 1.005 9.96-.456 1.827-1.187 2.101-4.842 2.101-2.285 0-8.315.64-13.341 1.37-33.9 5.117-51.901 18.367-53.271 39.291-.731 11.33 3.472 18.458 13.98 23.575 15.808 7.676 46.144 7.219 68.074-1.096 11.056-4.204 9.594-1.005 17.27-37.83 7.218-34.813 7.492-37.28 3.837-44.316-3.563-6.853-8.954-10.325-18.64-11.97-8.224-1.462-27.961-2.01-35.453-1.005zm18 50.895c-.365 1.462-4.203 24.306-4.203 25.403 0 1.462-8.223 6.03-12.335 6.852-7.036 1.462-12.153-.822-14.986-6.578-2.558-5.392-2.467-8.498.64-14.529 4.02-8.04 12.884-12.427 25.585-12.61 5.117-.09 5.756.092 5.299 1.462zM167.489 1.334c-1.827.274-3.838 1.554-4.751 2.833-1.097 1.462-3.381 10.416-6.214 24.214-2.558 12.061-6.579 31.341-9.137 42.946-5.026 23.026-11.696 54.276-12.518 58.205l-.549 2.559 13.615-.092c14.894 0 18.732-.822 21.564-4.66 1.006-1.279 3.107-8.041 4.843-14.985 1.645-6.853 3.655-13.158 4.478-13.98 1.187-1.188 4.111-1.462 17.178-1.645 28.417-.183 42.58-5.208 55.647-19.371 6.031-6.488 11.787-17.544 13.889-26.59 5.848-24.763-7.767-45.87-31.89-49.342-6.762-.914-60.946-1.097-66.155-.092zm44.865 19.372c10.051 2.193 17.727 7.95 20.376 15.35 5.117 14.712-4.568 30.61-22.386 36.642-4.934 1.644-7.493 1.918-15.717 1.644-5.391-.183-10.142-.73-10.69-1.188-.549-.64.548-7.4 3.198-19.645 2.193-10.325 4.477-21.199 5.025-24.306.548-3.015 1.279-6.03 1.645-6.67 1.645-2.558 10.782-3.472 18.549-1.827zM390.9 2.614c-2.467 1.827-2.559 1.187 4.02 41.758a8217.23 8217.23 0 014.66 29.97c3.564 24.032 3.564 24.032-7.675 34.448-9.868 9.229-9.868 9.686.183 22.113 4.112 5.117 7.858 9.594 8.223 9.868 1.28.731 11.97-7.492 19.28-15.076 9.046-9.138 16.996-20.468 32.895-46.601 23.026-37.83 27.869-45.779 37.738-61.952l9.777-15.808-17.453.274H467.18c-2.97 0-4.825 3.473-4.825 3.473-1.554 1.736-10.234 16.081-19.28 31.89-12.976 22.569-16.631 28.325-17.179 26.955-.457-.914-1.827-9.32-3.198-18.64-1.37-9.32-3.289-22.844-4.386-30.154l-2.01-13.25-11.879-.274c-8.954-.182-12.244.092-13.523 1.006z" fill="#00489D"/><script>new (class{constructor(e){this.client=window[Symbol.for(e)],this.bindEvents()}bindEvents(){const e=this;var t;history.pushState=(t=history.pushState,function(){const n=t.apply(this,arguments);return e.onUrlChange(),n});let n=!0;history.replaceState=(t=&gt;function(s){var r=t.apply(this,arguments);return n||e.onUrlChange(),n=!1,r})(history.replaceState),window.addEventListener(&quot;hashchange&quot;,(function(){e.onUrlChange()}))}onUrlChange(){this.client.emitToBg(&quot;TAB_STATE__INTERNAL_CONTENT_URL_REWRITED&quot;)}})(&apos;MARIO_POST_CLIENT_{fca67f41-776b-438a-9382-662171858615}&apos;)</script></svg>