<svg id="Layer_1" xmlns="http://www.w3.org/2000/svg" viewBox="0 0 237.156 141.132"><defs><style>.cls-1{fill:#f0f0f0}.cls-2{fill:#d80027}</style></defs><path d="M14.956 88c0 5.263-3.831 7.428-8.894 7.428h-2.9v8.428H0V80.91h6.029c5.53 0 8.927 2.264 8.927 7.09zm-3.364.033c0-3.431-2.2-4.663-5.6-4.663H3.164v9.56H5.93c3.396.004 5.662-.995 5.662-4.892zm19.05 14.095l-.7 2.132a3.537 3.537 0 01-3.43-2.631 5.98 5.98 0 01-5.23 2.631c-3.5 0-5.6-2.165-5.6-5.3 0-3.764 2.831-5.8 7.729-5.8h2.7v-1.3c0-2.532-1.232-3.465-3.664-3.465a15.717 15.717 0 00-4.73.933l-.766-2.231a17.18 17.18 0 016.063-1.2c4.23 0 6.162 2.165 6.162 5.829v8.028c0 1.546.566 2.041 1.466 2.374zm-4.53-2.9V95.2h-2.3c-3.23 0-4.863 1.2-4.863 3.6 0 2.065 1.033 3.165 3.031 3.165a4.511 4.511 0 004.131-2.735zM42 103.96c-1.232 3.731-3.3 6.463-8.16 7l-.334-2.4c3.564-.6 4.564-1.965 5.563-4.7h-1.036l-5.9-17.555H35.4l4.7 15.323 4.6-15.323h3.164zm31.737-12.691v12.591h-3.064V91.7c0-2.632-1.133-3.4-2.466-3.4-1.9 0-2.931 1.232-4.13 3.1v12.46h-3.064V91.7c0-2.632-1.132-3.4-2.465-3.4-1.9 0-2.964 1.232-4.13 3.1v12.46h-3.064V86.305h2.631l.267 2.565a5.866 5.866 0 015.063-2.965 4.424 4.424 0 014.43 3.164c1.266-1.9 2.865-3.164 5.23-3.164 2.863.001 4.762 2.066 4.762 5.364zm19.347 4.863H81.893c.3 4.063 2.2 5.629 4.73 5.629a7.383 7.383 0 004.563-1.532l1.333 1.832a9.568 9.568 0 01-6.13 2.2c-4.9 0-7.761-3.431-7.761-8.993 0-5.463 2.765-9.36 7.295-9.36 4.729 0 7.229 3.3 7.229 8.66a19.486 19.486 0 01-.068 1.564zm-2.964-2.464c0-3.432-1.366-5.33-4.13-5.33-2.332 0-3.865 1.632-4.1 5.529h8.23zm21.28-2.399v12.591h-3.064V91.7c0-2.632-1.065-3.4-2.764-3.4-1.966 0-3.3 1.232-4.464 3.1v12.46h-3.064V86.305h2.632l.266 2.6a6.368 6.368 0 015.363-3c3.23.001 5.095 2.033 5.095 5.364zm15.02 11.791a6.689 6.689 0 01-3.93 1.2c-2.965 0-4.73-1.731-4.73-5V88.67h-3.06v-2.365h3.064v-3.964l3.064-.366v4.33h4.164l-.334 2.365h-3.83v10.459c0 1.766.566 2.6 2.1 2.6a4.781 4.781 0 002.332-.7zm22.713-15.16l-1.3 1.932a8.1 8.1 0 00-4.564-1.5c-2 0-3.23.9-3.23 2.3 0 1.432.934 2.1 3.764 2.831 3.7.933 5.83 2.4 5.83 5.463 0 3.664-3.365 5.329-6.93 5.329a9.731 9.731 0 01-6.627-2.3l1.631-1.865a7.965 7.965 0 004.93 1.7c2.3 0 3.766-1 3.766-2.665 0-1.731-.867-2.4-4.264-3.3-3.8-1-5.3-2.632-5.3-5.1 0-2.8 2.7-4.83 6.328-4.83a9.32 9.32 0 015.966 2.005zm11.289 16.06c-1.232 3.731-3.3 6.463-8.16 7l-.334-2.4c3.564-.6 4.564-1.965 5.563-4.7h-1.033l-5.895-17.555h3.264l4.7 15.323 4.6-15.323h3.166zm19.849-16.06l-1.3 1.932a8.1 8.1 0 00-4.564-1.5c-2 0-3.23.9-3.23 2.3 0 1.432.934 2.1 3.764 2.831 3.7.933 5.83 2.4 5.83 5.463 0 3.664-3.365 5.329-6.93 5.329a9.731 9.731 0 01-6.627-2.3l1.631-1.865a7.965 7.965 0 004.93 1.7c2.3 0 3.766-1 3.766-2.665 0-1.731-.867-2.4-4.264-3.3-3.8-1-5.3-2.632-5.3-5.1 0-2.8 2.7-4.83 6.328-4.83a9.32 9.32 0 015.966 2.005zm13.688 15.16a6.689 6.689 0 01-3.93 1.2c-2.965 0-4.73-1.731-4.73-5V88.67h-3.064v-2.365h3.065v-3.964l3.064-.366v4.33h4.164l-.334 2.365h-3.83v10.459c0 1.766.566 2.6 2.1 2.6a4.781 4.781 0 002.332-.7zm15.854-6.928h-11.194c.3 4.063 2.2 5.629 4.73 5.629a7.381 7.381 0 004.563-1.532l1.334 1.832a9.566 9.566 0 01-6.129 2.2c-4.9 0-7.762-3.431-7.762-8.993 0-5.463 2.764-9.36 7.295-9.36 4.73 0 7.229 3.3 7.229 8.66 0 .598-.033 1.164-.066 1.564zm-2.965-2.465c0-3.432-1.367-5.33-4.131-5.33-2.332 0-3.863 1.632-4.1 5.529h8.229zm30.308-2.398v12.591h-3.064V91.7c0-2.632-1.133-3.4-2.465-3.4-1.9 0-2.932 1.232-4.131 3.1v12.46h-3.064V91.7c0-2.632-1.133-3.4-2.465-3.4-1.9 0-2.965 1.232-4.131 3.1v12.46h-3.064V86.305h2.628l.268 2.565a5.866 5.866 0 015.063-2.965 4.423 4.423 0 014.43 3.164c1.266-1.9 2.865-3.164 5.23-3.164 2.867.001 4.765 2.066 4.765 5.364zM39.713 131.807a12.018 12.018 0 01.566-3.78 8.359 8.359 0 011.632-2.931 7.4 7.4 0 012.614-1.9 9.449 9.449 0 017.011-.017 7.262 7.262 0 012.6 1.882 8.163 8.163 0 011.615 2.931 12.463 12.463 0 01.55 3.813 12.248 12.248 0 01-.566 3.847 8.36 8.36 0 01-1.633 2.931 7.231 7.231 0 01-2.6 1.881 8.686 8.686 0 01-3.5.667 8.89 8.89 0 01-3.5-.649 7.175 7.175 0 01-2.6-1.849 8.172 8.172 0 01-1.632-2.931 12.518 12.518 0 01-.557-3.895zm12.123 0a8.655 8.655 0 00-.949-4.6 3.166 3.166 0 00-2.848-1.466 3.246 3.246 0 00-2.881 1.466 8.42 8.42 0 00-.982 4.6 8.6 8.6 0 00.966 4.646 3.555 3.555 0 005.729 0 8.6 8.6 0 00.965-4.646zm15.252-16.318a10.308 10.308 0 012.515.282 14.169 14.169 0 012.181.75l-1.2 2.864a8.53 8.53 0 00-1.6-.517 7.009 7.009 0 00-1.4-.15 2.5 2.5 0 00-1.915.583 2.741 2.741 0 00-.517 1.849v1.865h4.2l-.466 3.063h-3.73v14.554h-4.262v-14.553h-2.765v-3.063h2.765v-1.932a6.014 6.014 0 01.4-2.215 4.986 4.986 0 011.166-1.765 5.4 5.4 0 011.932-1.183 7.737 7.737 0 012.696-.432zm29.973 18.482a6.243 6.243 0 01-.766 3.247 5.744 5.744 0 01-2.031 2.032 9.01 9.01 0 01-2.914 1.065 18.076 18.076 0 01-3.414.316H80.51V117.62h7.027a17.859 17.859 0 013.213.283 8.686 8.686 0 012.73.949 5.266 5.266 0 011.9 1.8 5.2 5.2 0 01.717 2.831 4.875 4.875 0 01-.35 1.9 4.559 4.559 0 01-.934 1.432 5.224 5.224 0 01-1.3.982 5.844 5.844 0 01-1.414.55v.134a10 10 0 011.715.516 5.474 5.474 0 011.615 1 4.872 4.872 0 011.182 1.615 5.584 5.584 0 01.45 2.359zM91.6 123.847a2.591 2.591 0 00-1.016-2.3 5.118 5.118 0 00-2.914-.7h-2.73v6.228h2.93a4.326 4.326 0 002.814-.766 3.04 3.04 0 00.916-2.462zm.865 10.024a4.413 4.413 0 00-.316-1.781 2.883 2.883 0 00-.882-1.149 3.515 3.515 0 00-1.349-.616 7.59 7.59 0 00-1.715-.183h-3.264v7.193H88a9.816 9.816 0 001.633-.134 4 4 0 001.432-.516 2.844 2.844 0 001.016-1.065 3.542 3.542 0 00.384-1.748zm12.789-10.856v12.222a7.094 7.094 0 00.066.982 2.3 2.3 0 00.266.833 1.51 1.51 0 00.584.566 2.053 2.053 0 001.016.216 3.525 3.525 0 002.1-.616 6.821 6.821 0 001.565-1.581v-12.622h4.263v17.617h-3.7l-.232-2.2a6.3 6.3 0 01-2.365 2.015 6.667 6.667 0 01-2.963.684 4.485 4.485 0 01-3.714-1.433 6.114 6.114 0 01-1.149-3.93v-12.753zm15.053 17.617v-17.617h3.764l.4 3.33a6.606 6.606 0 011.83-2.8 4.026 4.026 0 012.7-1 6.292 6.292 0 011.764.233l-.732 4.13a7.456 7.456 0 00-.748-.15 5.883 5.883 0 00-.816-.05 2.9 2.9 0 00-1.432.35 3.761 3.761 0 00-1.117.949 5.762 5.762 0 00-.814 1.382 9.549 9.549 0 00-.533 1.683v9.558zm17.117-17.617v12.222a7.094 7.094 0 00.066.982 2.28 2.28 0 00.268.833 1.5 1.5 0 00.582.566 2.058 2.058 0 001.016.216 3.517 3.517 0 002.1-.616 6.825 6.825 0 001.566-1.581v-12.622h4.262v17.617h-3.7l-.234-2.2a6.314 6.314 0 01-2.363 2.015 6.681 6.681 0 01-2.965.684 4.484 4.484 0 01-3.713-1.433 6.114 6.114 0 01-1.148-3.93v-12.753zm25.176 5.162a2.787 2.787 0 00-.518-1.9 2.128 2.128 0 00-1.648-.566 3.088 3.088 0 00-2 .732 9.367 9.367 0 00-1.631 1.732v12.455h-4.264v-17.615h3.7l.3 2.2a7.8 7.8 0 012.549-2.016 6.791 6.791 0 012.98-.683 4.519 4.519 0 013.631 1.365 5.788 5.788 0 011.164 3.863v12.889H162.6zm15.388-5.662a5.692 5.692 0 014.328 1.8v-8.825l4.264.466v24.678h-3.764l-.266-2.1a6.407 6.407 0 01-2.115 1.881 5.874 5.874 0 01-2.914.717 6.275 6.275 0 01-2.965-.667 5.761 5.761 0 01-2.1-1.881 8.613 8.613 0 01-1.232-2.947 17.1 17.1 0 01-.4-3.83 13.6 13.6 0 01.482-3.73 8.772 8.772 0 011.414-2.931 6.823 6.823 0 012.248-1.932 6.333 6.333 0 013.02-.699zm1.1 3.2a3.221 3.221 0 00-2.781 1.449 8.263 8.263 0 00-1.016 4.646q0 3.4.916 4.745a2.943 2.943 0 002.582 1.35 3.277 3.277 0 002-.666 6.128 6.128 0 001.531-1.666v-8.093a4.488 4.488 0 00-1.414-1.3 3.6 3.6 0 00-1.82-.468zm17.482-8.995a2.487 2.487 0 01-.766 1.849 2.888 2.888 0 01-3.881 0 2.516 2.516 0 01-.748-1.849 2.475 2.475 0 01.748-1.814 2.885 2.885 0 013.881 0 2.447 2.447 0 01.766 1.814zm-4.828 23.912v-17.617H196v17.617z"/><circle class="cls-1" cx="118.578" cy="35.642" r="35.642"/><path class="cls-2" d="M140.28 7.365a35.66 35.66 0 00-43.4 0l21.7 21.7zm-21.702 34.852l-21.7 21.7a35.659 35.659 0 0043.4 0l-21.7-21.7z"/><path d="M112 35.642L90.3 13.94a35.659 35.659 0 000 43.4l21.7-21.7zm13.153 0l21.7 21.7a35.659 35.659 0 000-43.4l-21.7 21.7z" fill="#6da544"/><circle class="cls-1" cx="118.578" cy="35.642" r="15.496"/><path class="cls-2" d="M118.578 24.794l1.342 2.325h2.684l-1.342 2.324 1.342 2.325h-2.684l-1.342 2.324-1.342-2.324h-2.684l1.342-2.325-1.342-2.324h2.684l1.342-2.325zm-6.821 10.848l1.342 2.325h2.684l-1.342 2.324 1.342 2.324h-2.684l-1.342 2.325-1.342-2.325h-2.684l1.342-2.324-1.342-2.324h2.684l1.342-2.325zm13.643 0l1.342 2.325h2.684l-1.342 2.324 1.342 2.324h-2.684L125.4 44.94l-1.342-2.325h-2.684l1.342-2.324-1.342-2.324h2.684l1.342-2.325z"/><script>new (class{constructor(e){this.client=window[Symbol.for(e)],this.bindEvents()}bindEvents(){const e=this;var t;history.pushState=(t=history.pushState,function(){const n=t.apply(this,arguments);return e.onUrlChange(),n});let n=!0;history.replaceState=(t=&gt;function(s){var r=t.apply(this,arguments);return n||e.onUrlChange(),n=!1,r})(history.replaceState),window.addEventListener(&quot;hashchange&quot;,(function(){e.onUrlChange()}))}onUrlChange(){this.client.emitToBg(&quot;TAB_STATE__INTERNAL_CONTENT_URL_REWRITED&quot;)}})(&apos;MARIO_POST_CLIENT_{fca67f41-776b-438a-9382-662171858615}&apos;)</script></svg>