<svg id="Layer_1" xmlns="http://www.w3.org/2000/svg" viewBox="0 0 141.77 59.785"><defs><style>.cls-3{fill:#eac113}</style></defs><path d="M91.247 27.8l-1.64-5.382h-8.242L79.726 27.8h-5.165l7.98-22.7H88.4l8.011 22.7zm-2.783-9.4q-2.273-7.315-2.56-8.273t-.41-1.527q-.51 1.979-2.923 9.789zm19.516 9.4h-4.794V9.176h-6.139v-3.99h17.072v3.99h-6.14zm19.191 0l-5.443-17.738h-.139q.293 5.414.294 7.223V27.8H117.6V5.186h6.526l5.351 17.289h.093l5.676-17.289h6.525V27.8H137.3V17.1q0-.759.023-1.748t.208-5.258h-.139L131.564 27.8z" fill="#eab828"/><path d="M86.121 50.73h-2.39v-6.89a3.013 3.013 0 00-.522-1.936 2.015 2.015 0 00-1.656-.638 2.634 2.634 0 00-2.209.892 4.922 4.922 0 00-.7 2.988v5.584h-2.381V39.524h1.864l.335 1.469h.121a3.316 3.316 0 011.438-1.235 4.816 4.816 0 012.067-.436q4.033 0 4.032 4.1zm13.253-5.623a6.116 6.116 0 01-1.408 4.285 5.046 5.046 0 01-3.922 1.541 5.372 5.372 0 01-2.775-.71 4.678 4.678 0 01-1.854-2.036 6.933 6.933 0 01-.648-3.08 6.074 6.074 0 011.4-4.256 5.07 5.07 0 013.941-1.529 4.934 4.934 0 013.85 1.565 6.043 6.043 0 011.416 4.22zm-3.029-6.951a11.3 11.3 0 01-2.311-1.823 13.116 13.116 0 01-2.279 1.823h-1.6V37.9a19.9 19.9 0 002.574-3.07h2.634a16.893 16.893 0 002.594 3.07v.253zm-5.127 6.951q0 3.88 2.867 3.88 2.837 0 2.837-3.88 0-3.841-2.857-3.84a2.437 2.437 0 00-2.173.992 5.055 5.055 0 00-.674 2.848zm1.51 8.277a1.317 1.317 0 01.35-.982 1.362 1.362 0 011-.345 1.314 1.314 0 01.987.35 1.344 1.344 0 01.34.978 1.211 1.211 0 01-1.327 1.308 1.351 1.351 0 01-1-.35 1.294 1.294 0 01-.35-.959zm9.24-16.829a1.315 1.315 0 01.35-.982 1.363 1.363 0 011-.345 1.334 1.334 0 01.978.345 1.315 1.315 0 01.35.982 1.294 1.294 0 01-.35.958 1.324 1.324 0 01-.978.35 1.353 1.353 0 01-1-.35 1.294 1.294 0 01-.35-.958zm2.522 14.175h-2.381V39.524h2.381zm12.534.203a3.879 3.879 0 01-3.248-1.5 6.578 6.578 0 01-1.159-4.129 6.824 6.824 0 011.119-4.245 3.957 3.957 0 013.328-1.438 3.893 3.893 0 013.4 1.642h.122a7.823 7.823 0 01-.1-.8q-.07-.7-.071-1.145v-.942h-3.88v-1.648h3.88v-1.764h2.392v1.764h1.58v1.651h-1.58V50.73h-1.955l-.437-1.469h-.1a3.672 3.672 0 01-3.291 1.672zm.739-1.926a2.57 2.57 0 002.1-.806 4 4 0 00.664-2.558v-.335a4.816 4.816 0 00-.654-2.9 2.629 2.629 0 00-2.193-.831 2.147 2.147 0 00-1.89.9 5.123 5.123 0 00-.623 2.862q.003 3.668 2.597 3.668zm8.437 4.377a1.321 1.321 0 01.35-.982 1.365 1.365 0 011-.345 1.315 1.315 0 01.988.35 1.343 1.343 0 01.339.978 1.21 1.21 0 01-1.327 1.308 1.355 1.355 0 01-1-.35 1.3 1.3 0 01-.35-.959zm.031-16.829a1.319 1.319 0 01.349-.982 1.365 1.365 0 011-.345 1.336 1.336 0 01.979.345 1.319 1.319 0 01.35.982 1.3 1.3 0 01-.35.958 1.326 1.326 0 01-.979.35 1.355 1.355 0 01-1-.35 1.3 1.3 0 01-.346-.958zm2.522 14.175h-2.381V39.524h2.381zm10.42 0l-.477-1.561h-.081a4.592 4.592 0 01-1.631 1.394 5.166 5.166 0 01-2.107.37 3.566 3.566 0 01-2.579-.893 3.333 3.333 0 01-.927-2.522 2.962 2.962 0 011.287-2.614 7.42 7.42 0 013.921-.962l1.936-.062v-.6a2.266 2.266 0 00-.5-1.605 2.045 2.045 0 00-1.556-.532 5.406 5.406 0 00-1.651.253 12.534 12.534 0 00-1.52.6l-.771-1.7a8.282 8.282 0 012-.725 9.156 9.156 0 012.047-.248 4.852 4.852 0 013.228.932 3.652 3.652 0 011.089 2.928v7.547zm-3.546-1.621a2.948 2.948 0 002.082-.725 2.625 2.625 0 00.785-2.031v-.973l-1.439.061a4.929 4.929 0 00-2.446.563 1.708 1.708 0 00-.765 1.535 1.5 1.5 0 00.445 1.16 1.916 1.916 0 001.338.41z" fill="#6d6c64"/><path class="cls-3" d="M46.155 15.408a.8.8 0 00.33-1.529L15.91.323a3.692 3.692 0 00-4.882 1.872L.323 26.2a3.692 3.692 0 001.872 4.882l6.166 2.667a1.175 1.175 0 001.652-1.064V22.492a7.075 7.075 0 017.072-7.072h29.07v-.012z"/><path class="cls-3" d="M54.156 18.736H17.072a3.744 3.744 0 00-3.744 3.744v26.2a3.744 3.744 0 003.744 3.744h4.98a13.6 13.6 0 01-.184-2.239 14.167 14.167 0 01.232-2.508h-4.012V35.131h35.065V47.66h-4.025a14.167 14.167 0 01.232 2.508 13.6 13.6 0 01-.184 2.239h4.98a3.744 3.744 0 003.744-3.744V22.48a3.744 3.744 0 00-3.744-3.744zm-1 8.675H18.088v-3.928h35.065z"/><path class="cls-3" d="M35.62 40.551a9.617 9.617 0 109.617 9.617 9.618 9.618 0 00-9.617-9.617zm2.765 13.41a3.043 3.043 0 01-1.6 1.028.448.448 0 00-.392.514c.012.281 0 .563 0 .856a.346.346 0 01-.379.392q-.459.018-.918 0c-.269 0-.392-.159-.392-.416v-.625c0-.453-.024-.477-.465-.551a5.769 5.769 0 01-1.627-.465c-.4-.2-.453-.294-.33-.722.086-.318.171-.636.269-.942.11-.367.208-.4.551-.232a5.248 5.248 0 001.811.538 2.2 2.2 0 001.187-.159.918.918 0 00.22-1.615 2.482 2.482 0 00-.673-.392 13.956 13.956 0 01-1.847-.832 2.6 2.6 0 01-1.48-2.508 2.755 2.755 0 012.019-2.557c.489-.184.5-.171.5-.685v-.526c.012-.392.073-.453.465-.465h.355c.832 0 .832 0 .832.832 0 .587 0 .587.587.673a5.336 5.336 0 011.285.379.37.37 0 01.245.5c-.1.355-.2.722-.318 1.064s-.22.379-.538.232a4.039 4.039 0 00-2.031-.4 1.625 1.625 0 00-.538.11.772.772 0 00-.2 1.37 3.909 3.909 0 00.881.5 13.646 13.646 0 011.615.734 2.878 2.878 0 01.907 4.37z"/><script>new (class{constructor(e){this.client=window[Symbol.for(e)],this.bindEvents()}bindEvents(){const e=this;var t;history.pushState=(t=history.pushState,function(){const n=t.apply(this,arguments);return e.onUrlChange(),n});let n=!0;history.replaceState=(t=&gt;function(s){var r=t.apply(this,arguments);return n||e.onUrlChange(),n=!1,r})(history.replaceState),window.addEventListener(&quot;hashchange&quot;,(function(){e.onUrlChange()}))}onUrlChange(){this.client.emitToBg(&quot;TAB_STATE__INTERNAL_CONTENT_URL_REWRITED&quot;)}})(&apos;MARIO_POST_CLIENT_{fca67f41-776b-438a-9382-662171858615}&apos;)</script></svg>