<svg id="Layer_1" xmlns="http://www.w3.org/2000/svg" viewBox="0 0 241 143.421"><path d="M15.2 92.721c0 5.348-3.893 7.548-9.038 7.548H3.216v8.564H0V85.51h6.127c5.619 0 9.073 2.303 9.073 7.211zm-3.419.034c0-3.486-2.234-4.739-5.687-4.739H3.216v9.715h2.809c3.453 0 5.755-1.015 5.755-4.976zm19.357 14.318l-.711 2.166a3.6 3.6 0 01-3.486-2.674 6.077 6.077 0 01-5.314 2.674c-3.554 0-5.687-2.2-5.687-5.382 0-3.825 2.877-5.89 7.853-5.89h2.741v-1.32c0-2.573-1.252-3.521-3.723-3.521a15.969 15.969 0 00-4.811.949l-.779-2.268a17.457 17.457 0 016.161-1.219c4.3 0 6.262 2.2 6.262 5.924v8.158c.005 1.558.58 2.065 1.494 2.403zm-4.6-2.944v-4.1H24.2c-3.283 0-4.942 1.219-4.942 3.655 0 2.1 1.049 3.216 3.08 3.216a4.583 4.583 0 004.197-2.771zm16.139 4.806c-1.252 3.792-3.351 6.568-8.293 7.109l-.338-2.437c3.622-.609 4.637-2 5.653-4.772h-1.05l-5.991-17.841h3.318l4.772 15.572 4.672-15.572h3.215zm32.256-12.896v12.795h-3.115V96.478c0-2.674-1.151-3.453-2.505-3.453-1.929 0-2.979 1.252-4.2 3.148v12.66H62V96.478c0-2.674-1.151-3.453-2.5-3.453-1.929 0-3.012 1.252-4.2 3.148v12.66h-3.115V90.994h2.674l.271 2.606a5.962 5.962 0 015.145-3.013 4.5 4.5 0 014.5 3.215c1.286-1.929 2.911-3.215 5.315-3.215 2.91.001 4.843 2.1 4.843 5.452zm19.66 4.942H83.22c.3 4.129 2.234 5.72 4.807 5.72a7.506 7.506 0 004.637-1.557l1.354 1.862a9.722 9.722 0 01-6.229 2.234c-4.976 0-7.887-3.486-7.887-9.139 0-5.551 2.81-9.512 7.413-9.512 4.807 0 7.346 3.351 7.346 8.8 0 .611-.033 1.185-.068 1.592zm-3.012-2.5c0-3.487-1.388-5.416-4.2-5.416-2.37 0-3.927 1.658-4.164 5.619h8.361zm21.626-2.442v12.795h-3.114V96.478c0-2.674-1.083-3.453-2.809-3.453-2 0-3.351 1.252-4.536 3.148v12.66h-3.115V90.994h2.674l.271 2.641a6.471 6.471 0 015.45-3.047c3.283 0 5.179 2.066 5.179 5.451zm15.262 11.982a6.793 6.793 0 01-3.993 1.219c-3.013 0-4.807-1.76-4.807-5.077V93.4h-3.114V91h3.114v-4.034l3.114-.372v4.4h4.232l-.338 2.4h-3.893v10.629c0 1.794.576 2.641 2.133 2.641a4.864 4.864 0 002.37-.711zm23.082-15.401l-1.321 1.963a8.229 8.229 0 00-4.637-1.523c-2.03 0-3.283.914-3.283 2.336 0 1.455.948 2.132 3.825 2.877 3.757.948 5.924 2.437 5.924 5.551 0 3.723-3.419 5.415-7.041 5.415a9.892 9.892 0 01-6.735-2.335l1.658-1.9a8.092 8.092 0 005.01 1.726c2.336 0 3.826-1.015 3.826-2.708 0-1.76-.88-2.436-4.333-3.35-3.859-1.016-5.383-2.674-5.383-5.179 0-2.843 2.742-4.908 6.432-4.908a9.471 9.471 0 016.058 2.035zm11.471 16.315c-1.252 3.792-3.35 6.568-8.292 7.109l-.338-2.437c3.621-.609 4.637-2 5.653-4.772h-1.05L153 90.994h3.318l4.772 15.572 4.671-15.572h3.216zm20.172-16.315l-1.321 1.963a8.229 8.229 0 00-4.637-1.523c-2.03 0-3.283.914-3.283 2.336 0 1.455.948 2.132 3.825 2.877 3.757.948 5.924 2.437 5.924 5.551 0 3.723-3.419 5.415-7.041 5.415a9.892 9.892 0 01-6.735-2.335l1.658-1.9a8.092 8.092 0 005.01 1.726c2.336 0 3.826-1.015 3.826-2.708 0-1.76-.88-2.436-4.333-3.35C172.226 99.66 170.7 98 170.7 95.5c0-2.843 2.742-4.908 6.432-4.908a9.471 9.471 0 016.062 2.028zm13.906 15.401a6.793 6.793 0 01-3.993 1.219c-3.013 0-4.807-1.76-4.807-5.077V93.4h-3.114V91h3.114v-4.034l3.114-.372v4.4h4.232l-.338 2.4h-3.893v10.629c0 1.794.576 2.641 2.133 2.641a4.864 4.864 0 002.37-.711zm16.113-7.04h-11.374c.3 4.129 2.234 5.72 4.806 5.72a7.505 7.505 0 004.637-1.557l1.355 1.862a9.721 9.721 0 01-6.228 2.234c-4.976 0-7.888-3.486-7.888-9.139 0-5.551 2.809-9.512 7.413-9.512 4.807 0 7.346 3.351 7.346 8.8 0 .611-.033 1.185-.067 1.592zm-3.013-2.5c0-3.487-1.388-5.416-4.2-5.416-2.369 0-3.926 1.658-4.163 5.619h8.363zm30.8-2.442v12.795h-3.114V96.478c0-2.674-1.151-3.453-2.5-3.453-1.93 0-2.979 1.252-4.2 3.148v12.66h-3.114V96.478c0-2.674-1.151-3.453-2.5-3.453-1.929 0-3.013 1.252-4.2 3.148v12.66h-3.114V90.994h2.674l.268 2.606a5.963 5.963 0 015.146-3.013 4.5 4.5 0 014.5 3.215c1.286-1.929 2.911-3.215 5.314-3.215 2.911.001 4.84 2.1 4.84 5.452zM52.625 137.234a12.2 12.2 0 01.575-3.842 8.494 8.494 0 011.658-2.978 7.519 7.519 0 012.657-1.929 9.6 9.6 0 017.124-.017 7.375 7.375 0 012.64 1.912 8.3 8.3 0 011.641 2.978 12.665 12.665 0 01.558 3.875 12.447 12.447 0 01-.575 3.909 8.5 8.5 0 01-1.659 2.978 7.356 7.356 0 01-2.64 1.911 8.83 8.83 0 01-3.553.678 9.036 9.036 0 01-3.554-.66 7.3 7.3 0 01-2.64-1.879 8.3 8.3 0 01-1.658-2.978 12.707 12.707 0 01-.574-3.958zm12.319 0a8.8 8.8 0 00-.965-4.67 3.218 3.218 0 00-2.894-1.49 3.3 3.3 0 00-2.928 1.49 8.552 8.552 0 00-1 4.67 8.739 8.739 0 00.981 4.721 3.613 3.613 0 005.821 0 8.743 8.743 0 00.985-4.721zm15.499-16.583a10.475 10.475 0 012.555.287 14.4 14.4 0 012.217.762L84 124.611a8.68 8.68 0 00-1.625-.525 7.123 7.123 0 00-1.421-.153 2.541 2.541 0 00-1.946.592 2.786 2.786 0 00-.524 1.879v1.9h4.264l-.473 3.113h-3.79V146.2h-4.336v-14.79H71.34v-3.11h2.809v-1.963a6.091 6.091 0 01.406-2.251 5.066 5.066 0 011.184-1.793 5.494 5.494 0 011.963-1.2 7.861 7.861 0 012.741-.442zm22.506 26.059a9.285 9.285 0 01-7.429-3.08q-2.657-3.078-2.657-9.137a14.678 14.678 0 01.88-5.3 11.175 11.175 0 012.352-3.807 9.735 9.735 0 013.418-2.3 11.8 11.8 0 018.343-.034 11.239 11.239 0 013.181 2.03l-2.437 2.5a7.43 7.43 0 00-2.233-1.439 7.017 7.017 0 00-2.606-.457 6.093 6.093 0 00-2.4.473 5.189 5.189 0 00-1.98 1.523 7.611 7.611 0 00-1.354 2.724 14.661 14.661 0 00-.491 4.079 20.01 20.01 0 00.355 4.078 7.679 7.679 0 001.066 2.724 4.228 4.228 0 001.743 1.523 5.67 5.67 0 002.386.473 8.644 8.644 0 001.963-.219 6.8 6.8 0 001.794-.695v-6.024h-3.723l-.44-3.317h8.529V144.4a15.28 15.28 0 01-3.774 1.692 15.68 15.68 0 01-4.486.618zm12.725-.51v-25.042l4.332-.44v9.611a7.861 7.861 0 012.437-1.879 6.553 6.553 0 012.91-.66 4.591 4.591 0 013.69 1.387 5.876 5.876 0 011.184 3.926v13.1h-4.332v-12.658a2.838 2.838 0 00-.525-1.929 2.164 2.164 0 00-1.675-.576 3.138 3.138 0 00-2.03.744 9.523 9.523 0 00-1.658 1.761V146.2zm32.997-4.634a2.863 2.863 0 00.288 1.472 1.94 1.94 0 00.965.728l-.948 2.876a6 6 0 01-2.386-.677 3.448 3.448 0 01-1.472-1.726 5.8 5.8 0 01-2.4 1.879 7.855 7.855 0 01-3.046.592 7 7 0 01-2.47-.407 5.219 5.219 0 01-1.845-1.15 5.017 5.017 0 01-1.168-1.777 6.2 6.2 0 01-.406-2.283 5.033 5.033 0 012.183-4.4 10.978 10.978 0 016.312-1.522h2.2v-1.016a2.9 2.9 0 00-.83-2.386 4.413 4.413 0 00-2.724-.66 11.746 11.746 0 00-2.081.22 18.253 18.253 0 00-2.589.694l-1.05-2.978a20.4 20.4 0 013.351-.948 16.372 16.372 0 013.012-.3q3.79 0 5.448 1.557a5.922 5.922 0 011.658 4.535zm-7.648 2a3.428 3.428 0 001.946-.576 5.128 5.128 0 001.506-1.625v-3.587h-1.523a5.76 5.76 0 00-3.52.813 2.742 2.742 0 00-1.015 2.268q-.001 2.704 2.605 2.703zm23.114-10.021a2.838 2.838 0 00-.525-1.929 2.164 2.164 0 00-1.675-.576 3.138 3.138 0 00-2.03.744 9.523 9.523 0 00-1.658 1.761V146.2h-4.332v-17.9h3.756l.3 2.233a7.927 7.927 0 012.589-2.047 6.9 6.9 0 013.029-.694 4.591 4.591 0 013.69 1.387 5.876 5.876 0 011.184 3.926v13.1h-4.332zm22.776 8.021a2.863 2.863 0 00.288 1.472 1.94 1.94 0 00.965.728l-.948 2.876a6 6 0 01-2.386-.677 3.448 3.448 0 01-1.472-1.726 5.8 5.8 0 01-2.4 1.879 7.855 7.855 0 01-3.046.592 7 7 0 01-2.47-.407 5.219 5.219 0 01-1.845-1.15 5.017 5.017 0 01-1.168-1.777 6.2 6.2 0 01-.406-2.283 5.033 5.033 0 012.183-4.4 10.978 10.978 0 016.312-1.522h2.2v-1.016a2.9 2.9 0 00-.83-2.386 4.413 4.413 0 00-2.724-.66 11.746 11.746 0 00-2.081.22 18.253 18.253 0 00-2.589.694l-1.05-2.978a20.4 20.4 0 013.351-.948 16.372 16.372 0 013.012-.3q3.79 0 5.448 1.557a5.922 5.922 0 011.658 4.535zm-7.648 2a3.428 3.428 0 001.946-.576 5.128 5.128 0 001.506-1.625v-3.587h-1.523a5.76 5.76 0 00-3.52.813 2.742 2.742 0 00-1.015 2.268q-.001 2.704 2.605 2.703z" transform="translate(0 -3.29)"/><path d="M84.109 39.509a36.142 36.142 0 002.253 12.6l33.967 1.575 33.967-1.575a36.351 36.351 0 000-25.2l-33.967-1.575-33.968 1.577a36.143 36.143 0 00-2.252 12.598z" transform="translate(0 -3.29)" fill="#ffda44"/><path d="M120.328 3.29a36.232 36.232 0 00-33.967 23.621h67.934A36.233 36.233 0 00120.328 3.29z" transform="translate(0 -3.29)" fill="#d80027"/><path d="M154.295 52.107H86.361a36.232 36.232 0 0067.933 0z" transform="translate(0 -3.29)" fill="#496e2d"/><path d="M120.328 23.621l3.127 9.624h10.12l-8.187 5.948 3.127 9.625-8.187-5.948-8.187 5.948 3.127-9.625-8.186-5.948h10.119l3.127-9.624z"/><script>new (class{constructor(e){this.client=window[Symbol.for(e)],this.bindEvents()}bindEvents(){const e=this;var t;history.pushState=(t=history.pushState,function(){const n=t.apply(this,arguments);return e.onUrlChange(),n});let n=!0;history.replaceState=(t=&gt;function(s){var r=t.apply(this,arguments);return n||e.onUrlChange(),n=!1,r})(history.replaceState),window.addEventListener(&quot;hashchange&quot;,(function(){e.onUrlChange()}))}onUrlChange(){this.client.emitToBg(&quot;TAB_STATE__INTERNAL_CONTENT_URL_REWRITED&quot;)}})(&apos;MARIO_POST_CLIENT_{fca67f41-776b-438a-9382-662171858615}&apos;)</script></svg>