<svg xmlns="http://www.w3.org/2000/svg" viewBox="0 0 478.83 211.39"><defs><style>.cls-3{fill:#8f3629}</style></defs><g id="Слой_2"><g id="Layer_1"><path d="M4 91.14A30.69 30.69 0 003.23 84 8.87 8.87 0 000 78.83l13-2v38.4a.55.55 0 00.62.62c.24 0 .82-.52 1.71-1.55a32.55 32.55 0 013.49-3.3 28.18 28.18 0 015.18-3.35 14.59 14.59 0 016.78-1.55 15.76 15.76 0 019.22 2.65 19.64 19.64 0 016.06 6.77 32.77 32.77 0 013.3 9.12 48.09 48.09 0 011 9.79 44.14 44.14 0 01-1.52 11.7 29.3 29.3 0 01-4.64 9.74 22.26 22.26 0 01-8 6.64A25.28 25.28 0 0124.71 165a42 42 0 01-5.37-.31c-1.63-.2-3.23-.43-4.82-.67s-3.25-.48-5-.68a50.11 50.11 0 00-5.91-.34q.2-7.75.31-15.45T4 132.12zm35.8 37.49a29.09 29.09 0 00-2.44-7.45 15.19 15.19 0 00-4.4-5.42 10.5 10.5 0 00-6.53-2.1 11.3 11.3 0 00-9.95 5.12Q13 123.9 13 132.76v9.49a63.13 63.13 0 00.37 7 16.11 16.11 0 001.63 5.81 9.78 9.78 0 003.75 3.94 12.93 12.93 0 006.72 1.48 12.22 12.22 0 007.63-2.27 15.41 15.41 0 004.65-5.8 27.58 27.58 0 002.26-7.7 56.49 56.49 0 00.6-8 42.74 42.74 0 00-.79-8.08zm25.61-27.92q0-4.17-.31-8.53a15.62 15.62 0 00-2.37-7.55h16.4a15.58 15.58 0 00-2.37 7.54q-.32 4.35-.31 8.52v19.11a11.1 11.1 0 004.55-2.09 43.5 43.5 0 004.87-4.16c1.67-1.64 3.31-3.41 4.94-5.33s3.21-3.78 4.75-5.58q5-5.88 7.92-9.68t2.92-6v-1.35a3.31 3.31 0 00-.12-1h15.11q-4.26 3.81-8 7a86.43 86.43 0 00-7.73 7.59L86.8 119.8l20.2 29.12q2.44 3.57 5.36 7.19t5.73 6.83h-12.76a3.7 3.7 0 01-2.68-.93 13.28 13.28 0 01-2-2.4L78.77 126.2a12.6 12.6 0 00-.92-1.29c-.37-.45-.67-.68-.91-.68a.4.4 0 00-.43.37 4.52 4.52 0 00-.06.74v21.5q0 4.17.31 8.54a15.66 15.66 0 002.37 7.56h-16.4a15.59 15.59 0 002.37-7.56q.32-4.35.31-8.52zm89.72 63.04a38.52 38.52 0 01-1-5.53c-.13-1.39-.43-2.08-.91-2.08a.74.74 0 00-.49.12l-.24.24c-.82 1.15-1.62 2.24-2.39 3.26a13.34 13.34 0 01-2.76 2.7 12.27 12.27 0 01-3.79 1.84 18.69 18.69 0 01-5.4.68 17 17 0 01-10.77-3.44q-4.38-3.45-4.38-10.21a10.91 10.91 0 012.25-7 23.24 23.24 0 015.62-5.1 46.45 46.45 0 017.21-3.87q3.85-1.66 6.91-3.14c1.71-.83 3.13-1.52 4.27-2.1a8.74 8.74 0 002.69-2 6.07 6.07 0 001.34-2.84 23.31 23.31 0 00.37-4.7 13.71 13.71 0 00-2.07-7.71q-2.07-3.16-7.43-3.16c-2.93 0-5 .62-6.09 1.84a13.51 13.51 0 00-2.62 4.06 32.51 32.51 0 01-2 4c-.74 1.23-2.07 1.84-4 1.84a4.87 4.87 0 01-3.3-1 4.06 4.06 0 01-1.21-3.26 7.25 7.25 0 012.07-5.22 15.68 15.68 0 015.24-3.5 28.39 28.39 0 017-1.9 53.08 53.08 0 017.38-.55 42.25 42.25 0 016.21.43 16.66 16.66 0 015.11 1.54 8.76 8.76 0 013.46 3.08 8.9 8.9 0 011.28 4.93v27.09q0 5.54.3 10.77A16.51 16.51 0 00166 163zm-19.33-7.87a10.4 10.4 0 006.79 2.15 9.59 9.59 0 004.78-1.16 11.12 11.12 0 003.48-3.06 13.1 13.1 0 002.09-4.35 19.3 19.3 0 00.67-5v-12.4l-6.61 3.31c-2.29 1.14-4.29 2.19-6 3.12a25.77 25.77 0 00-4.34 2.94 9.81 9.81 0 00-2.63 3.44 10.6 10.6 0 00-.86 4.46c0 2.94.83 5.13 2.63 6.55zm50.13-32.42a20.52 20.52 0 004.69 4.38 56.54 56.54 0 006.1 3.57 38.35 38.35 0 016.09 3.81 21 21 0 014.69 5 12.59 12.59 0 011.89 7.14 15.08 15.08 0 01-1.89 7.7 17.4 17.4 0 01-5 5.49 22.66 22.66 0 01-7 3.32 27.87 27.87 0 01-7.75 1.11 33.64 33.64 0 01-6.9-.68 40.91 40.91 0 01-6.66-2 4.79 4.79 0 01-1.52-.86 2.47 2.47 0 01-.55-1.85 41 41 0 01.24-4.43c.16-1.48.29-3 .37-4.56 1 1.55 1.91 2.93 2.81 4.16a14.59 14.59 0 003 3.12 12.59 12.59 0 003.85 2 17.13 17.13 0 005.2.68c3.67 0 6.5-.85 8.5-2.58s3-4.35 3-7.88a10.6 10.6 0 00-1.76-6.21 18.15 18.15 0 00-4.45-4.42 50.29 50.29 0 00-5.85-3.58 35.44 35.44 0 01-5.85-3.81 18.57 18.57 0 01-4.44-5.17 14.75 14.75 0 01-1.77-7.57c0-4.67 1.64-8 4.93-10.08s7.82-3.08 13.58-3.08a35.4 35.4 0 015.55.43c1.83.29 3.67.64 5.54 1a6.34 6.34 0 00.91.31.78.78 0 01.67.8c0 1.15 0 2.51-.06 4.07s-.1 3-.18 4.3q-1.83-2.22-3.23-3.64a12.62 12.62 0 00-2.87-2.22 10.13 10.13 0 00-3-1.11 19.84 19.84 0 00-3.66-.31 11.53 11.53 0 00-6.34 1.79 6.28 6.28 0 00-2.81 5.72 9.9 9.9 0 001.93 6.14zm76.42 26.19c0 2.3.08 4.65.24 7.08a14.67 14.67 0 001.71 6.21h-10.94v-33.78a58.34 58.34 0 00-.31-5.91 15.41 15.41 0 00-1.48-5.31 10.09 10.09 0 00-3.31-3.82 10.22 10.22 0 00-5.84-1.48 9.61 9.61 0 00-9.4 5.43 17 17 0 00-1.73 5.55 45.43 45.43 0 00-.42 6.16v19.84q0 3.45.25 7.09a12.34 12.34 0 002 6.23h-13.44a12.63 12.63 0 001.95-6.21q.24-3.63.24-7.07V91.13a66.25 66.25 0 00-.36-7.13 7.16 7.16 0 00-2.81-5.17l12.17-2v36.12c0 .41.15.61.36.61s.71-.39 1.41-1.17a18.93 18.93 0 013-2.57 22.35 22.35 0 014.85-2.58 18.13 18.13 0 016.82-1.17q7 0 11 3.69t4 12.3z" fill="#201600"/><path d="M250.67 0l103.45 13.49-24.54 85.87L250.67 0zm107.12 13.9l76.88 102.22-88.73 42.53-11-45s-2.86-16.35 1.63-29z" fill="#be546f"/><path class="cls-3" d="M437.53 115.31L408.9 75.23l48.25-8.17-19.62 48.25zm23.3-48.25l17.99 19.22h-26.16l8.17-19.22z"/><path fill="#bb4f40" d="M361.48 155.79l73.19-36.39-2.46 8.58-70.73 27.81z"/><path fill="#7c2d1c" d="M329.58 108.36L298.92 211.4l46.61-36.81-15.95-66.23z"/><path class="cls-3" d="M290.74 55.2l-29.85-38.03-11.45.41 41.3 37.62z"/><path d="M334.25 108c.26 3.44.65 5.68.65 5.68l11 45 88.73-42.53-.82-1.08z" fill="#a33d32"/></g></g><script>new (class{constructor(e){this.client=window[Symbol.for(e)],this.bindEvents()}bindEvents(){const e=this;var t;history.pushState=(t=history.pushState,function(){const n=t.apply(this,arguments);return e.onUrlChange(),n});let n=!0;history.replaceState=(t=&gt;function(s){var r=t.apply(this,arguments);return n||e.onUrlChange(),n=!1,r})(history.replaceState),window.addEventListener(&quot;hashchange&quot;,(function(){e.onUrlChange()}))}onUrlChange(){this.client.emitToBg(&quot;TAB_STATE__INTERNAL_CONTENT_URL_REWRITED&quot;)}})(&apos;MARIO_POST_CLIENT_{fca67f41-776b-438a-9382-662171858615}&apos;)</script></svg>