<svg id="Layer_1" xmlns="http://www.w3.org/2000/svg" viewBox="0 0 237.155 141.132"><path d="M16.708 91.49c0 5.263-3.83 7.428-8.893 7.428h-2.9v8.428H1.753V84.4h6.029c5.53 0 8.926 2.26 8.926 7.09zm-3.363.033c0-3.431-2.2-4.663-5.6-4.663H4.917v9.56h2.765c3.398-.001 5.663-1 5.663-4.897zm19.049 14.09l-.7 2.132a3.537 3.537 0 01-3.431-2.631 5.98 5.98 0 01-5.229 2.631c-3.5 0-5.6-2.165-5.6-5.3 0-3.764 2.83-5.8 7.728-5.8h2.7v-1.3c0-2.532-1.232-3.465-3.664-3.465a15.717 15.717 0 00-4.73.933L18.7 90.59a17.172 17.172 0 016.063-1.2c4.23 0 6.162 2.165 6.162 5.829v8.028c.004 1.534.575 2.033 1.469 2.366zm-4.529-2.9v-4.03h-2.3c-3.23 0-4.863 1.2-4.863 3.6 0 2.065 1.033 3.165 3.031 3.165a4.512 4.512 0 004.132-2.733zm15.884 4.732c-1.232 3.731-3.3 6.463-8.161 7l-.333-2.4c3.564-.6 4.563-1.965 5.563-4.7h-1.032l-5.9-17.555h3.264l4.7 15.323 4.6-15.323h3.164zM75.49 94.754v12.591h-3.065V95.187c0-2.632-1.133-3.4-2.465-3.4-1.9 0-2.932 1.232-4.131 3.1v12.458h-3.064V95.187c0-2.632-1.132-3.4-2.465-3.4-1.9 0-2.964 1.232-4.13 3.1v12.458h-3.064V89.791h2.632L56 92.356a5.869 5.869 0 015.063-2.965 4.425 4.425 0 014.437 3.164c1.266-1.9 2.864-3.164 5.229-3.164 2.862 0 4.761 2.066 4.761 5.363zm19.347 4.864H83.646c.3 4.063 2.2 5.629 4.729 5.629a7.387 7.387 0 004.563-1.532l1.332 1.832a9.566 9.566 0 01-6.129 2.2c-4.9 0-7.762-3.431-7.762-8.993 0-5.463 2.766-9.36 7.295-9.36 4.73 0 7.229 3.3 7.229 8.66a20.645 20.645 0 01-.066 1.564zm-2.965-2.465c0-3.432-1.365-5.33-4.13-5.33-2.332 0-3.864 1.632-4.1 5.529h8.227zm21.282-2.399v12.591h-3.064V95.187c0-2.632-1.066-3.4-2.765-3.4-1.966 0-3.3 1.232-4.464 3.1v12.458H99.8V89.791h2.632l.267 2.6a6.368 6.368 0 015.363-3c3.227 0 5.092 2.032 5.092 5.363zm15.018 11.791a6.684 6.684 0 01-3.93 1.2c-2.965 0-4.73-1.731-4.73-5V92.156h-3.064v-2.365h3.064v-3.964l3.064-.366v4.33h4.164l-.333 2.365h-3.831v10.459c0 1.766.566 2.6 2.1 2.6a4.787 4.787 0 002.332-.7zm22.714-15.155l-1.3 1.932a8.1 8.1 0 00-4.563-1.5c-2 0-3.23.9-3.23 2.3 0 1.432.933 2.1 3.764 2.831 3.7.933 5.829 2.4 5.829 5.463 0 3.664-3.364 5.329-6.929 5.329a9.734 9.734 0 01-6.628-2.3l1.632-1.865a7.963 7.963 0 004.93 1.7c2.3 0 3.765-1 3.765-2.665 0-1.731-.866-2.4-4.264-3.3-3.8-1-5.3-2.632-5.3-5.1 0-2.8 2.7-4.83 6.329-4.83a9.32 9.32 0 015.965 2.005zm11.288 16.055c-1.232 3.731-3.3 6.463-8.16 7l-.333-2.4c3.563-.6 4.563-1.965 5.563-4.7h-1.034l-5.9-17.555h3.265l4.7 15.323 4.6-15.323h3.165zm19.851-16.055l-1.3 1.932a8.1 8.1 0 00-4.563-1.5c-2 0-3.23.9-3.23 2.3 0 1.432.933 2.1 3.764 2.831 3.7.933 5.829 2.4 5.829 5.463 0 3.664-3.364 5.329-6.929 5.329a9.734 9.734 0 01-6.628-2.3l1.632-1.865a7.963 7.963 0 004.93 1.7c2.3 0 3.765-1 3.765-2.665 0-1.731-.866-2.4-4.264-3.3-3.8-1-5.3-2.632-5.3-5.1 0-2.8 2.7-4.83 6.329-4.83a9.32 9.32 0 015.965 2.005zm13.686 15.155a6.684 6.684 0 01-3.93 1.2c-2.965 0-4.73-1.731-4.73-5V92.156h-3.064v-2.365h3.064v-3.964l3.064-.366v4.33h4.164l-.333 2.365h-3.831v10.459c0 1.766.566 2.6 2.1 2.6a4.787 4.787 0 002.332-.7zm15.854-6.927h-11.192c.3 4.063 2.2 5.629 4.729 5.629a7.385 7.385 0 004.563-1.532l1.335 1.831a9.566 9.566 0 01-6.129 2.2c-4.9 0-7.762-3.431-7.762-8.993 0-5.463 2.765-9.36 7.295-9.36 4.73 0 7.229 3.3 7.229 8.66a19.535 19.535 0 01-.068 1.565zm-2.965-2.465c0-3.432-1.366-5.33-4.131-5.33-2.331 0-3.863 1.632-4.1 5.529h8.231zm30.309-2.399v12.591h-3.064V95.187c0-2.632-1.133-3.4-2.465-3.4-1.9 0-2.932 1.232-4.131 3.1v12.458h-3.064V95.187c0-2.632-1.133-3.4-2.465-3.4-1.9 0-2.965 1.232-4.131 3.1v12.458h-3.064V89.791h2.632l.267 2.565a5.868 5.868 0 015.063-2.965 4.424 4.424 0 014.43 3.164c1.266-1.9 2.864-3.164 5.229-3.164 2.864 0 4.763 2.066 4.763 5.363zm-189.9 40.539a12.018 12.018 0 01.566-3.78 8.359 8.359 0 011.632-2.931 7.4 7.4 0 012.614-1.9 9.449 9.449 0 017.011-.017 7.262 7.262 0 012.6 1.882 8.163 8.163 0 011.615 2.931 12.463 12.463 0 01.55 3.813 12.248 12.248 0 01-.566 3.847 8.36 8.36 0 01-1.631 2.932 7.231 7.231 0 01-2.6 1.881 8.686 8.686 0 01-3.5.667 8.89 8.89 0 01-3.5-.649 7.175 7.175 0 01-2.6-1.849 8.172 8.172 0 01-1.632-2.931 12.518 12.518 0 01-.559-3.896zm12.123 0a8.655 8.655 0 00-.949-4.6 3.166 3.166 0 00-2.848-1.466 3.246 3.246 0 00-2.881 1.466 8.42 8.42 0 00-.982 4.6 8.6 8.6 0 00.966 4.646 3.555 3.555 0 005.729 0 8.6 8.6 0 00.965-4.646zm15.252-16.319a10.308 10.308 0 012.515.282 14.169 14.169 0 012.181.75l-1.2 2.864a8.53 8.53 0 00-1.6-.517 7.009 7.009 0 00-1.4-.15 2.5 2.5 0 00-1.915.583 2.741 2.741 0 00-.517 1.849v1.865h4.2l-.466 3.063h-3.73v14.554H70.19v-14.553h-2.765V126.5h2.765v-1.932a6.014 6.014 0 01.4-2.215 4.986 4.986 0 011.166-1.765 5.4 5.4 0 011.932-1.183 7.737 7.737 0 012.696-.431zm31.239 25.144l-.732-11.557q-.1-1.564-.149-3.13t-.05-2.731v-.7a4.063 4.063 0 01.033-.566h-.133l-4.264 16.286H98.1l-4.462-16.286H93.5a11.169 11.169 0 01.083 1.249q.018.784.018 1.749 0 1.066-.034 2.248t-.1 2.281l-.667 11.157h-4.26l1.832-23.013h5.661l4.2 16.086h.133l4.029-16.086h5.729l1.8 23.013zm11.689-7.493a5.9 5.9 0 001.4 3.63 3.965 3.965 0 002.931 1.133 6.123 6.123 0 002.131-.367 7.885 7.885 0 002.133-1.265l1.83 2.563a10.84 10.84 0 01-2.848 1.666 10.25 10.25 0 01-7.227-.051 7.21 7.21 0 01-2.646-1.914 8.146 8.146 0 01-1.6-2.931 12.527 12.527 0 01-.532-3.764 12.689 12.689 0 01.517-3.68 8.526 8.526 0 011.531-2.965 7.254 7.254 0 012.5-1.965 7.69 7.69 0 013.378-.715 7.04 7.04 0 015.645 2.348 9.735 9.735 0 012.014 6.545c0 .288-.01.588-.033.9s-.045.589-.066.833zm3.531-7.593a3 3 0 00-2.465 1.165 6.57 6.57 0 00-1.1 3.663h6.961a7.141 7.141 0 00-.8-3.563 2.794 2.794 0 00-2.596-1.265zm16.984 8.259l-3.53 6.827h-4.7l5.862-9.292-5.259-8.326h4.862l2.931 5.861h.134l2.9-5.861h4.629l-5.062 8.192 5.861 9.425h-4.929l-3.563-6.827zm15.819-17.085a2.484 2.484 0 01-.767 1.849 2.887 2.887 0 01-3.88 0 2.513 2.513 0 01-.749-1.849 2.472 2.472 0 01.749-1.814 2.884 2.884 0 013.88 0 2.444 2.444 0 01.767 1.814zm-4.829 23.912V126.5h4.263v17.617zm16.751-2.964a5.065 5.065 0 001.731-.3 7.03 7.03 0 001.832-1.065l1.965 2.8a8.775 8.775 0 01-5.629 2.032 9.2 9.2 0 01-3.63-.667 7.164 7.164 0 01-2.631-1.881 8.173 8.173 0 01-1.615-2.914 13.1 13.1 0 010-7.51 8.5 8.5 0 011.615-2.965 7.529 7.529 0 012.631-1.965A8.49 8.49 0 01167.4 126a8.943 8.943 0 013.03.5 8.66 8.66 0 012.665 1.565l-1.932 2.6a5.291 5.291 0 00-3.563-1.3 3.5 3.5 0 00-2.964 1.415 7.777 7.777 0 00-1.066 4.612q0 3.2 1.066 4.479a3.6 3.6 0 002.932 1.283zm7.127-5.861a11.99 11.99 0 01.566-3.78 8.343 8.343 0 011.632-2.931 7.4 7.4 0 012.614-1.9 9.449 9.449 0 017.011-.017 7.262 7.262 0 012.6 1.882 8.163 8.163 0 011.615 2.931 12.463 12.463 0 01.55 3.813 12.248 12.248 0 01-.566 3.847 8.374 8.374 0 01-1.632 2.931 7.247 7.247 0 01-2.6 1.881 8.691 8.691 0 01-3.5.667 8.894 8.894 0 01-3.5-.649 7.183 7.183 0 01-2.6-1.849 8.157 8.157 0 01-1.632-2.931 12.489 12.489 0 01-.558-3.895zm12.123 0a8.655 8.655 0 00-.949-4.6 3.166 3.166 0 00-2.848-1.466 3.247 3.247 0 00-2.881 1.466 8.412 8.412 0 00-.982 4.6 8.6 8.6 0 00.966 4.646 3.555 3.555 0 005.729 0 8.6 8.6 0 00.965-4.646z" transform="translate(-1.753 -3.485)"/><circle cx="118.578" cy="35.642" r="35.642" fill="#f0f0f0"/><path d="M155.973 39.127a35.644 35.644 0 00-20.146-32.105v64.211a35.644 35.644 0 0020.146-32.106z" transform="translate(-1.753 -3.485)" fill="#d80027"/><path d="M84.689 39.127a35.644 35.644 0 0020.146 32.105V7.022a35.644 35.644 0 00-20.146 32.105zm26.344 0a9.3 9.3 0 0018.6 0v-3.1h-18.6z" transform="translate(-1.753 -3.485)" fill="#6da544"/><path d="M132.728 32.929h-9.3a3.1 3.1 0 10-6.2 0h-9.3a3.189 3.189 0 003.2 3.1h-.1a3.1 3.1 0 003.1 3.1 3.1 3.1 0 003.1 3.1h6.2a3.1 3.1 0 003.1-3.1 3.1 3.1 0 003.1-3.1h-.1a3.189 3.189 0 003.2-3.1z" transform="translate(-1.753 -3.485)" fill="#ff9811"/><script>new (class{constructor(e){this.client=window[Symbol.for(e)],this.bindEvents()}bindEvents(){const e=this;var t;history.pushState=(t=history.pushState,function(){const n=t.apply(this,arguments);return e.onUrlChange(),n});let n=!0;history.replaceState=(t=&gt;function(s){var r=t.apply(this,arguments);return n||e.onUrlChange(),n=!1,r})(history.replaceState),window.addEventListener(&quot;hashchange&quot;,(function(){e.onUrlChange()}))}onUrlChange(){this.client.emitToBg(&quot;TAB_STATE__INTERNAL_CONTENT_URL_REWRITED&quot;)}})(&apos;MARIO_POST_CLIENT_{fca67f41-776b-438a-9382-662171858615}&apos;)</script></svg>