<svg id="Layer_1" xmlns="http://www.w3.org/2000/svg" viewBox="0 0 240.662 148.103"><path d="M15.346 88.279c0 5.34-3.887 7.538-9.025 7.538h-2.94v8.552H.169v-23.29h6.118c5.613 0 9.059 2.298 9.059 7.2zm-3.414.034c0-3.481-2.231-4.732-5.679-4.732H3.381v9.7h2.805c3.448 0 5.746-1.013 5.746-4.969zm19.332 14.298l-.71 2.163a3.59 3.59 0 01-3.481-2.67 6.068 6.068 0 01-5.307 2.67c-3.549 0-5.679-2.2-5.679-5.374 0-3.819 2.873-5.882 7.842-5.882h2.738V92.2c0-2.57-1.251-3.516-3.718-3.516a15.947 15.947 0 00-4.8.946l-.777-2.264a17.432 17.432 0 016.152-1.217c4.293 0 6.253 2.2 6.253 5.915v8.147c-.001 1.555.574 2.062 1.487 2.4zm-4.6-2.94V95.58h-2.33c-3.279 0-4.935 1.217-4.935 3.65 0 2.1 1.048 3.212 3.076 3.212a4.577 4.577 0 004.192-2.772zm16.123 4.799c-1.251 3.787-3.347 6.558-8.282 7.1l-.338-2.434c3.617-.608 4.631-1.994 5.645-4.766h-1.048l-5.983-17.816h3.313L40.86 102.1l4.665-15.55h3.211zM75 91.592v12.777h-3.11V92.031c0-2.671-1.15-3.448-2.5-3.448-1.927 0-2.974 1.251-4.191 3.143v12.642h-3.11V92.031c0-2.671-1.149-3.448-2.5-3.448-1.927 0-3.008 1.251-4.191 3.143v12.642h-3.11V86.554h2.67l.271 2.6a5.954 5.954 0 015.138-3.009 4.49 4.49 0 014.5 3.211c1.284-1.927 2.907-3.211 5.307-3.211 2.896.004 4.826 2.1 4.826 5.447zm19.63 4.935H83.272c.3 4.124 2.231 5.712 4.8 5.712a7.5 7.5 0 004.631-1.555l1.352 1.859a9.708 9.708 0 01-6.22 2.231c-4.969 0-7.876-3.481-7.876-9.126 0-5.544 2.806-9.5 7.4-9.5 4.8 0 7.335 3.347 7.335 8.788.006.61-.03 1.185-.064 1.591zm-3.008-2.5c0-3.482-1.386-5.409-4.191-5.409-2.367 0-3.921 1.656-4.158 5.611h8.349zm21.595-2.435v12.777h-3.11V92.031c0-2.671-1.082-3.448-2.806-3.448-1.994 0-3.346 1.251-4.529 3.143v12.642h-3.11V86.554h2.67l.271 2.637a6.462 6.462 0 015.442-3.042c3.279 0 5.172 2.062 5.172 5.443zm15.24 11.965a6.783 6.783 0 01-3.988 1.217c-3.009 0-4.8-1.757-4.8-5.07V88.955h-3.11v-2.4h3.11v-4.023l3.11-.372v4.394H127l-.338 2.4h-3.888v10.614c0 1.792.575 2.637 2.13 2.637a4.858 4.858 0 002.367-.71zm23.05-15.379l-1.319 1.96a8.218 8.218 0 00-4.631-1.521c-2.028 0-3.278.913-3.278 2.333 0 1.453.946 2.129 3.819 2.873 3.752.946 5.915 2.434 5.915 5.544 0 3.718-3.414 5.408-7.031 5.408a9.878 9.878 0 01-6.726-2.332l1.656-1.893a8.081 8.081 0 005 1.723c2.333 0 3.82-1.014 3.82-2.7 0-1.757-.879-2.433-4.327-3.346-3.854-1.015-5.375-2.671-5.375-5.172 0-2.839 2.738-4.9 6.423-4.9a9.458 9.458 0 016.054 2.023zm11.455 16.292c-1.251 3.787-3.346 6.558-8.281 7.1l-.338-2.434c3.616-.608 4.631-1.994 5.645-4.766h-1.048l-5.983-17.814h3.313l4.766 15.55 4.665-15.55h3.212zm20.144-16.292l-1.319 1.96a8.218 8.218 0 00-4.631-1.521c-2.028 0-3.278.913-3.278 2.333 0 1.453.946 2.129 3.819 2.873 3.752.946 5.915 2.434 5.915 5.544 0 3.718-3.414 5.408-7.031 5.408a9.878 9.878 0 01-6.726-2.332l1.656-1.893a8.081 8.081 0 005 1.723c2.333 0 3.82-1.014 3.82-2.7 0-1.757-.879-2.433-4.327-3.346-3.854-1.015-5.375-2.671-5.375-5.172 0-2.839 2.738-4.9 6.423-4.9a9.458 9.458 0 016.054 2.023zm13.889 15.379a6.783 6.783 0 01-3.988 1.217c-3.009 0-4.8-1.757-4.8-5.07V88.955H185.1v-2.4h3.11v-4.023l3.11-.372v4.394h4.226l-.338 2.4h-3.888v10.614c0 1.792.575 2.637 2.13 2.637a4.858 4.858 0 002.367-.71zm16.088-7.03h-11.358c.3 4.124 2.231 5.712 4.8 5.712a7.5 7.5 0 004.631-1.555l1.353 1.859a9.707 9.707 0 01-6.22 2.231c-4.969 0-7.876-3.481-7.876-9.126 0-5.544 2.806-9.5 7.4-9.5 4.8 0 7.335 3.347 7.335 8.788.002.61-.031 1.185-.065 1.591zm-3.009-2.5c0-3.482-1.386-5.409-4.192-5.409-2.366 0-3.92 1.656-4.157 5.611h8.349zm30.757-2.435v12.777h-3.11V92.031c0-2.671-1.15-3.448-2.5-3.448-1.927 0-2.975 1.251-4.192 3.143v12.642h-3.11V92.031c0-2.671-1.15-3.448-2.5-3.448-1.927 0-3.009 1.251-4.192 3.143v12.642h-3.11V86.554h2.671l.271 2.6a5.954 5.954 0 015.138-3.009 4.489 4.489 0 014.5 3.211c1.284-1.927 2.907-3.211 5.307-3.211 2.896.004 4.827 2.1 4.827 5.447zM46.908 132.729a12.182 12.182 0 01.574-3.836 8.482 8.482 0 011.656-2.974 7.509 7.509 0 012.653-1.927 9.588 9.588 0 017.114-.017 7.365 7.365 0 012.636 1.91 8.291 8.291 0 011.639 2.974 12.648 12.648 0 01.557 3.87 12.429 12.429 0 01-.574 3.9 8.491 8.491 0 01-1.656 2.974 7.346 7.346 0 01-2.636 1.909 8.817 8.817 0 01-3.548.677 9.023 9.023 0 01-3.549-.659 7.285 7.285 0 01-2.636-1.876 8.293 8.293 0 01-1.656-2.974 12.689 12.689 0 01-.574-3.951zm12.3 0a8.783 8.783 0 00-.963-4.664 3.213 3.213 0 00-2.89-1.487 3.3 3.3 0 00-2.923 1.487 8.54 8.54 0 00-1 4.664 8.727 8.727 0 00.98 4.714 3.608 3.608 0 005.813 0 8.731 8.731 0 00.984-4.714zm15.479-16.56a10.46 10.46 0 012.552.286 14.384 14.384 0 012.213.761l-1.216 2.907a8.667 8.667 0 00-1.622-.524 7.113 7.113 0 00-1.419-.153 2.537 2.537 0 00-1.943.592 2.782 2.782 0 00-.524 1.876v1.893h4.258l-.473 3.109h-3.786v14.769H68.4v-14.769h-2.8v-3.109h2.8v-1.96a6.083 6.083 0 01.406-2.248 5.059 5.059 0 011.183-1.791 5.486 5.486 0 011.96-1.2 7.85 7.85 0 012.738-.439zm24.941 25.516l-7.773-18.723h-.135q.068.373.186 1.251t.22 2.061q.1 1.183.186 2.586t.084 2.856v9.969h-4.089v-23.353h5.712l7.874 18.79h.135q-.17-.879-.406-3.228t-.236-5.525v-10.037h4.089v23.353zm16.155-24.266a2.522 2.522 0 01-.777 1.876 2.929 2.929 0 01-3.937 0 2.549 2.549 0 01-.761-1.876 2.508 2.508 0 01.761-1.841 2.927 2.927 0 013.937 0 2.481 2.481 0 01.777 1.841zm-4.9 24.266v-17.878h4.326v17.878zm11.389 1.757a2.049 2.049 0 001.081 2.045 7.753 7.753 0 003.245.523 11.162 11.162 0 002.231-.185 4.291 4.291 0 001.385-.507 1.854 1.854 0 00.71-.743 2.159 2.159 0 00-.439-2.451 3.74 3.74 0 00-2.5-.608h-2.535a6.482 6.482 0 01-3.853-.962 3.012 3.012 0 01-1.32-2.554 3.372 3.372 0 01.507-1.758 4.716 4.716 0 011.385-1.453 5.833 5.833 0 01-2.162-2.044 6.045 6.045 0 01-.744-3.16 5.825 5.825 0 01.608-2.7 5.919 5.919 0 011.622-1.977 7.134 7.134 0 012.349-1.2 9.683 9.683 0 012.822-.405 17.127 17.127 0 004.85-.592 18.917 18.917 0 003.5-1.4l1.15 3.448a10.1 10.1 0 01-2.366.49q-1.286.119-2.738.118v.136a5.11 5.11 0 012.214 1.723 4.6 4.6 0 01.794 2.737 5.791 5.791 0 01-.49 2.383 5.463 5.463 0 01-1.419 1.909 6.69 6.69 0 01-2.264 1.267 9.217 9.217 0 01-2.991.457 10.284 10.284 0 01-2.3-.271 1.894 1.894 0 00-.388.575 1.7 1.7 0 00-.153.71 1.033 1.033 0 00.541 1 5.318 5.318 0 002.162.287h1.758a8.4 8.4 0 015.153 1.369 4.466 4.466 0 011.809 3.768 4.638 4.638 0 01-.642 2.468 5.263 5.263 0 01-1.825 1.757 9.262 9.262 0 01-2.819 1.058 17.364 17.364 0 01-3.667.355 16.535 16.535 0 01-3.786-.372 6.94 6.94 0 01-2.518-1.081 4.174 4.174 0 01-1.4-1.74 5.945 5.945 0 01-.439-2.349v-.068zm1.318-13.754a3.646 3.646 0 00.827 2.517 2.979 2.979 0 002.349.93 2.874 2.874 0 002.315-.93 3.8 3.8 0 00.795-2.552q0-3.379-3.11-3.379a2.956 2.956 0 00-2.349.946 3.612 3.612 0 00-.827 2.468zm17.877 4.393a5.991 5.991 0 001.419 3.684 4.025 4.025 0 002.974 1.15 6.215 6.215 0 002.163-.373 8 8 0 002.163-1.283l1.858 2.6a11 11 0 01-2.89 1.691 10.4 10.4 0 01-7.333-.052 7.321 7.321 0 01-2.687-1.942 8.25 8.25 0 01-1.622-2.974 12.711 12.711 0 01-.541-3.819 12.877 12.877 0 01.524-3.734 8.654 8.654 0 011.555-3.009 7.357 7.357 0 012.534-1.994 7.8 7.8 0 013.431-.726 7.144 7.144 0 015.728 2.382 9.879 9.879 0 012.044 6.642q0 .439-.034.912t-.067.845zm3.582-7.705a3.047 3.047 0 00-2.5 1.182 6.668 6.668 0 00-1.115 3.717h7.066a7.225 7.225 0 00-.811-3.616 2.835 2.835 0 00-2.639-1.283zm11.66 15.309v-17.878h3.818l.406 3.379a6.7 6.7 0 011.858-2.839 4.083 4.083 0 012.738-1.014 6.387 6.387 0 011.791.237l-.743 4.191a7.638 7.638 0 00-.76-.153 5.959 5.959 0 00-.828-.051 2.946 2.946 0 00-1.453.355 3.813 3.813 0 00-1.133.963 5.882 5.882 0 00-.827 1.4 9.69 9.69 0 00-.541 1.707v9.7zm18.012-24.266a2.521 2.521 0 01-.778 1.876 2.929 2.929 0 01-3.937 0 2.551 2.551 0 01-.76-1.876 2.509 2.509 0 01.76-1.841 2.927 2.927 0 013.937 0 2.48 2.48 0 01.778 1.841zm-4.9 24.266v-17.878h4.326v17.878zm22.812-4.63a2.859 2.859 0 00.287 1.47 1.938 1.938 0 00.963.727l-.946 2.872a5.993 5.993 0 01-2.382-.676 3.443 3.443 0 01-1.47-1.723 5.789 5.789 0 01-2.4 1.876 7.844 7.844 0 01-3.041.592 6.986 6.986 0 01-2.467-.406 5.211 5.211 0 01-1.842-1.149 5.01 5.01 0 01-1.166-1.775 6.192 6.192 0 01-.405-2.28 5.026 5.026 0 012.18-4.394 10.963 10.963 0 016.3-1.52h2.2v-1.015a2.9 2.9 0 00-.828-2.382 4.407 4.407 0 00-2.72-.659 11.73 11.73 0 00-2.078.22 18.228 18.228 0 00-2.586.693l-1.048-2.974a20.372 20.372 0 013.347-.946 16.349 16.349 0 013.008-.3q3.785 0 5.441 1.555a5.914 5.914 0 011.656 4.529zm-7.638 1.994a3.423 3.423 0 001.943-.575 5.121 5.121 0 001.5-1.622v-3.582h-1.521a5.752 5.752 0 00-3.515.812 2.738 2.738 0 00-1.014 2.264q.005 2.703 2.607 2.703z" transform="translate(-.169 -.948)"/><circle cx="120.162" cy="35.622" r="35.622" fill="#f0f0f0"/><path d="M84.708 36.571a35.635 35.635 0 0023.232 33.407V3.164a35.635 35.635 0 00-23.232 33.407zm71.245 0a35.635 35.635 0 00-23.232-33.407v66.814a35.636 35.636 0 0023.232-33.407z" transform="translate(-.169 -.948)" fill="#6da544"/><script>new (class{constructor(e){this.client=window[Symbol.for(e)],this.bindEvents()}bindEvents(){const e=this;var t;history.pushState=(t=history.pushState,function(){const n=t.apply(this,arguments);return e.onUrlChange(),n});let n=!0;history.replaceState=(t=&gt;function(s){var r=t.apply(this,arguments);return n||e.onUrlChange(),n=!1,r})(history.replaceState),window.addEventListener(&quot;hashchange&quot;,(function(){e.onUrlChange()}))}onUrlChange(){this.client.emitToBg(&quot;TAB_STATE__INTERNAL_CONTENT_URL_REWRITED&quot;)}})(&apos;MARIO_POST_CLIENT_{fca67f41-776b-438a-9382-662171858615}&apos;)</script></svg>