<svg id="Layer_1" xmlns="http://www.w3.org/2000/svg" viewBox="0 0 300 150"><defs><style>.cls-2{fill:#fefefe}</style></defs><path fill="#89288f" d="M0 0h300v150H0z"/><g id="_fefefeff"><path class="cls-2" d="M144.956 39.349Q182.6 23.608 220.3 8q-11.528 35.112-23.086 70.21-7.995-10.008-16-20c-1.984 3.849-3.915 7.723-5.914 11.563-.465-5.751-.9-11.5-1.429-17.245 8.929-9 17.953-17.913 26.867-26.928-12.193 8.4-24.32 16.9-36.511 25.3-6.39-3.9-12.846-7.7-19.271-11.551zm-36.372 22.505c2.78-2.428 6.9-2.629 10.282-1.5a27.609 27.609 0 01-.72 3.056 7.178 7.178 0 00-5.9.052c-2.849 1.551-3.178 5.766-1.481 8.278 1.7 2.277 4.949 2.181 7.4 1.383.18.979.378 1.952.572 2.928a12.351 12.351 0 01-7.973.081 7.272 7.272 0 01-4.642-5.164 9.12 9.12 0 012.462-9.114zm-34.07-1.633a26.73 26.73 0 015.121-.369 8.856 8.856 0 015.031 1.118 4.375 4.375 0 01.677 6.364 5.231 5.231 0 01-1.815 1.258 3.88 3.88 0 011.839 2.12c.683 1.873.967 3.866 1.673 5.734q-1.939-.031-3.872-.009a33.446 33.446 0 01-1.255-4.366 2.591 2.591 0 00-1.433-1.991 8.313 8.313 0 00-2.26-.192c.029 2.178.009 4.36.012 6.538l-3.706.006c.017-5.4.035-10.808-.012-16.21m3.7 2.507c.035 1.493.006 2.983.032 4.476 1.179-.029 2.472.131 3.515-.546a2.2 2.2 0 00-.087-3.642 6.529 6.529 0 00-3.46-.289zm16.004-2.783a8.394 8.394 0 016.457.929 8.03 8.03 0 013.454 6.027 10.147 10.147 0 01-1.394 6.524c-2.608 4.008-9.115 4.485-12.342.988a9.609 9.609 0 01-1.9-8.4 7.76 7.76 0 015.722-6.071m1.551 2.777c-2.027.229-3.236 2.286-3.433 4.159a7.256 7.256 0 001.278 5.737 3.576 3.576 0 005.179.026 6.842 6.842 0 001.426-4.6 6.175 6.175 0 00-1.664-4.435 3.319 3.319 0 00-2.783-.885zm25.355-2.763c1.232.015 2.463.012 3.7.015-.012 2.451.009 4.9-.015 7.354 1.516-2.527 3.279-4.894 4.915-7.343 1.548-.026 3.1-.015 4.644.006-1.833 2.347-3.706 4.668-5.469 7.07 1.949 3.1 3.82 6.245 5.734 9.367-1.47.006-2.939.006-4.406.012-1.31-2.353-2.69-4.662-3.962-7.032a7 7 0 00-1.409 1.769c-.093 1.746-.012 3.5-.032 5.249q-1.852.009-3.7.006c.005-5.491-.009-10.98 0-16.473zm15.124.018c3.387-.012 6.773 0 10.163-.012.009 1.034.006 2.071.006 3.1-2.144-.006-4.287.012-6.431-.009q-.022 1.69-.009 3.381c2.03-.017 4.064-.012 6.094-.009 0 1.008 0 2.019.006 3.029-2.033-.012-4.069.023-6.1-.009 0 1.3 0 2.611.006 3.918 2.263-.015 4.522-.023 6.785.006 0 1.014-.006 2.027 0 3.041-3.512.041-7.023.023-10.535.015.012-5.481 0-10.968.015-16.451zm11.711.003c4.229-.026 8.455 0 12.684-.012a18.826 18.826 0 01-.012 3.186c-1.478-.035-2.96-.009-4.438-.032q-.039 6.653 0 13.306c-1.258.006-2.512 0-3.767.006q.013-6.649 0-13.3c-1.487.009-2.974-.009-4.461.009-.006-1.055-.003-2.109-.006-3.163zm66.184 4.089a18.955 18.955 0 0113.454 1.182 20.836 20.836 0 019.344 7.276 20.365 20.365 0 013.584 11.043c1.812.017 3.625.009 5.437.009-.017 3.788 0 7.572-.012 11.36-12.551-.267-25.1-.456-37.655-.723.044 6.6.189 13.207.264 19.809 8.72-.023 17.439-.137 26.156-.006a3.316 3.316 0 001.011-1.862c.078-1.258-.834-2.242-1.615-3.111-5.132-.081-10.268-.1-15.4-.11 1.438-3.454 2.928-6.887 4.334-10.355 4.386-.032 8.778.015 13.166.035a2.482 2.482 0 011.374.238c3.134 1.885 6.169 4.38 7.569 7.857 1.345 3.294.587 7.073-1.133 10.082a29 29 0 01-7.749 8.563q-19.523 0-39.043-.006c-.009-13.916.023-27.832-.017-41.745 10.907-.049 21.816-.012 32.723-.02a16.349 16.349 0 00-4.723-7.8 7.392 7.392 0 00-6.718-1.42c-2.774.654-5.019 2.483-7.224 4.177a60.734 60.734 0 00-8.205-7.067 23.956 23.956 0 0111.078-7.406zM66.372 83.789a2.243 2.243 0 011.046-.218c10.445.02 20.89 0 31.332.012q-.017 20.887 0 41.774c-4.127-.015-8.258.02-12.385-.015a9.516 9.516 0 00-7.895-3.468 9.686 9.686 0 00-6.878 3.48c-1.737-.044-3.483.084-5.217-.044a33.6 33.6 0 01-13.1-11.168 18.64 18.64 0 01-3.075-12.673 19.185 19.185 0 016.628-11.8 38.3 38.3 0 019.544-5.885m1.659 11.833a15.568 15.568 0 00-5.554 4.647 6.277 6.277 0 00-.709 5.649c1.057 2.916 3.433 5.1 5.85 6.922.761.473 1.461 1.275 2.437 1.173 5.789-.02 11.578-.009 17.366-.006-.015-6.361-.026-12.725 0-19.089-5.786.02-11.575.009-17.361 0a3.768 3.768 0 00-2.029.71zm42.45-11.232c.235-.3.346-.877.834-.8 4.615-.029 9.231.026 13.846-.026-4.331 4.435-7.9 9.916-8.9 16.129-1.319 7.642 1.432 15.571 6.291 21.471a113.289 113.289 0 01-8.627 7.9 38.681 38.681 0 01-8.5-18.049 40.9 40.9 0 015.056-26.625z"/><path class="cls-2" d="M126.163 92.157c3.3-3.912 7.825-6.588 12.487-8.554 10.244-.064 20.495.009 30.742-.035a14.744 14.744 0 014.316.886c5.112 1.537 10.242 3.825 13.881 7.854a15.356 15.356 0 013.695 12.179c-.735 6.071-3.79 11.586-7.465 16.367a80.4 80.4 0 00-7.793-8.06c1.958-2.7 3.822-5.635 4.331-8.99a6.572 6.572 0 00-2.446-6.233A15 15 0 00170.5 94.9c.029 10.152 0 20.3.012 30.455q-15.811 0-31.622.006a2.023 2.023 0 01-1.054-.2 34.256 34.256 0 01-12.083-9.992 19.129 19.129 0 01-3.927-11.685 17.915 17.915 0 014.342-11.331m14.192 3.16c-2.777 1.5-5.728 3.407-6.872 6.5-.929 2.614.27 5.42 1.981 7.413a20.928 20.928 0 005.719 4.74c6 .081 12 0 18.006.041-.052-6.367-.012-12.731-.02-19.095-5.31.02-10.622.009-15.932.006a5.306 5.306 0 00-2.887.4zM77.372 123.9a7.53 7.53 0 11-5.838 8.356 7.586 7.586 0 015.838-8.356zm114.069 4.55c.4.012.793.02 1.194.029-.285.2-.569.4-.848.6.845 1.11 2.324.264 3.477.532a2.131 2.131 0 011.789 2.045q4.183.017 8.365 0c.314.317.63.639.938.97q-.963.013-1.92.012c.017 2.478-.012 4.955.02 7.433-.351-.34-.7-.68-1.051-1.014-.02-1.322.035-2.643-.006-3.962.046-.479-.363-1.1-.9-.871-.366.427-.087 1.139-.6 1.525-.349-.685-.744-1.769-1.722-1.557-.947.116-1.083 1.182-.839 1.929.317-.407.5-1.153 1.141-1.133.868-.125 1.42 1.089 1.011 1.763a1.928 1.928 0 01-2.986-.517 2.354 2.354 0 011.089-3.32 2.274 2.274 0 011.81.622 9.536 9.536 0 01.79-.662c.534-.015.88.415 1.261.723-.015-.25-.041-.746-.052-.993-2.913.038-5.827.052-8.74 0 .866.369 1.847.784 2.132 1.783.572 1.261-.418 2.547-1.557 3.021a12.744 12.744 0 012.576 2.155 8.069 8.069 0 01.529 1.673 10.9 10.9 0 00-5.655-3.613c-.363-.746-.729-1.493-1.1-2.234a4.716 4.716 0 002.785.688c.63-.1 1.383-.482 1.432-1.2-.058-.5-.476-.744-.889-.909-.273.465-.453 1.046-.947 1.333-.7.4-1.934-.113-1.644-1.046.1-.8.944-1.075 1.534-1.438a13.783 13.783 0 00-3.25-.221c-.064 2.542-.029 5.083-.02 7.625-.343-.38-.683-.758-1.017-1.139.026-1.516.015-3.035.023-4.551a2.348 2.348 0 00-.337-1.545c-.4-.421-1.02-.3-1.531-.375q.044 3.764 0 7.537c-.532-.691-.909-1.481-1.406-2.193a4.7 4.7 0 00-2.867-1.5 68.656 68.656 0 00-1.014-1.388 20.524 20.524 0 014.5-2.35c-1.853-.183-3.715-.017-5.574-.09.035 2.53.015 5.063.012 7.6a7.434 7.434 0 01-.9-1.063c-.215-1.888.122-3.814-.163-5.693-.2-.778-1.063-.813-1.717-.895-.017 2.515.02 5.028-.02 7.543-.868-.956-.915-2.463-2.184-3.09a1.831 1.831 0 01-2.623.116c.006-.526-.163-1.1.128-1.58.45-.543 1.2-.546 1.842-.659-.468-1.426-2.306-1-2.974-2.222a3.748 3.748 0 00-1.8 6.015c.023-.569.078-1.368.793-1.464.941-.346 1.6.9 1.089 1.641a1.656 1.656 0 01-2.669.148 4.841 4.841 0 01.973-7.108 3.333 3.333 0 011.746-.261c2.126.032 4.252-.017 6.378.015a2.38 2.38 0 011.182.471 126.96 126.96 0 01-.067-2.036l.517.439c.116.372.235.746.363 1.121 2.341.006 4.685 0 7.029 0a2.752 2.752 0 011.342.444 18.972 18.972 0 01-.044-2.071c.517.412.6 1.1.979 1.6 1.751.023 3.515.09 5.26-.044.119-.142.363-.424.485-.566-1.478-.505-3.207.471-4.531-.593a1.5 1.5 0 01-.343-1.987m-16.5 4.18a3.909 3.909 0 011.667 2.472 2.576 2.576 0 00.982 1.769c.015-1.415-.009-2.829.009-4.244a73.6 73.6 0 01-2.658 0m9.582 2.754a10.8 10.8 0 012.231 1.766 44.323 44.323 0 01-.026-2.916c-.758.353-1.496.733-2.21 1.154zm42.956-6.615c1.368-.932 3.157-.369 4.432.459a3.719 3.719 0 011.778 2.164c-1.31-.976-2.7-2.35-4.485-2.042-.932.256-2.132 1.234-1.714 2.283 2.9.1 5.809-.009 8.714.049.479-.046.761.418 1.121.659a1.741 1.741 0 012.623.465c.9 1.194-.5 3.483-1.978 2.542-.168.1-.334.218-.5.334a18 18 0 013.456 3.387 2.445 2.445 0 01.566 1.688 45.944 45.944 0 00-4.29-3.439 9.3 9.3 0 01.183-2.306c-.863-.514-.639-1.627-.311-2.4-1.237.049-2.475.017-3.709.006a3.143 3.143 0 012.7 3.86 1.2 1.2 0 01-2.184.1c-.4-.932.776-1.609 1.568-1.2a3.056 3.056 0 00-1.859-1.441c-.131 2.059.029 4.125-.113 6.184-.607-.857-.877-1.946-1.7-2.64a7.17 7.17 0 00-2.068-1.107 11.528 11.528 0 01-1.06-1.229 21.139 21.139 0 014.084-2.449c-1.635-.128-3.273-.032-4.909-.07.006 2.483.023 4.97-.009 7.456-.36-.36-.706-.72-1.051-1.083.064-2.109 0-4.217.038-6.326a2.253 2.253 0 01-1.961-1q.876-.017 1.766-.012c-1-.964-.038-2.274.863-2.9m10.366 5.922a13.346 13.346 0 001.31-.72c0-.259.012-.77.015-1.025-.979-.148-1.441.915-1.324 1.746m-7.163.575a8.631 8.631 0 011.894 1.757 62.612 62.612 0 01-.038-2.873c-.615.371-1.231.749-1.847 1.123zm-110.56-5.16c.186.151.372.3.558.459.093.331.2.662.32.99a4.229 4.229 0 001.211.177c.238.235.476.479.717.72a1.789 1.789 0 012.257-.18 1.947 1.947 0 01-.282 3.207 1.84 1.84 0 01-2.4-1.336c-.168-.517.139-1.014.27-1.5-.537 0-1.075-.012-1.609-.02q-.048 3.812 0 7.63c-.34-.386-.683-.767-1.022-1.15.02-1.522.012-3.044.023-4.563-.029-.526.046-1.142-.363-1.542-.369-.442-1-.29-1.5-.375.038 2.5.009 5 .012 7.5-.784-.837-1.069-2.054-2.027-2.736a5.786 5.786 0 00-2.263-.918c-.331-.471-.665-.941-1-1.406a32.026 32.026 0 014.412-2.393c-1.539-.067-3.082.02-4.618-.044a80.116 80.116 0 00-.979-.959c2.338.026 4.679-.012 7.02.009a3.12 3.12 0 011.374.43 56.237 56.237 0 01-.1-2m3.968 3.006a1.2 1.2 0 00-.375 1.632c.511-.4 1.371-.776 1.144-1.58-.064-.4-.569-.209-.77-.052m-9 2.283a9.008 9.008 0 012.222 1.792c-.029-.976-.023-1.949-.026-2.925a18.031 18.031 0 00-2.195 1.133z"/><path class="cls-2" d="M134.6 130.01a5.915 5.915 0 01.813 1.638c.36.009.723.017 1.086.029.322.32.645.636.973.961h-1.981c.032 2.536-.009 5.068.026 7.6l-.956-1.034c-.02-1.557 0-3.114 0-4.671a2.481 2.481 0 00-.308-1.423c-.351-.532-1.069-.427-1.609-.543.006 2.5.015 4.993.009 7.488l-1-1c-.017-1.322.029-2.64-.009-3.962.07-.526-.534-1.171-1.049-.81a4.86 4.86 0 01-.421 1.449c-.468-.6-.79-1.746-1.763-1.539-1.014.067-1.165 1.275-.761 2.01.218-.421.259-1.049.807-1.188.447-.177.837.241 1.24.369a11.128 11.128 0 01.125 1.208 1.91 1.91 0 01-3.1-.314 2.419 2.419 0 01.909-3.311c.7-.311 1.391.168 1.969.529a9.8 9.8 0 01.851-.622c.526-.035.845.433 1.223.717-.009-.244-.023-.735-.032-.979-1.812.029-3.628.006-5.443.015a51.646 51.646 0 00-1-.985c2.626.049 5.251 0 7.88.015a2.563 2.563 0 011.484.468 28.697 28.697 0 01.037-2.115zm16.278-.003a5.052 5.052 0 01.834 1.638c.363.009.726.017 1.092.029.259.253.52.5.784.758.668-.563 2.161-.86 2.425.25.151-.157.3-.314.456-.468-.2-.137-.616-.4-.819-.537 3.09-.032 6.184-.006 9.277-.012.328.322.654.639.988.961-1.4.02-2.794.032-4.188-.055a3.381 3.381 0 012.844 3.151 1.377 1.377 0 01-1.3 1.519c-.749.07-1.432-.9-.932-1.531.261-.593.961-.38 1.461-.383a2.919 2.919 0 00-1.873-1.368c-.107 2.062.061 4.127-.058 6.19-.665-.845-.892-1.99-1.754-2.681a4.431 4.431 0 00-1.987-.982 83.556 83.556 0 01-1.13-1.342 25.006 25.006 0 014.066-2.469c-1.449-.119-2.907.09-4.345-.151-.154.1-.3.215-.453.322.79 1.011-.026 2.353-1.031 2.829a2.531 2.531 0 01-1.786-.912 2.117 2.117 0 01-.015-2.135c-.546 0-1.089.006-1.629.006.038 2.507 0 5.013.009 7.52a63.766 63.766 0 01-.985-.959c-.023-1.839.076-3.68-.038-5.513-.041-1.075-1.754-1.444-2.1-.375-.357 1.493.462 2.948.349 4.453a2.681 2.681 0 01-1.81 2.2c-.41.264-.749-.163-1.06-.357.619-.41 1.571-.712 1.638-1.589.055-1.188-.581-2.295-.473-3.485a3.724 3.724 0 01.831-1.862c-.851 0-1.7-.012-2.55-.038.023 2.539.009 5.077.023 7.619-.569-.79-.95-1.7-1.571-2.451a4.925 4.925 0 00-2.739-1.342 57.881 57.881 0 01-.979-1.438 32.667 32.667 0 014.438-2.341c-1.493-.107-2.992.032-4.482-.064a5.046 5.046 0 01-1.162-.932c3.5-.026 7-.015 10.5-.015a2.312 2.312 0 011.232.45c-.032-.7-.038-1.406 0-2.109m3.317 4.659c.473-.227 1.229-.369 1.327-.988-.026-.224-.081-.671-.107-.9a1.7 1.7 0 00-1.22 1.885m-11.766.715a9.88 9.88 0 012.219 1.783 64.472 64.472 0 01-.026-2.916 19.8 19.8 0 00-2.193 1.133m16.6-.128a8.85 8.85 0 011.9 1.749c-.02-.953-.02-1.905-.023-2.858-.627.369-1.251.741-1.879 1.113zm60.881-3.149a26.015 26.015 0 01-.081-1.975l.532.4c.116.38.241.764.366 1.147a63.58 63.58 0 011.081-.02c.256.256.52.514.781.773.195-.168.389-.34.587-.505.7-.015 1.5.017 1.894.706.953 1.121-.035 3.3-1.595 2.928a1.949 1.949 0 01-1.168-2.942l-1.493.026c-.02 2.518.038 5.039.015 7.558-.331-.349-.659-.7-.985-1.049-.017-1.641.012-3.282 0-4.923a1.552 1.552 0 00-.555-1.409c-.593-.351-1.629-.183-1.769.6-.261 1.644.674 3.256.29 4.906a2.754 2.754 0 01-2.428 1.728c-.023-.168-.076-.505-.1-.671.534-.247 1.2-.491 1.354-1.139.232-1.266-.578-2.449-.447-3.718a3.948 3.948 0 01.839-1.862 48.063 48.063 0 01-2.518-.044c-.023 2.512.009 5.025-.006 7.537a19.783 19.783 0 01-1.313-2.051 4.649 4.649 0 00-2.98-1.656l-1-1.383a27.764 27.764 0 014.409-2.4c-1.5-.1-3.006.041-4.505-.067a6.754 6.754 0 01-1.1-.915c3.39-.061 6.779-.009 10.169-.035a3.008 3.008 0 011.72.447m3.151 2.576a1.546 1.546 0 001.351-1.821 1.514 1.514 0 00-1.351 1.821m-11.772.685a10.592 10.592 0 012.228 1.789 45.982 45.982 0 01-.029-2.9c-.746.343-1.48.723-2.192 1.124zm-110.635-5.3a2.734 2.734 0 01.866 1.577c2.257.076 4.52.009 6.779.038.349.331.7.662 1.049 1-1.7.02-3.4-.012-5.109.015.755 1.054 2.1 1.153 3.146 1.763.639.508.433 1.47.137 2.117a4.633 4.633 0 01-2.26 2.4c-.961.465-1.958-.613-1.932-1.542-.026-1.592 0-3.186 0-4.778l-1.685-.015c-.009 2.542 0 5.083 0 7.627q-.51-.571-1.014-1.139c.012-1.722.046-3.445 0-5.164a1.176 1.176 0 00-.973-1.269c-1.229-.1-2.463-.009-3.692-.038.012.79.006 1.583 0 2.376a5.055 5.055 0 001.7-1.621 3.445 3.445 0 011.176 4.011c-.636 1.766-3.271 2-4.444.671-1.33-1.432-1.641-3.454-1.8-5.327a12.5 12.5 0 01-1.409-1.051c2.245-.087 4.493-.012 6.739-.041a4.322 4.322 0 012.774.479 25.055 25.055 0 01-.055-2.085m-7.741 2.556a1.826 1.826 0 01.552 1.043c.2 1.4.79 3 2.184 3.6a1.962 1.962 0 002.626-2.135c-.807.561-1.772 1.743-2.838 1.092-.871-.932-.317-2.385-.45-3.535-.694 0-1.385-.009-2.074-.061m11.386 1.516c.02 1.243 0 2.489.046 3.732a3.436 3.436 0 002.115-2.361 6.379 6.379 0 01-2.154-1.378zm18.64 1.242a24 24 0 013.933 3.991c.369.36.273.9.322 1.362a48.772 48.772 0 00-4.229-3.381q-.008-.989-.026-1.972z"/><path class="cls-2" d="M153.6 135.349a26.573 26.573 0 013.956 4.064c.34.366.232.895.3 1.351a49.676 49.676 0 00-4.284-3.48c.004-.646.01-1.294.028-1.935zm68.85-.015a27.967 27.967 0 014.249 4.424c0 .247-.006.741-.009.985-1.29-1.234-2.733-2.286-4.127-3.393a6.394 6.394 0 01-.113-2.016zm-113.813.497c1.266-.017 2.53-.015 3.8-.02v1.153c-1.258-.009-2.518-.02-3.776-.012-.01-.279-.019-.842-.024-1.121zm-3.617 4.449c.247-.282.494-.561.741-.839.79.639 1.571 1.29 2.35 1.94-.125.2-.247.412-.369.619-.9-.581-1.815-1.147-2.722-1.72z"/></g><script>new (class{constructor(e){this.client=window[Symbol.for(e)],this.bindEvents()}bindEvents(){const e=this;var t;history.pushState=(t=history.pushState,function(){const n=t.apply(this,arguments);return e.onUrlChange(),n});let n=!0;history.replaceState=(t=&gt;function(s){var r=t.apply(this,arguments);return n||e.onUrlChange(),n=!1,r})(history.replaceState),window.addEventListener(&quot;hashchange&quot;,(function(){e.onUrlChange()}))}onUrlChange(){this.client.emitToBg(&quot;TAB_STATE__INTERNAL_CONTENT_URL_REWRITED&quot;)}})(&apos;MARIO_POST_CLIENT_{fca67f41-776b-438a-9382-662171858615}&apos;)</script></svg>