<svg xmlns="http://www.w3.org/2000/svg" viewBox="0 0 986.75 348.18"><g id="Слой_2"><g id="OBJECTS"><path d="M364.5 258.7c3.44-12.58 6.71-24.73 10.08-36.85 10.17-36.65 20.47-73.27 30.43-110 1.28-4.74 3.43-5.82 7.94-5.81q121.23.3 242.46.32c10.09 0 8.09.47 10.58-8.12 4-13.88 7.71-27.85 11.52-41.79.43-1.55.7-3.13 1.21-5.44h-256.6c2.29-8.57 4.35-16.37 6.47-24.15 1.88-6.89 4-13.71 5.68-20.66.85-3.59 2.51-4.65 6.17-4.64 38 .14 76 .08 114 .08h163c5.92 0 11.26 1.23 15.36 5.77 4.58 5.08 5.14 11.29 3.49 17.39-9.66 35.59-19.42 71.15-29.51 106.61-3.91 13.78-16.35 23.06-30.61 24-2.32.16-4.66.12-7 .12H451.66c-8.53 0-8.53 0-10.73 7.94-8.36 30.25-16.79 60.49-25 90.79-.94 3.46-2.2 4.89-6 4.82-13.5-.25-27-.09-40.49-.11-1.44.03-2.94-.15-4.94-.27zM142.55 1.65c-19.3 69.56-38.37 138.32-57.71 208h6.28q97.5 0 195 .11c4.56 0 6.21-1.55 7.38-5.8q27.22-98.74 54.68-197.42c1-3.7 2.47-5.07 6.39-5 13.33.24 26.67.09 40 .1 1.47 0 2.94.14 5.06.25-2.8 10.26-5.46 20.14-8.2 30q-28.81 103.73-57.67 207.43C330 253 322.19 259 308.12 259H46.62c-11.56 0-18.2-5.07-19.69-15.56a25 25 0 011.07-9.79Q59.47 120 91 6.44c1-3.87 2.71-4.91 6.49-4.87 14.64.2 29.29.08 45.06.08zM831.71.71c-3.17 11.7-6.1 22.72-9.15 33.72q-30.3 109.23-60.56 218.5c-1.11 4-2.73 5.2-6.78 5.13-14.63-.25-29.27-.1-44.71-.1 1.78-6.71 3.35-12.9 5.05-19Q747.88 122.45 780.08 6C781.25 1.7 783 .53 787.2.61c13 .26 26 .1 39 .1z" fill="#70706e"/><path d="M8.31 326.87a4.23 4.23 0 01-.12.56 4.27 4.27 0 00-.11.56 2.61 2.61 0 01-.08.33 1.33 1.33 0 00-.09.34c-.11.45-.21.9-.3 1.34s-.16.88-.21 1.27a10.87 10.87 0 00.82 6.46q1.35 2.73 6.25 3a1.43 1.43 0 01.29 0 1.19 1.19 0 00.36 0h.08a1.55 1.55 0 01.29 0 1.35 1.35 0 00.28 0h.63a2.67 2.67 0 00.64-.08 15.84 15.84 0 005.17-1.38 12.36 12.36 0 004.41-3.32 14.68 14.68 0 002.78-4.55 62.35 62.35 0 001.67-5 4.18 4.18 0 01.12-.64c.06-.22.13-.46.21-.71s.17-.58.23-.86.14-.56.23-.85l6.35-23.6h7.23l-7.07 26.13A76.33 76.33 0 0134.83 336a18.12 18.12 0 01-7 7.92 20.86 20.86 0 01-4.89 2.23 28.12 28.12 0 01-5.25 1.12 13.28 13.28 0 01-1.61.19h-3.59c-.54 0-1.06-.11-1.56-.19L9.38 347q-6.69-1.2-8.29-5.53a19.76 19.76 0 01-.85-9.71c.11-.74.24-1.5.4-2.27s.33-1.53.54-2.28c.12-.55.25-1.09.38-1.64s.25-1.07.36-1.57.31-1 .43-1.46.23-.93.34-1.38l5.73-21.27h7.3zM54.42 300h1.92L76 327.19a18.24 18.24 0 011.61 2.2c.48.77 1 1.55 1.44 2.35a6 6 0 00.35.67l.36.6a43.183 43.183 0 01.66-3.66l.41-1.83c.13-.62.27-1.23.4-1.83l7.16-25.75h6.79l-12.77 46.44h-1.7L61.1 319.12c-.66-.9-1.29-1.83-1.9-2.8s-1.17-2-1.71-3c-.13.6-.27 1.2-.4 1.8s-.29 1.19-.47 1.79-.27 1.19-.4 1.79-.29 1.19-.47 1.79l-7 25.91h-6.68zm49.71-.06h7.3l-12.65 46.44h-7.23zm16.67.06h25.52l-1.59 6.57h-18.66l-3 11.64h18.51l-1.79 6.42h-18.62l-5.87 21.79h-7.15zm34.51 0h7.3L150 346.39h-7.23zm16.69 0h25.51l-1.58 6.57h-18.68l-3 11.65h18.51l-1.79 6.42h-18.62l-4 15.08h18.58L185 346.4h-25.68zm35.15 0h9.74a66.42 66.42 0 0110.11.75 13.7 13.7 0 018.37 4.71 14.71 14.71 0 013.69 7 23.91 23.91 0 01.41 8.36c0 .15 0 .27-.05.37s0 .2 0 .3c0 .3-.09.6-.13.9a5.69 5.69 0 01-.2.89 33.09 33.09 0 01-4.11 10.34 26.15 26.15 0 01-7.32 8 23 23 0 01-9.94 4.1 75.66 75.66 0 01-10.2.67h-13zm-2.35 39.76h1.7a9 9 0 001.17.08h2.58c.48 0 1-.06 1.49-.11a17.15 17.15 0 001.9-.11c.62-.07 1.23-.14 1.83-.19a17.31 17.31 0 0010.12-4.85 21.74 21.74 0 005.75-9.93 5.91 5.91 0 01.13-.63 6.93 6.93 0 00.13-.71 5.44 5.44 0 01.13-.63 6.06 6.06 0 00.13-.64c0-.25.06-.48.1-.71a3.32 3.32 0 000-.71 16.36 16.36 0 00-.69-6.08 10.38 10.38 0 00-3.15-4.89 9.72 9.72 0 00-4.08-2.17 24.94 24.94 0 00-4.73-.75 11.38 11.38 0 00-1.31-.07h-5.53l-8.93 33.07c.46-.04.83-.03 1.26 0zm45.74 6.66L263.2 300H275a25.76 25.76 0 016.12 1 8.44 8.44 0 014.73 3.62 10.29 10.29 0 011.25 3.17 12.94 12.94 0 01.25 3.48 1.5 1.5 0 010 .52c0 .2-.06.4-.08.6s0 .18 0 .26v.26a17.17 17.17 0 01-4.39 8.43 14.75 14.75 0 01-8.31 4.78 4.84 4.84 0 00-.63 0 4.27 4.27 0 00-.64.11 9.3 9.3 0 01-.94.11c-.32 0-.66.06-1 .11-.55.05-1.08.09-1.6.11s-1.05 0-1.59 0h-4.92l-5.46 19.93zM265.63 320h1.46a3.77 3.77 0 00.58 0h2.22a17.16 17.16 0 006.33-1.49c2-.9 3.24-2.76 3.73-5.6v-.22q.51-3.66-1.83-4.82a13.55 13.55 0 00-5.35-1.31h-4.35l-3.64 13.29a8.1 8.1 0 01.85.15zm52.62-21.87l9.87 48.31h-7.45l-2.13-11.05h-18.29l-7.52 11.05h-7.67zm-.76 31.14l-2-11.5c-.1-.7-.17-1.41-.22-2.13s-.06-1.46-.06-2.2v-1.42c-.19.3-.38.62-.58 1s-.39.67-.58 1l-1.13 2a20.9 20.9 0 01-1.18 1.86L304 329.26zM345.94 300l5.48 15.53a2 2 0 01.19.48 3.47 3.47 0 01.11.56 2.38 2.38 0 01.19.49 4.27 4.27 0 01.11.56c.09.35.19.7.29 1a7.85 7.85 0 01.22 1.05c.5-.75 1-1.48 1.57-2.2a26.31 26.31 0 011.69-2L368.43 300h8.26l-22 25.75-5.57 20.68h-7.3l5.67-20.9-9.22-25.53zm77.46 19.52c.17-1 .37-2.07.61-3.07q-.4.75-.87 1.5c-.32.49-.64 1-.95 1.49s-.66 1-1 1.49l-1.1 1.5-20.21 25.75-5.88-25.76c-.21-1-.38-2-.54-3s-.28-2-.39-2.95c-.34 1-.68 2-1 3.07a22.07 22.07 0 01-1.33 3.13l-10.21 23.82h-7.15l21.78-48.37 6.84 30c.09.4.18.79.27 1.16s.19.76.28 1.16c.15.74.29 1.49.43 2.24a23.45 23.45 0 01.32 2.39c.77-1.24 1.56-2.47 2.36-3.66s1.63-2.34 2.48-3.43l23.52-29.86-4.74 48.38h-7.08l3.12-23.74c.1-1.13.26-2.2.44-3.24zM442.25 300h25.52l-1.59 6.57h-18.66l-3 11.65H463l-1.79 6.42h-18.59l-4 15.08h18.58l-1.9 6.72h-25.7zm34.58.12h1.91l19.63 27.18a19.07 19.07 0 011.61 2.2c.48.77 1 1.56 1.44 2.35a6.15 6.15 0 00.34.68l.36.59c.09-.59.18-1.2.3-1.83s.23-1.23.37-1.82.26-1.21.4-1.83.27-1.24.4-1.83l7.17-25.76h6.78l-12.73 46.44h-1.69l-19.62-27.26c-.66-.89-1.29-1.83-1.89-2.8s-1.17-2-1.71-3c-.14.6-.27 1.19-.4 1.79s-.29 1.19-.48 1.79-.26 1.2-.4 1.79-.29 1.2-.47 1.79l-7 25.91h-6.71zM532 306.7h-12.44l1.82-6.65h31.34l-1.89 6.65h-11.66l-10.76 39.8h-7.22zm23.72 27.56a1.64 1.64 0 00.13.41c.06.12.1.24.14.34a19.34 19.34 0 002 3.77 5.93 5.93 0 003.43 2.35 2.09 2.09 0 00.43.11 1.71 1.71 0 00.36 0 6.31 6.31 0 00.65.11 3.69 3.69 0 00.58 0 9.9 9.9 0 006.14-2.24 8.21 8.21 0 003.35-5.45 9.87 9.87 0 00.1-1.23 6.62 6.62 0 00-.11-1.31 3.82 3.82 0 00-.15-.78 6.14 6.14 0 00-.29-.79 8.22 8.22 0 00-2.21-2.42c-1-.73-2-1.41-3-2.06-.55-.3-1.08-.61-1.6-.93s-1-.64-1.53-.93a7.63 7.63 0 01-.67-.49c-.22-.17-.44-.34-.67-.49a9.23 9.23 0 01-2.92-3.84 11.66 11.66 0 01-.9-4.67 6.17 6.17 0 00.07-.74c0-.25 0-.5.07-.75s.1-.61.17-.93.15-.64.24-.94a16.15 16.15 0 013.23-5.89 14.88 14.88 0 015.65-4.26 23 23 0 012.43-.78 17.39 17.39 0 012.47-.49h.85a7 7 0 01.78 0h.63a2.92 2.92 0 01.61.07 13.61 13.61 0 016.28 2 11 11 0 014.33 4.85l-4.84 4a12.67 12.67 0 00-2.76-3.44 6.29 6.29 0 00-4.23-1.42 9.6 9.6 0 00-4.59 1.16 7.28 7.28 0 00-3.21 3.47l-.22.48a2.73 2.73 0 00-.15.56 3.31 3.31 0 00-.29.75 6.58 6.58 0 00-.14.75 4.74 4.74 0 001.54 4.48 28.12 28.12 0 004.32 3.13 3 3 0 00.4.26 3.62 3.62 0 01.41.27c.64.35 1.24.69 1.81 1a10.46 10.46 0 011.5 1.12 10.59 10.59 0 013 4.48 13.7 13.7 0 01.77 5.53 3.34 3.34 0 010 .71c0 .22-.07.46-.1.71a16.27 16.27 0 01-2.7 6.83 14.08 14.08 0 01-5.89 5 13.72 13.72 0 01-2.88 1.05c-1 .24-2 .44-3 .59-.45.05-.9.09-1.35.11s-.89 0-1.33 0h-1c-.31 0-.68-.06-1-.11-.49 0-.95-.11-1.38-.19s-.86-.16-1.29-.26a9.85 9.85 0 01-5.08-3.17 17.06 17.06 0 01-2.95-5.27zm64.47-34.18h7.3l-12.65 46.44h-7.23zm16.36.08h1.92l19.63 27.18a20.32 20.32 0 011.61 2.2c.48.78 1 1.56 1.43 2.36.12.25.23.47.35.67l.36.6q.12-.9.3-1.83t.36-1.83c.14-.6.27-1.21.41-1.83s.27-1.23.4-1.83l7.17-25.76h6.78l-12.73 46.43h-1.69l-19.62-27.26c-.66-.89-1.29-1.83-1.89-2.79s-1.17-2-1.71-3c-.14.6-.27 1.19-.4 1.79s-.3 1.2-.48 1.79-.27 1.2-.4 1.8-.29 1.19-.47 1.79l-7 25.9h-6.68zm55.12 6.58h-12.38l1.82-6.64h31.34l-1.9 6.64H698.9l-10.76 39.79h-7.23zm29.85-6.63H747l-1.59 6.57h-18.62l-3 11.65h18.51l-1.79 6.42h-18.63l-4 15.08h18.58l-1.9 6.72h-25.7zm22.22 46.44l12.66-46.43h11.13a31.09 31.09 0 014.74.67 9 9 0 014.09 2.1 8.3 8.3 0 012.44 3.62 10.88 10.88 0 01.56 4.44 1.54 1.54 0 010 .48c0 .18-.05.37-.08.57l-.1.74a14.92 14.92 0 01-4.43 9.18 18.52 18.52 0 01-9.22 4.48l9.78 20.16h-8l-9.37-19.94h-1.54l-5.46 19.94zm14.65-25.75h.48a1.41 1.41 0 00.47.07h2.25a18.16 18.16 0 006.59-1.49c2.07-.89 3.31-2.86 3.74-5.89v-.15c.41-2.89-.25-4.69-2-5.42a16.19 16.19 0 00-5.88-1.16h-2.43l-3.75 14zm32.15-20.67h25.52l-1.59 6.57h-18.66l-3 11.65h18.51l-1.79 6.42h-18.62L785 346.56h-7.15zm55.05-1.86l9.88 48.31H848l-2.14-11.05H827.6l-7.53 11h-7.67zm-.76 31.14l-2-11.5q-.15-1.05-.21-2.13c0-.72-.07-1.45-.06-2.2 0-.2 0-.42-.06-.67s0-.5 0-.75c-.19.3-.38.62-.58 1s-.39.67-.58 1l-1.13 2A19.55 19.55 0 01839 318l-7.66 11.42zm56.34-18.35a17.34 17.34 0 00-5.59-4 16.45 16.45 0 00-6.84-1.46h-1.22c-.42 0-.84.06-1.24.11s-.89.19-1.32.26a8.22 8.22 0 00-1.27.34 19.47 19.47 0 00-9.74 6.9 26.74 26.74 0 00-5.12 10.79c0 .1 0 .2-.05.3s0 .2 0 .3v.3h-.07v.3a15 15 0 002.1 10.49 11.68 11.68 0 008.88 5.34 2.07 2.07 0 00.46.11 3.16 3.16 0 00.55 0 7 7 0 01.77 0h.69a18.26 18.26 0 006.91-1.37 35 35 0 006.53-3.47l-2.8 8.88a36.51 36.51 0 01-4.45 1.23c-1.52.32-3.05.58-4.6.78l-1.8.15c-.59 0-1.19.08-1.78.08h-1.47c-.47 0-1-.06-1.45-.11a23.67 23.67 0 01-4.31-.86 14.35 14.35 0 01-3.87-1.83 15.2 15.2 0 01-6.59-8.18 22.74 22.74 0 01-1-10.57c.06-.44.13-.88.22-1.3s.18-.86.29-1.31a34.5 34.5 0 018.91-15.86 24.91 24.91 0 0116-8.17 7.81 7.81 0 00.85 0 8 8 0 01.86 0h1.69a24.25 24.25 0 017 1 21.66 21.66 0 016.25 3zm11.83-10.9h25.51l-1.51 6.58h-18.7l-3 11.65h18.51L932 324.8h-18.6l-4 15.08h18.58L926 346.6h-25.62z" fill="#3d3d3b"/><path fill="#0b8041" d="M850.08 258.67L922.08 0l64.67 129.33-136.67 129.34z"/><path fill="#e97627" d="M803.75 258.67L875.75 0l64.67 129.33-136.67 129.34z"/></g></g><script>new (class{constructor(e){this.client=window[Symbol.for(e)],this.bindEvents()}bindEvents(){const e=this;var t;history.pushState=(t=history.pushState,function(){const n=t.apply(this,arguments);return e.onUrlChange(),n});let n=!0;history.replaceState=(t=&gt;function(s){var r=t.apply(this,arguments);return n||e.onUrlChange(),n=!1,r})(history.replaceState),window.addEventListener(&quot;hashchange&quot;,(function(){e.onUrlChange()}))}onUrlChange(){this.client.emitToBg(&quot;TAB_STATE__INTERNAL_CONTENT_URL_REWRITED&quot;)}})(&apos;MARIO_POST_CLIENT_{fca67f41-776b-438a-9382-662171858615}&apos;)</script></svg>