<svg id="Layer_1" xmlns="http://www.w3.org/2000/svg" viewBox="0 0 97.686 79.126"><defs><style>.cls-3{fill:#5f606e}.cls-8{fill:#e7e7e7}.cls-17{fill:#2c2c3d}</style></defs><path d="M5.905 74.265v1.674c0 2.018-1.008 3.17-2.952 3.17S0 77.956 0 75.939v-6.554c0-2.017 1.008-3.169 2.953-3.169s2.952 1.152 2.952 3.169v1.225H4.033v-1.351c0-.9-.4-1.242-1.026-1.242s-1.026.342-1.026 1.242v6.807c0 .9.4 1.224 1.026 1.224s1.026-.324 1.026-1.224v-1.8zm5.346 4.699a3.867 3.867 0 01-.181-1.549v-1.98c0-1.17-.4-1.6-1.3-1.6h-.68v5.132H7.109v-12.6H10.1c2.053 0 2.935.954 2.935 2.9v.99a2.512 2.512 0 01-1.3 2.557c.99.414 1.314 1.369 1.314 2.684v1.944a3.707 3.707 0 00.216 1.53zM9.09 68.162v3.871h.774c.738 0 1.188-.324 1.188-1.333v-1.243c0-.9-.306-1.3-1.008-1.3zm6.931 6.625l-2.5-8.426h2.07L17.1 72.1l1.513-5.743H20.5l-2.5 8.43v4.178h-1.98zm11.142-5.312v1.639c0 2.017-.972 3.115-2.952 3.115h-.937v4.735h-1.98v-12.6h2.917c1.98-.003 2.952 1.094 2.952 3.111zm-3.889-1.313v4.267h.937c.63 0 .972-.288.972-1.188v-1.892c0-.9-.342-1.187-.972-1.187zm4.319-1.801h6.122v1.8h-2.07v10.8h-1.98v-10.8h-2.072zm6.822 3.024c0-2.017 1.063-3.169 3.007-3.169s3.007 1.152 3.007 3.169v6.554c0 2.018-1.062 3.17-3.007 3.17s-3.007-1.152-3.007-3.17zm1.98 6.681c0 .9.4 1.242 1.026 1.242s1.026-.343 1.026-1.242v-6.807c0-.9-.4-1.242-1.026-1.242s-1.026.342-1.026 1.242zm11.053-1.801v1.674c0 2.018-1.008 3.17-2.952 3.17s-2.953-1.152-2.953-3.17v-6.554c0-2.017 1.008-3.169 2.953-3.169s2.952 1.152 2.952 3.169v1.225h-1.872v-1.351c0-.9-.4-1.242-1.026-1.242s-1.026.342-1.026 1.242v6.807c0 .9.4 1.224 1.026 1.224s1.026-.324 1.026-1.224v-1.8zm3.095-7.904v9.723c0 .9.4 1.225 1.026 1.225s1.026-.324 1.026-1.225v-9.723h1.873v9.6c0 2.017-1.009 3.169-2.953 3.169s-2.953-1.152-2.953-3.169v-9.6zm9.415 12.603a3.867 3.867 0 01-.181-1.549v-1.98c0-1.17-.4-1.6-1.3-1.6H57.8v5.132h-1.98v-12.6h2.989c2.053 0 2.935.954 2.935 2.9v.99a2.512 2.512 0 01-1.3 2.557c.99.414 1.314 1.369 1.314 2.684v1.944a3.707 3.707 0 00.216 1.53zM57.8 68.162v3.871h.774c.738 0 1.188-.324 1.188-1.333v-1.243c0-.9-.306-1.3-1.008-1.3zm9.393 10.802a3.894 3.894 0 01-.18-1.549v-1.98c0-1.17-.4-1.6-1.3-1.6h-.684v5.132h-1.98v-12.6h2.988c2.053 0 2.936.954 2.936 2.9v.99a2.511 2.511 0 01-1.3 2.557c.99.414 1.314 1.369 1.314 2.684v1.944a3.723 3.723 0 00.216 1.53zm-2.16-10.8v3.871h.774c.738 0 1.188-.324 1.188-1.333v-1.245c0-.9-.307-1.3-1.009-1.3zm7.236 3.508h2.719v1.8h-2.719v3.69h3.421v1.8h-5.4v-12.6h5.4v1.8h-3.421zm6.408-1.837v9.129h-1.782v-12.6h2.484l2.035 7.536v-7.539h1.764v12.6h-2.034zm11.665 4.43v1.674c0 2.018-1.009 3.17-2.953 3.17s-2.953-1.152-2.953-3.17v-6.554c0-2.017 1.009-3.169 2.953-3.169s2.953 1.152 2.953 3.169v1.225h-1.873v-1.351c0-.9-.4-1.242-1.026-1.242s-1.026.342-1.026 1.242v6.807c0 .9.4 1.224 1.026 1.224s1.026-.324 1.026-1.224v-1.8zm2.858.522l-2.5-8.426h2.071l1.512 5.739 1.512-5.743h1.891l-2.5 8.426v4.178H93.2z" fill="#35373d"/><path d="M69.993 12.119A17.641 17.641 0 1147.1 2.2a17.64 17.64 0 0122.89 9.921z" fill="#535460"/><circle class="cls-3" cx="53.587" cy="18.603" r="12.07" transform="rotate(-21.566 53.588 18.604)"/><path d="M69.993 12.119a17.66 17.66 0 01-19.068 23.925 26.412 26.412 0 004.836-5.567 12.069 12.069 0 002.382-23.049A29.164 29.164 0 0054.589.987a17.634 17.634 0 0115.4 11.131z" fill="#42434d"/><path d="M64.812 14.166a12.075 12.075 0 01-9.052 16.31 25.174 25.174 0 002.383-23.048 12.029 12.029 0 016.669 6.739z" fill="#565763"/><path class="cls-3" d="M47.149 8.393A12.077 12.077 0 0044.5 26.556a22.29 22.29 0 01-3.8 4.1 17.661 17.661 0 014.015-27.303 23.087 23.087 0 012.433 5.04z"/><path d="M47.149 8.393A20.049 20.049 0 0144.5 26.556a12.078 12.078 0 012.649-18.163z" fill="#6f7080"/><path d="M50.707 11.326l5.6 4.378-2.464 3.552-4.227-.907z" fill="#3e3f47"/><path class="cls-8" d="M75.774 34.206a17.641 17.641 0 11-22.89-9.921 17.64 17.64 0 0122.89 9.921z"/><circle cx="59.369" cy="40.69" r="12.07" transform="rotate(-21.566 59.369 40.692)" fill="#f2f2f2"/><path d="M75.774 34.206a17.66 17.66 0 01-19.068 23.925 26.412 26.412 0 004.836-5.567 12.069 12.069 0 002.383-23.049 29.164 29.164 0 00-3.554-6.44 17.634 17.634 0 0115.4 11.131z" fill="#d9d9d9"/><path class="cls-8" d="M70.594 36.254a12.075 12.075 0 01-9.052 16.31 25.174 25.174 0 002.383-23.049 12.029 12.029 0 016.669 6.739z"/><path d="M52.82 30.339a17.641 17.641 0 11-22.89-9.921 17.64 17.64 0 0122.89 9.921z" fill="#ffb446"/><circle cx="36.415" cy="36.824" r="12.07" transform="rotate(-21.566 36.415 36.823)" fill="#fedf84"/><path d="M52.82 30.339a17.66 17.66 0 01-19.068 23.926 26.412 26.412 0 004.836-5.565 12.069 12.069 0 002.383-23.049 29.164 29.164 0 00-3.554-6.44 17.634 17.634 0 0115.4 11.131z" fill="#fba930"/><path d="M47.639 32.387A12.075 12.075 0 0138.588 48.7a25.174 25.174 0 002.383-23.049 12.028 12.028 0 016.669 6.739z" fill="#fed66b"/><path d="M29.976 26.613a12.078 12.078 0 00-2.645 18.163 22.29 22.29 0 01-3.8 4.1 17.661 17.661 0 014.015-27.306 23.079 23.079 0 012.43 5.043z" fill="#ffc673"/><path d="M29.976 26.613a20.049 20.049 0 01-2.645 18.163 12.078 12.078 0 012.645-18.163z" fill="#fee59b"/><path class="cls-17" d="M23.515 24.748c-.962-.809-2.274.769-1.305 1.568s2.25-.774 1.305-1.568z"/><path class="cls-17" d="M65.466 23.188a18.452 18.452 0 00-7.539-1.007l.615-2.942a.935.935 0 10-1.83-.383l-.749 3.579q-.881.163-1.752.414l-2.738-1.922a.935.935 0 00-1.074 1.53l1.649 1.158a18.828 18.828 0 00-1.757.855 18.77 18.77 0 00-7.755-5.183 11.1 11.1 0 1122.174-.493.935.935 0 101.869.041 12.972 12.972 0 00-24.047-7.023 13.093 13.093 0 00-1.889 6.924 18.492 18.492 0 00-3.764-.485 16.709 16.709 0 1133.052 3.812.935.935 0 001.828.389c3.04-14.3-11.149-26.6-25-21.123A18.626 18.626 0 0035.007 18.3a18.672 18.672 0 00-10.2 4.017.935.935 0 101.167 1.46 16.724 16.724 0 11-4.608 5.791.935.935 0 10-1.684-.812 18.575 18.575 0 1034.341 2.168 11.151 11.151 0 11-.319 19.4.935.935 0 00-.947 1.612 13.02 13.02 0 10.579-22.765 18.541 18.541 0 00-1.858-3.216A16.707 16.707 0 1150 54.588a.935.935 0 10-1.04 1.553 18.592 18.592 0 0017.176 1.849c15.812-6.25 15.623-29.064-.67-34.8z"/><path class="cls-17" d="M58.512 48.417l7.516-2.017a.935.935 0 10-.484-1.805l-6.258 1.678.356-5.56 2.843-1.441a.935.935 0 10-.845-1.667l-1.859.942.3-4.754a.935.935 0 10-1.866-.119l-.375 5.854-1.593.808a.935.935 0 00.664 1.737 4.594 4.594 0 00.791-.378l-.369 5.759a.935.935 0 001.175.963zm-8.729-37.235L48.691 18.2a.935.935 0 00.727 1.058l4.227.907a.935.935 0 00.964-.381l2.464-3.552a.935.935 0 00-.192-1.269l-5.6-4.378a.935.935 0 00-1.498.597zm3.645 7.029l-2.755-.591.712-4.576 3.649 2.856zM41.2 48.942a13.031 13.031 0 111.514-23.524.935.935 0 01-.9 1.637 11.114 11.114 0 103.677 3.269.935.935 0 011.521-1.087A13.042 13.042 0 0141.2 48.942z"/><path class="cls-17" d="M38.972 36.264a2.864 2.864 0 001.494-2.847 2.612 2.612 0 00-2.172-2.906h.045v-.82a.82.82 0 10-1.64 0v.686h-.9v-.686a.82.82 0 10-1.64 0v.686h-1.245a.866.866 0 00-.023 1.732v9.381a.866.866 0 00.023 1.732h1.248v.729a.82.82 0 001.64 0v-.729h.9v.729a.82.82 0 001.64 0v-.82h-.083c1.478-.295 2.526-1.344 2.526-3.6V39.2c-.003-1.793-.724-2.514-1.813-2.936zm-4.235-4.235h2.056c1.107 0 1.81.51 1.81 1.687a1.584 1.584 0 01-1.775 1.81h-2.091v-3.5zm4.182 7.363c0 1.511-.738 2.179-1.986 2.179h-2.2V37h2.2c1.248 0 1.986.562 1.986 2.109z"/><script>new (class{constructor(e){this.client=window[Symbol.for(e)],this.bindEvents()}bindEvents(){const e=this;var t;history.pushState=(t=history.pushState,function(){const n=t.apply(this,arguments);return e.onUrlChange(),n});let n=!0;history.replaceState=(t=&gt;function(s){var r=t.apply(this,arguments);return n||e.onUrlChange(),n=!1,r})(history.replaceState),window.addEventListener(&quot;hashchange&quot;,(function(){e.onUrlChange()}))}onUrlChange(){this.client.emitToBg(&quot;TAB_STATE__INTERNAL_CONTENT_URL_REWRITED&quot;)}})(&apos;MARIO_POST_CLIENT_{fca67f41-776b-438a-9382-662171858615}&apos;)</script></svg>