<svg viewBox="181.23 229.773 123.786 38.836" width="123.786" height="38.836">
  <path d="M 220.688 255.855 Q 219.392 255.855 218.28 255.431 Q 217.168 255.007 216.352 254.223 Q 215.536 253.439 215.08 252.383 Q 214.624 251.327 214.624 250.063 Q 214.624 248.799 215.08 247.743 Q 215.536 246.687 216.36 245.903 Q 217.184 245.119 218.288 244.695 Q 219.392 244.271 220.704 244.271 Q 222.16 244.271 223.336 244.775 Q 224.512 245.279 225.312 246.255 L 223.648 247.791 Q 223.072 247.135 222.368 246.807 Q 221.664 246.479 220.832 246.479 Q 220.048 246.479 219.392 246.735 Q 218.736 246.991 218.256 247.471 Q 217.776 247.951 217.512 248.607 Q 217.248 249.263 217.248 250.063 Q 217.248 250.863 217.512 251.519 Q 217.776 252.175 218.256 252.655 Q 218.736 253.135 219.392 253.391 Q 220.048 253.647 220.832 253.647 Q 221.664 253.647 222.368 253.319 Q 223.072 252.991 223.648 252.319 L 225.312 253.855 Q 224.512 254.831 223.336 255.343 Q 222.16 255.855 220.688 255.855 Z" style="fill: rgb(47, 127, 239); white-space: pre;"></path>
  <path d="M 232.091 255.663 L 232.091 253.983 L 231.931 253.615 L 231.931 250.607 Q 231.931 249.807 231.443 249.359 Q 230.955 248.911 229.947 248.911 Q 229.259 248.911 228.595 249.127 Q 227.931 249.343 227.467 249.711 L 226.571 247.967 Q 227.275 247.471 228.267 247.199 Q 229.259 246.927 230.283 246.927 Q 232.251 246.927 233.339 247.855 Q 234.427 248.783 234.427 250.751 L 234.427 255.663 Z M 229.467 255.791 Q 228.459 255.791 227.739 255.447 Q 227.019 255.103 226.635 254.511 Q 226.251 253.919 226.251 253.183 Q 226.251 252.415 226.627 251.839 Q 227.003 251.263 227.819 250.935 Q 228.635 250.607 229.947 250.607 L 232.235 250.607 L 232.235 252.063 L 230.219 252.063 Q 229.339 252.063 229.011 252.351 Q 228.683 252.639 228.683 253.071 Q 228.683 253.551 229.059 253.831 Q 229.435 254.111 230.091 254.111 Q 230.715 254.111 231.211 253.815 Q 231.707 253.519 231.931 252.943 L 232.315 254.095 Q 232.043 254.927 231.323 255.359 Q 230.603 255.791 229.467 255.791 Z" style="fill: rgb(47, 127, 239); white-space: pre;"></path>
  <path d="M 239.568 255.791 Q 238.464 255.791 237.448 255.527 Q 236.432 255.263 235.84 254.863 L 236.672 253.071 Q 237.264 253.439 238.072 253.671 Q 238.88 253.903 239.664 253.903 Q 240.528 253.903 240.888 253.695 Q 241.248 253.487 241.248 253.119 Q 241.248 252.815 240.968 252.663 Q 240.688 252.511 240.224 252.431 Q 239.76 252.351 239.208 252.271 Q 238.656 252.191 238.096 252.055 Q 237.536 251.919 237.072 251.647 Q 236.608 251.375 236.328 250.911 Q 236.048 250.447 236.048 249.711 Q 236.048 248.895 236.52 248.271 Q 236.992 247.647 237.888 247.287 Q 238.784 246.927 240.032 246.927 Q 240.912 246.927 241.824 247.119 Q 242.736 247.311 243.344 247.679 L 242.512 249.455 Q 241.888 249.087 241.256 248.951 Q 240.624 248.815 240.032 248.815 Q 239.2 248.815 238.816 249.039 Q 238.432 249.263 238.432 249.615 Q 238.432 249.935 238.712 250.095 Q 238.992 250.255 239.456 250.351 Q 239.92 250.447 240.472 250.519 Q 241.024 250.591 241.584 250.735 Q 242.144 250.879 242.6 251.143 Q 243.056 251.407 243.344 251.863 Q 243.632 252.319 243.632 253.055 Q 243.632 253.855 243.152 254.471 Q 242.672 255.087 241.768 255.439 Q 240.864 255.791 239.568 255.791 Z" style="fill: rgb(47, 127, 239); white-space: pre;"></path>
  <path d="M 256.182 246.927 Q 257.206 246.927 257.998 247.335 Q 258.79 247.743 259.246 248.583 Q 259.702 249.423 259.702 250.735 L 259.702 255.663 L 257.206 255.663 L 257.206 251.119 Q 257.206 250.079 256.774 249.583 Q 256.342 249.087 255.558 249.087 Q 255.014 249.087 254.582 249.335 Q 254.15 249.583 253.91 250.079 Q 253.67 250.575 253.67 251.343 L 253.67 255.663 L 251.174 255.663 L 251.174 251.119 Q 251.174 250.079 250.75 249.583 Q 250.326 249.087 249.542 249.087 Q 248.998 249.087 248.566 249.335 Q 248.134 249.583 247.894 250.079 Q 247.654 250.575 247.654 251.343 L 247.654 255.663 L 245.158 255.663 L 245.158 247.055 L 247.542 247.055 L 247.542 249.407 L 247.094 248.719 Q 247.542 247.839 248.366 247.383 Q 249.19 246.927 250.246 246.927 Q 251.43 246.927 252.318 247.527 Q 253.206 248.127 253.494 249.359 L 252.614 249.119 Q 253.046 248.111 253.998 247.519 Q 254.95 246.927 256.182 246.927 Z" style="fill: rgb(47, 127, 239); white-space: pre;"></path>
  <path d="M 267.223 255.663 L 267.223 253.983 L 267.063 253.615 L 267.063 250.607 Q 267.063 249.807 266.575 249.359 Q 266.087 248.911 265.079 248.911 Q 264.391 248.911 263.727 249.127 Q 263.063 249.343 262.599 249.711 L 261.703 247.967 Q 262.407 247.471 263.399 247.199 Q 264.391 246.927 265.415 246.927 Q 267.383 246.927 268.471 247.855 Q 269.559 248.783 269.559 250.751 L 269.559 255.663 Z M 264.599 255.791 Q 263.591 255.791 262.871 255.447 Q 262.151 255.103 261.767 254.511 Q 261.383 253.919 261.383 253.183 Q 261.383 252.415 261.759 251.839 Q 262.135 251.263 262.951 250.935 Q 263.767 250.607 265.079 250.607 L 267.367 250.607 L 267.367 252.063 L 265.351 252.063 Q 264.471 252.063 264.143 252.351 Q 263.815 252.639 263.815 253.071 Q 263.815 253.551 264.191 253.831 Q 264.567 254.111 265.223 254.111 Q 265.847 254.111 266.343 253.815 Q 266.839 253.519 267.063 252.943 L 267.447 254.095 Q 267.175 254.927 266.455 255.359 Q 265.735 255.791 264.599 255.791 Z" style="fill: rgb(47, 127, 239); white-space: pre;"></path>
  <path d="M 271.98 255.663 L 271.98 244.463 L 276.828 244.463 Q 278.332 244.463 279.42 244.951 Q 280.508 245.439 281.1 246.351 Q 281.692 247.263 281.692 248.527 Q 281.692 249.775 281.1 250.687 Q 280.508 251.599 279.42 252.087 Q 278.332 252.575 276.828 252.575 L 273.42 252.575 L 274.572 251.407 L 274.572 255.663 Z M 274.572 251.695 L 273.42 250.463 L 276.684 250.463 Q 277.884 250.463 278.476 249.951 Q 279.068 249.439 279.068 248.527 Q 279.068 247.599 278.476 247.087 Q 277.884 246.575 276.684 246.575 L 273.42 246.575 L 274.572 245.343 Z" style="fill: rgb(47, 127, 239); white-space: pre;"></path>
  <path d="M 288.555 255.663 L 288.555 253.983 L 288.395 253.615 L 288.395 250.607 Q 288.395 249.807 287.907 249.359 Q 287.419 248.911 286.411 248.911 Q 285.723 248.911 285.059 249.127 Q 284.395 249.343 283.931 249.711 L 283.035 247.967 Q 283.739 247.471 284.731 247.199 Q 285.723 246.927 286.747 246.927 Q 288.715 246.927 289.803 247.855 Q 290.891 248.783 290.891 250.751 L 290.891 255.663 Z M 285.931 255.791 Q 284.923 255.791 284.203 255.447 Q 283.483 255.103 283.099 254.511 Q 282.715 253.919 282.715 253.183 Q 282.715 252.415 283.091 251.839 Q 283.467 251.263 284.283 250.935 Q 285.099 250.607 286.411 250.607 L 288.699 250.607 L 288.699 252.063 L 286.683 252.063 Q 285.803 252.063 285.475 252.351 Q 285.147 252.639 285.147 253.071 Q 285.147 253.551 285.523 253.831 Q 285.899 254.111 286.555 254.111 Q 287.179 254.111 287.675 253.815 Q 288.171 253.519 288.395 252.943 L 288.779 254.095 Q 288.507 254.927 287.787 255.359 Q 287.067 255.791 285.931 255.791 Z" style="fill: rgb(47, 127, 239); white-space: pre;"></path>
  <path d="M 294.068 258.895 Q 293.396 258.895 292.74 258.687 Q 292.084 258.479 291.668 258.111 L 292.58 256.335 Q 292.868 256.591 293.244 256.735 Q 293.62 256.879 293.988 256.879 Q 294.516 256.879 294.828 256.631 Q 295.14 256.383 295.396 255.807 L 295.844 254.751 L 296.036 254.479 L 299.124 247.055 L 301.524 247.055 L 297.636 256.191 Q 297.22 257.231 296.684 257.823 Q 296.148 258.415 295.5 258.655 Q 294.852 258.895 294.068 258.895 Z M 295.54 255.999 L 291.7 247.055 L 294.276 247.055 L 297.252 254.255 Z" style="fill: rgb(47, 127, 239); white-space: pre;"></path>
  <circle style="paint-order: stroke; fill: rgb(47, 127, 239); stroke: rgb(47, 127, 239);" cx="196.642" cy="250" r="10.642"></circle>
  <path d="M 191.98 253.823 L 191.98 246.303 L 193.82 244.463 L 199.292 244.463 L 201.1 246.271 L 201.1 247.983 L 198.924 247.983 L 198.924 247.071 L 198.172 246.319 L 194.972 246.319 L 194.156 247.135 L 194.156 252.991 L 194.972 253.807 L 198.172 253.807 L 198.924 253.055 L 198.924 252.143 L 201.1 252.143 L 201.1 253.855 L 199.292 255.663 L 193.82 255.663 Z" style="fill: rgb(255, 255, 255); text-transform: capitalize; white-space: pre;"></path>
</svg>