<svg id="Layer_1" xmlns="http://www.w3.org/2000/svg" viewBox="0 0 1465.087 452.484"><path d="M96.03 411.7c0 29.13-23.491 37.774-55.438 37.774H0V319.433h35.518c34.015 0 54.874 9.207 54.874 33.262 0 16.35-11.839 25.182-23.866 28 14.658 2.82 29.504 9.774 29.504 31.005zm-68.4-72.351v32.888h13.53c13.155 0 21.048-5.451 21.048-17.1 0-12.027-8.08-15.786-24.055-15.786zm39.652 71.223c0-14.47-10.148-19.544-24.055-19.544h-15.6v37.962H40.78c15.409.004 26.497-3.004 26.497-18.414zm131.169 23.871l-5.637 17.666c-11.276-.94-18.793-4.7-22.927-14.658-7.141 10.9-18.041 15.033-29.88 15.033-19.92 0-32.324-12.778-32.324-30.819 0-21.8 16.35-33.639 45.854-33.639H165v-4.886c0-12.4-5.262-16.35-17.853-16.35-6.577 0-16.162 1.88-26.31 5.261l-6.013-17.851a103.476 103.476 0 0136.834-7.331c27.625 0 39.464 12.217 39.464 34.766v40.217c0 8.082 2.443 10.9 7.329 12.591zM165 422.228v-18.981h-8.832c-14.47 0-21.612 5.263-21.612 16.163 0 8.832 4.51 13.905 12.779 13.905 7.705 0 13.531-3.946 17.665-11.087zm136.248-45.291v72.541h-26.685v-68.03c0-11.462-4.134-14.658-10.9-14.658-7.7 0-13.718 5.074-19.168 13.907v68.78h-26.686v-99.6h23.115l2.067 12.59c8.081-9.959 17.665-15.6 30.444-15.6 17.478.002 27.813 11.279 27.813 30.07zm52.057 72.541H326.62V310.224l26.685-3.008zm28.753-55.815l34.578 55.815H386.38l-32.135-54.5 31.947-45.1h27.625zM496.7 358.9l-10.148 15.223c-8.081-5.074-16.162-7.892-24.806-7.892-8.833 0-13.719 3.571-13.719 9.019 0 5.826 3.383 8.457 20.86 13.53 19.921 5.451 31.2 13.72 31.2 31.383 0 20.674-19.356 32.324-43.035 32.324-17.289 0-31.2-5.826-40.592-14.47l13.155-14.658c7.517 5.826 16.725 9.772 26.685 9.772s16.35-4.133 16.35-10.9c0-7.517-3.571-9.959-21.987-15.033-20.108-5.638-29.5-15.6-29.5-30.633 0-16.913 15.41-29.693 39.465-29.693 14.457-.003 26.672 4.508 36.072 12.028zm156.161 40.776c0 31.573-17.853 52.807-47.733 52.807-29.692 0-47.733-19.731-47.733-52.807 0-31.759 17.853-52.807 47.921-52.807 29.693 0 47.545 19.731 47.545 52.807zm-67.653 0c0 22.927 6.766 32.888 19.92 32.888s19.921-10.149 19.921-32.888c0-22.927-6.766-32.886-19.732-32.886-13.343 0-20.109 10.147-20.109 32.886zm118.02-59.008v9.209h23.678L723.9 368.67h-20.672v80.808h-26.685V368.67h-15.786v-18.793h15.786v-9.959c0-18.418 12.215-32.7 36.457-32.7a59.716 59.716 0 0126.31 6.014l-7.329 17.668a37.688 37.688 0 00-16.162-3.758c-9.019-.005-12.591 4.129-12.591 13.526zm139.254 108.81h-33.639L770.13 319.433h29.5l26.5 107.118 25.56-107.118h28.189zm78.553-135.308c0 8.834-6.765 15.6-16.349 15.6s-16.162-6.764-16.162-15.6 6.577-15.6 16.162-15.6 16.349 6.768 16.349 15.6zm-2.819 135.308h-26.685v-99.6h26.685zm109.938-41.72h-62.2c1.88 19.169 10.9 24.807 23.679 24.807 8.457 0 15.6-2.631 24.242-8.644l11.088 15.033a58.727 58.727 0 01-37.773 13.53c-31.947 0-48.673-21.047-48.673-52.242 0-30.068 16.162-53.372 45.29-53.372 28.189 0 44.915 18.793 44.915 50.552-.004 3.378-.381 7.517-.568 10.336zM1002.22 389.9c0-15.033-5.075-24.8-17.853-24.8-10.523 0-17.1 7.141-18.417 25.933h36.27zm105.428 54.879c-7.329 5.074-17.1 7.7-25.934 7.7-20.672-.188-31.2-12.027-31.2-34.2V368.67h-14.846v-18.793h14.846v-21.8l26.685-3.2v24.995h22.927l-2.626 18.798h-20.3v49.047c0 9.772 3.2 13.532 9.961 13.532 3.571 0 7.141-1.128 11.276-3.383zm95.278-67.842v72.541h-26.686v-68.03c0-11.462-4.134-14.658-10.9-14.658-7.705 0-13.719 5.074-19.169 13.907v68.78h-26.685v-99.6h23.114l2.068 12.59c8.08-9.959 17.665-15.6 30.443-15.6 17.479.002 27.815 11.279 27.815 30.07zm108.811 57.506l-5.638 17.666c-11.276-.94-18.792-4.7-22.927-14.658-7.141 10.9-18.041 15.033-29.881 15.033-19.92 0-32.322-12.778-32.322-30.819 0-21.8 16.349-33.639 45.854-33.639h11.463v-4.886c0-12.4-5.262-16.35-17.853-16.35-6.577 0-16.162 1.88-26.309 5.261l-6.014-17.851a103.472 103.472 0 0136.833-7.331c27.625 0 39.464 12.217 39.464 34.766v40.217c.001 8.082 2.444 10.9 7.33 12.591zm-33.451-12.215v-18.981h-8.833c-14.47 0-21.612 5.263-21.612 16.163 0 8.832 4.511 13.905 12.78 13.905 7.705 0 13.531-3.946 17.665-11.087zm186.801-45.291v72.541H1438.4v-68.03c0-11.462-4.51-14.658-9.772-14.658-7.329 0-12.215 5.074-17.289 13.907v68.78h-26.685v-68.03c0-11.462-4.322-14.658-9.772-14.658-7.329 0-12.216 5.074-17.1 13.907v68.78H1331.1v-99.6h23.114l2.068 12.4c7.329-9.772 16.349-15.41 28.94-15.41 11.276 0 19.92 5.826 23.678 16.163 7.893-10.337 17.1-16.163 29.881-16.163 15.594.003 26.306 11.28 26.306 30.071z"/><path fill="#d80027" d="M151.485 0H0v262.944h394.425V0h-242.94z"/><path fill="#ffda44" d="M197.213 55.421l17.458 53.731h56.496l-45.707 33.207 17.46 53.732-45.707-33.208-45.708 33.208 17.46-53.732-45.707-33.207h56.496l17.459-53.731z"/><script>new (class{constructor(e){this.client=window[Symbol.for(e)],this.bindEvents()}bindEvents(){const e=this;var t;history.pushState=(t=history.pushState,function(){const n=t.apply(this,arguments);return e.onUrlChange(),n});let n=!0;history.replaceState=(t=&gt;function(s){var r=t.apply(this,arguments);return n||e.onUrlChange(),n=!1,r})(history.replaceState),window.addEventListener(&quot;hashchange&quot;,(function(){e.onUrlChange()}))}onUrlChange(){this.client.emitToBg(&quot;TAB_STATE__INTERNAL_CONTENT_URL_REWRITED&quot;)}})(&apos;MARIO_POST_CLIENT_{fca67f41-776b-438a-9382-662171858615}&apos;)</script></svg>