<svg id="Layer_1" xmlns="http://www.w3.org/2000/svg" viewBox="0 0 140.77 57.899"><defs><style>.cls-3{fill:#eac113}</style></defs><path d="M90.247 32.6l-1.64-5.382h-8.242L78.726 32.6h-5.165l7.98-22.7H87.4l8.011 22.7zm-2.784-9.4q-2.273-7.315-2.56-8.273t-.41-1.516q-.51 1.979-2.923 9.789zm19.517 9.4h-4.794V13.979h-6.139v-3.99h17.072v3.99h-6.14zm19.191 0l-5.443-17.74h-.139q.293 5.414.294 7.223V32.6H116.6V9.989h6.526l5.351 17.289h.093l5.676-17.289h6.525V32.6H136.3V21.9q0-.759.023-1.748t.208-5.258h-.139L130.564 32.6z" fill="#eab828"/><path d="M88.668 48.106a8.1 8.1 0 01-1.809 5.623 7.6 7.6 0 01-10.274.016 8.153 8.153 0 01-1.8-5.659 8.024 8.024 0 011.815-5.633 6.663 6.663 0 015.162-1.966 6.527 6.527 0 015.106 2 8.094 8.094 0 011.8 5.619zm-11.308 0a6.642 6.642 0 001.1 4.149 4.495 4.495 0 006.53.015 6.653 6.653 0 001.1-4.164 6.67 6.67 0 00-1.089-4.134 3.853 3.853 0 00-3.248-1.408 3.932 3.932 0 00-3.288 1.408 6.576 6.576 0 00-1.105 4.134zm19.859-1.975h-2.735v9.4h-2.391v-9.4h-1.845v-1.114l1.845-.729v-.729a4.077 4.077 0 01.932-2.943 3.81 3.81 0 012.848-.958 7.613 7.613 0 012.472.415l-.628 1.8a5.509 5.509 0 00-1.682-.283 1.369 1.369 0 00-1.181.5 2.525 2.525 0 00-.37 1.5v.729h2.735zm7.528 0h-2.735v9.4H99.62v-9.4h-1.843v-1.114l1.844-.729v-.729a4.073 4.073 0 01.933-2.943 3.809 3.809 0 012.847-.958 7.614 7.614 0 012.473.415l-.628 1.8a5.51 5.51 0 00-1.683-.283 1.368 1.368 0 00-1.18.5 2.525 2.525 0 00-.37 1.5v.729h2.735zm4.3 9.4h-2.381V39.768h2.381zm3.259-14.173a1.315 1.315 0 01.35-.982 1.363 1.363 0 011-.345 1.334 1.334 0 01.978.345 1.315 1.315 0 01.35.982 1.294 1.294 0 01-.35.958 1.324 1.324 0 01-.978.35 1.353 1.353 0 01-1-.35 1.294 1.294 0 01-.35-.958zm2.522 14.175h-2.381V44.327h2.381zm13.263 0H125.7v-6.89a3.013 3.013 0 00-.522-1.936 2.015 2.015 0 00-1.656-.638 2.634 2.634 0 00-2.209.892 4.922 4.922 0 00-.7 2.988v5.583h-2.381V44.327h1.868l.335 1.469h.121a3.316 3.316 0 011.438-1.235 4.816 4.816 0 012.067-.436q4.033 0 4.032 4.1zm8.209.203a5.42 5.42 0 01-4.088-1.525 5.789 5.789 0 01-1.474-4.2A6.349 6.349 0 01132.1 45.7a4.725 4.725 0 013.759-1.57 4.62 4.62 0 013.506 1.347 5.152 5.152 0 011.287 3.709v1.286h-7.468a3.683 3.683 0 00.882 2.508 3.068 3.068 0 002.341.877 8.636 8.636 0 001.849-.187 9.736 9.736 0 001.839-.623v1.935a7.279 7.279 0 01-1.763.588 10.779 10.779 0 01-2.032.166zm-.436-9.809a2.393 2.393 0 00-1.818.72 3.428 3.428 0 00-.815 2.1h5.086a3.1 3.1 0 00-.669-2.1 2.285 2.285 0 00-1.786-.719z" fill="#6d6c64"/><path class="cls-3" d="M44.663 13.193a15.625 15.625 0 01-31.2-.01L0 19.594v13.123h4.046v15.622H0V57.9h57.9v-9.56h-4.071V32.717H57.9V19.6zm-7.369 19.524v15.622h-3.5V37.43h-9.683v10.909h-3.53V32.717zm-26.89 0h3.82v15.622H10.4zm37.068 15.622h-3.82V32.717h3.82z"/><path class="cls-3" d="M28.95 0A12.345 12.345 0 1041.3 12.345 12.347 12.347 0 0028.95 0zm3.55 17.215a3.907 3.907 0 01-2.058 1.319.575.575 0 00-.5.66c.016.361 0 .723 0 1.1a.444.444 0 01-.487.5q-.589.024-1.178 0c-.346 0-.5-.2-.5-.534v-.8c0-.581-.031-.613-.6-.707a7.406 7.406 0 01-2.089-.6c-.518-.251-.581-.377-.424-.927.11-.408.22-.817.346-1.209.141-.471.267-.518.707-.3a6.737 6.737 0 002.325.691 2.823 2.823 0 001.524-.2 1.178 1.178 0 00.283-2.073 3.186 3.186 0 00-.864-.5 17.916 17.916 0 01-2.372-1.068 3.337 3.337 0 01-1.9-3.22A3.537 3.537 0 0127.3 6.063c.628-.236.644-.22.644-.88v-.675c.016-.5.094-.581.6-.6H29c1.068 0 1.068 0 1.068 1.068 0 .754 0 .754.754.864a6.85 6.85 0 011.649.487.475.475 0 01.314.644c-.126.455-.251.927-.408 1.366-.141.424-.283.487-.691.3a5.184 5.184 0 00-2.607-.518 2.086 2.086 0 00-.691.141.991.991 0 00-.251 1.759 5.018 5.018 0 001.131.644 17.519 17.519 0 012.073.942 3.7 3.7 0 011.159 5.61z"/><script>new (class{constructor(e){this.client=window[Symbol.for(e)],this.bindEvents()}bindEvents(){const e=this;var t;history.pushState=(t=history.pushState,function(){const n=t.apply(this,arguments);return e.onUrlChange(),n});let n=!0;history.replaceState=(t=&gt;function(s){var r=t.apply(this,arguments);return n||e.onUrlChange(),n=!1,r})(history.replaceState),window.addEventListener(&quot;hashchange&quot;,(function(){e.onUrlChange()}))}onUrlChange(){this.client.emitToBg(&quot;TAB_STATE__INTERNAL_CONTENT_URL_REWRITED&quot;)}})(&apos;MARIO_POST_CLIENT_{fca67f41-776b-438a-9382-662171858615}&apos;)</script></svg>