<svg id="Layer_1" xmlns="http://www.w3.org/2000/svg" viewBox="0 0 237.156 141.132"><defs><style>.cls-1{fill:#ffda44}</style></defs><path d="M14.956 88c0 5.263-3.831 7.428-8.894 7.428h-2.9v8.428H0V80.91h6.029c5.53 0 8.927 2.264 8.927 7.09zm-3.364.033c0-3.431-2.2-4.663-5.6-4.663H3.164v9.56H5.93c3.396.004 5.662-.995 5.662-4.892zm19.05 14.095l-.7 2.132a3.537 3.537 0 01-3.43-2.631 5.98 5.98 0 01-5.23 2.631c-3.5 0-5.6-2.165-5.6-5.3 0-3.764 2.831-5.8 7.729-5.8h2.7v-1.3c0-2.532-1.232-3.465-3.664-3.465a15.717 15.717 0 00-4.73.933l-.766-2.231a17.18 17.18 0 016.063-1.2c4.23 0 6.162 2.165 6.162 5.829v8.028c0 1.546.566 2.041 1.466 2.374zm-4.53-2.9V95.2h-2.3c-3.23 0-4.863 1.2-4.863 3.6 0 2.065 1.033 3.165 3.031 3.165a4.511 4.511 0 004.131-2.735zM42 103.96c-1.232 3.731-3.3 6.463-8.16 7l-.334-2.4c3.564-.6 4.564-1.965 5.563-4.7h-1.036l-5.9-17.555H35.4l4.7 15.323 4.6-15.323h3.164zm31.737-12.691v12.591h-3.064V91.7c0-2.632-1.133-3.4-2.466-3.4-1.9 0-2.931 1.232-4.13 3.1v12.46h-3.064V91.7c0-2.632-1.132-3.4-2.465-3.4-1.9 0-2.964 1.232-4.13 3.1v12.46h-3.064V86.305h2.631l.267 2.565a5.866 5.866 0 015.063-2.965 4.424 4.424 0 014.43 3.164c1.266-1.9 2.865-3.164 5.23-3.164 2.863.001 4.762 2.066 4.762 5.364zm19.347 4.863H81.893c.3 4.063 2.2 5.629 4.73 5.629a7.383 7.383 0 004.563-1.532l1.333 1.832a9.568 9.568 0 01-6.13 2.2c-4.9 0-7.761-3.431-7.761-8.993 0-5.463 2.765-9.36 7.295-9.36 4.729 0 7.229 3.3 7.229 8.66a19.486 19.486 0 01-.068 1.564zm-2.964-2.464c0-3.432-1.366-5.33-4.13-5.33-2.332 0-3.865 1.632-4.1 5.529h8.23zm21.28-2.399v12.591h-3.064V91.7c0-2.632-1.065-3.4-2.764-3.4-1.966 0-3.3 1.232-4.464 3.1v12.46h-3.064V86.305h2.632l.266 2.6a6.368 6.368 0 015.363-3c3.23.001 5.095 2.033 5.095 5.364zm15.02 11.791a6.689 6.689 0 01-3.93 1.2c-2.965 0-4.73-1.731-4.73-5V88.67h-3.06v-2.365h3.064v-3.964l3.064-.366v4.33h4.164l-.334 2.365h-3.83v10.459c0 1.766.566 2.6 2.1 2.6a4.781 4.781 0 002.332-.7zm22.713-15.16l-1.3 1.932a8.1 8.1 0 00-4.564-1.5c-2 0-3.23.9-3.23 2.3 0 1.432.934 2.1 3.764 2.831 3.7.933 5.83 2.4 5.83 5.463 0 3.664-3.365 5.329-6.93 5.329a9.731 9.731 0 01-6.627-2.3l1.631-1.865a7.965 7.965 0 004.93 1.7c2.3 0 3.766-1 3.766-2.665 0-1.731-.867-2.4-4.264-3.3-3.8-1-5.3-2.632-5.3-5.1 0-2.8 2.7-4.83 6.328-4.83a9.32 9.32 0 015.966 2.005zm11.289 16.06c-1.232 3.731-3.3 6.463-8.16 7l-.334-2.4c3.564-.6 4.564-1.965 5.563-4.7h-1.033l-5.895-17.555h3.264l4.7 15.323 4.6-15.323h3.166zm19.849-16.06l-1.3 1.932a8.1 8.1 0 00-4.564-1.5c-2 0-3.23.9-3.23 2.3 0 1.432.934 2.1 3.764 2.831 3.7.933 5.83 2.4 5.83 5.463 0 3.664-3.365 5.329-6.93 5.329a9.731 9.731 0 01-6.627-2.3l1.631-1.865a7.965 7.965 0 004.93 1.7c2.3 0 3.766-1 3.766-2.665 0-1.731-.867-2.4-4.264-3.3-3.8-1-5.3-2.632-5.3-5.1 0-2.8 2.7-4.83 6.328-4.83a9.32 9.32 0 015.966 2.005zm13.688 15.16a6.689 6.689 0 01-3.93 1.2c-2.965 0-4.73-1.731-4.73-5V88.67h-3.064v-2.365h3.065v-3.964l3.064-.366v4.33h4.164l-.334 2.365h-3.83v10.459c0 1.766.566 2.6 2.1 2.6a4.781 4.781 0 002.332-.7zm15.854-6.928h-11.194c.3 4.063 2.2 5.629 4.73 5.629a7.381 7.381 0 004.563-1.532l1.334 1.832a9.566 9.566 0 01-6.129 2.2c-4.9 0-7.762-3.431-7.762-8.993 0-5.463 2.764-9.36 7.295-9.36 4.73 0 7.229 3.3 7.229 8.66 0 .598-.033 1.164-.066 1.564zm-2.965-2.465c0-3.432-1.367-5.33-4.131-5.33-2.332 0-3.863 1.632-4.1 5.529h8.229zm30.308-2.398v12.591h-3.064V91.7c0-2.632-1.133-3.4-2.465-3.4-1.9 0-2.932 1.232-4.131 3.1v12.46h-3.064V91.7c0-2.632-1.133-3.4-2.465-3.4-1.9 0-2.965 1.232-4.131 3.1v12.46h-3.064V86.305h2.628l.268 2.565a5.866 5.866 0 015.063-2.965 4.423 4.423 0 014.43 3.164c1.266-1.9 2.865-3.164 5.23-3.164 2.867.001 4.765 2.066 4.765 5.364zM39.947 131.807a11.99 11.99 0 01.565-3.78 8.359 8.359 0 011.632-2.931 7.4 7.4 0 012.614-1.9 9.449 9.449 0 017.011-.017 7.253 7.253 0 012.6 1.882 8.178 8.178 0 011.615 2.931 12.464 12.464 0 01.549 3.813 12.248 12.248 0 01-.565 3.847 8.374 8.374 0 01-1.632 2.931 7.247 7.247 0 01-2.6 1.881 8.691 8.691 0 01-3.5.667 8.894 8.894 0 01-3.5-.649 7.183 7.183 0 01-2.6-1.849 8.172 8.172 0 01-1.632-2.931 12.49 12.49 0 01-.557-3.895zm12.122 0a8.655 8.655 0 00-.949-4.6 3.166 3.166 0 00-2.848-1.466 3.247 3.247 0 00-2.881 1.466 8.412 8.412 0 00-.982 4.6 8.6 8.6 0 00.966 4.646 3.555 3.555 0 005.729 0 8.6 8.6 0 00.965-4.646zm15.252-16.318a10.308 10.308 0 012.515.282 14.18 14.18 0 012.182.75l-1.2 2.864a8.553 8.553 0 00-1.6-.517 7.009 7.009 0 00-1.4-.15 2.5 2.5 0 00-1.915.583 2.741 2.741 0 00-.516 1.849v1.865h4.2l-.466 3.063h-3.73v14.554h-4.264v-14.553h-2.764v-3.063h2.764v-1.932a5.974 5.974 0 01.4-2.215 4.984 4.984 0 011.165-1.765 5.41 5.41 0 011.932-1.183 7.733 7.733 0 012.697-.432zm29.441 8.891a6.161 6.161 0 01-.4 2.281 6.3 6.3 0 01-1.064 1.8 6.564 6.564 0 01-1.6 1.349 9.178 9.178 0 01-1.965.9l6.361 9.925h-5.063l-5.494-9.225h-2.365v9.225h-4.43V117.62H87.6q4.562 0 6.86 1.665a5.875 5.875 0 012.302 5.095zm-4.6 0a3.207 3.207 0 00-1.1-2.73 5.492 5.492 0 00-3.33-.833h-2.56v7.427h2.7a5.005 5.005 0 003.2-.883 3.613 3.613 0 001.094-2.981zm26.68 16.252h-5.329l-2.73-13.421h-.134l-2.764 13.421h-5.2l-3.93-17.617h4.3l2.364 14.153h.133l3.131-14.153h4.363l2.864 14.085h.134l2.531-14.087h4.1zm19.414-4.562a2.828 2.828 0 00.283 1.448 1.918 1.918 0 00.949.717l-.932 2.83a5.9 5.9 0 01-2.348-.666 3.4 3.4 0 01-1.449-1.7 5.7 5.7 0 01-2.365 1.849 7.725 7.725 0 01-3 .583 6.893 6.893 0 01-2.432-.4 5.123 5.123 0 01-1.814-1.132 4.953 4.953 0 01-1.15-1.749 6.1 6.1 0 01-.4-2.247 4.951 4.951 0 012.148-4.33 10.8 10.8 0 016.211-1.5h2.164v-1a2.855 2.855 0 00-.816-2.348 4.339 4.339 0 00-2.68-.649 11.569 11.569 0 00-2.049.217 17.951 17.951 0 00-2.547.683L125 123.748a20.065 20.065 0 013.3-.933 16.121 16.121 0 012.965-.3q3.729 0 5.361 1.532a5.828 5.828 0 011.631 4.463zm-7.525 1.965a3.372 3.372 0 001.914-.566 5.035 5.035 0 001.482-1.6v-3.53h-1.5a5.67 5.67 0 00-3.465.8 2.7 2.7 0 00-1 2.231q.004 2.665 2.568 2.665zm22.746-9.858a2.787 2.787 0 00-.518-1.9 2.128 2.128 0 00-1.648-.566 3.088 3.088 0 00-2 .732 9.367 9.367 0 00-1.631 1.732v12.455h-4.264v-17.615h3.7l.3 2.2a7.8 7.8 0 012.549-2.016 6.791 6.791 0 012.98-.683 4.519 4.519 0 013.631 1.365 5.788 5.788 0 011.164 3.863v12.889h-4.262zm15.386-5.662a5.692 5.692 0 014.328 1.8v-8.825l4.264.466v24.678h-3.764l-.266-2.1a6.407 6.407 0 01-2.115 1.881 5.874 5.874 0 01-2.914.717 6.275 6.275 0 01-2.965-.667 5.761 5.761 0 01-2.1-1.881 8.613 8.613 0 01-1.232-2.947 17.1 17.1 0 01-.4-3.83 13.6 13.6 0 01.482-3.73 8.772 8.772 0 011.414-2.931 6.823 6.823 0 012.248-1.932 6.333 6.333 0 013.02-.699zm1.1 3.2a3.221 3.221 0 00-2.781 1.449 8.263 8.263 0 00-1.016 4.646q0 3.4.916 4.745a2.943 2.943 0 002.582 1.35 3.277 3.277 0 002-.666 6.128 6.128 0 001.531-1.666v-8.093a4.488 4.488 0 00-1.414-1.3 3.6 3.6 0 00-1.82-.468zm25.808 10.355a2.807 2.807 0 00.283 1.448 1.9 1.9 0 00.949.717l-.934 2.83a5.911 5.911 0 01-2.348-.666 3.387 3.387 0 01-1.447-1.7 5.71 5.71 0 01-2.365 1.849 7.735 7.735 0 01-3 .583 6.874 6.874 0 01-2.43-.4 5.148 5.148 0 01-1.816-1.132 4.922 4.922 0 01-1.148-1.749 6.1 6.1 0 01-.4-2.247 4.955 4.955 0 012.148-4.33 10.8 10.8 0 016.211-1.5h2.166v-1a2.861 2.861 0 00-.816-2.348 4.346 4.346 0 00-2.682-.649 11.549 11.549 0 00-2.042.224 17.973 17.973 0 00-2.549.683l-1.033-2.931a20.085 20.085 0 013.3-.933 16.1 16.1 0 012.963-.3q3.729 0 5.361 1.532a5.828 5.828 0 011.633 4.463zm-7.527 1.965a3.374 3.374 0 001.916-.566 5.057 5.057 0 001.482-1.6v-3.53h-1.5a5.667 5.667 0 00-3.463.8 2.7 2.7 0 00-1 2.231q.001 2.665 2.565 2.665z"/><path class="cls-1" d="M82.936 35.642a35.483 35.483 0 004.334 17.046l31.308 3.1 31.308-3.1a35.483 35.483 0 004.334-17.046l-35.642-3.1z"/><path d="M149.886 18.6a35.642 35.642 0 00-66.95 17.046h71.284a35.483 35.483 0 00-4.334-17.046z" fill="#338af3"/><path d="M118.578 71.284a35.634 35.634 0 0031.308-18.6H87.27a35.634 35.634 0 0031.308 18.6z" fill="#496e2d"/><path class="cls-1" d="M123.227 20.859l4.353 2.048-2.318 4.215 4.727-.904.599 4.775 3.292-3.512 3.292 3.512.599-4.775 4.727.904-2.318-4.215 4.353-2.048-4.353-2.047 2.318-4.216-4.727.904-.599-4.775-3.292 3.512-3.292-3.512-.599 4.775-4.727-.904 2.318 4.216-4.353 2.047z"/><script>new (class{constructor(e){this.client=window[Symbol.for(e)],this.bindEvents()}bindEvents(){const e=this;var t;history.pushState=(t=history.pushState,function(){const n=t.apply(this,arguments);return e.onUrlChange(),n});let n=!0;history.replaceState=(t=&gt;function(s){var r=t.apply(this,arguments);return n||e.onUrlChange(),n=!1,r})(history.replaceState),window.addEventListener(&quot;hashchange&quot;,(function(){e.onUrlChange()}))}onUrlChange(){this.client.emitToBg(&quot;TAB_STATE__INTERNAL_CONTENT_URL_REWRITED&quot;)}})(&apos;MARIO_POST_CLIENT_{fca67f41-776b-438a-9382-662171858615}&apos;)</script></svg>