<svg id="Layer_1" xmlns="http://www.w3.org/2000/svg" viewBox="0 0 241 142.277"><path d="M13.488 94.363c0 4.746-3.455 6.7-8.021 6.7H2.854v7.6H0v-20.7h5.437c4.987.001 8.051 2.044 8.051 6.4zm-3.034.03c0-3.094-1.983-4.205-5.047-4.205H2.854v8.621h2.493c3.064 0 5.107-.901 5.107-4.416zm17.18 12.707L27 109.023a3.191 3.191 0 01-3.094-2.373 5.393 5.393 0 01-4.716 2.373c-3.154 0-5.047-1.953-5.047-4.776 0-3.394 2.553-5.227 6.97-5.227h2.433v-1.172c0-2.284-1.111-3.125-3.3-3.125a14.172 14.172 0 00-4.266.841l-.691-2.012a15.492 15.492 0 015.468-1.082c3.815 0 5.557 1.953 5.557 5.257v7.24c-.002 1.383.509 1.833 1.32 2.133zm-4.086-2.613v-3.635h-2.072c-2.914 0-4.386 1.082-4.386 3.244 0 1.863.931 2.854 2.734 2.854a4.068 4.068 0 003.725-2.463zm14.327 4.265c-1.111 3.365-2.974 5.829-7.36 6.309l-.3-2.163c3.215-.541 4.116-1.772 5.017-4.235H34.3L28.983 92.83h2.944l4.235 13.819 4.146-13.819h2.854zM66.5 97.307v11.355h-2.763V97.7c0-2.374-1.022-3.064-2.223-3.064-1.712 0-2.643 1.111-3.725 2.794v11.235h-2.764V97.7c0-2.374-1.021-3.064-2.223-3.064-1.712 0-2.673 1.111-3.725 2.794v11.235h-2.764V92.83h2.373l.24 2.314a5.291 5.291 0 014.566-2.674 3.99 3.99 0 014 2.854A5.491 5.491 0 0162.2 92.47c2.588 0 4.3 1.863 4.3 4.837zm17.449 4.386H73.856c.27 3.665 1.983 5.076 4.266 5.076a6.662 6.662 0 004.116-1.382l1.2 1.652a8.628 8.628 0 01-5.528 1.983c-4.416 0-7-3.094-7-8.111 0-4.927 2.494-8.442 6.579-8.442 4.266 0 6.519 2.974 6.519 7.81.001.542-.028 1.053-.059 1.414zm-2.673-2.223c0-3.095-1.232-4.807-3.725-4.807-2.1 0-3.485 1.472-3.7 4.987h7.42zm19.192-2.163v11.355H97.7V97.7c0-2.374-.961-3.064-2.493-3.064-1.772 0-2.974 1.111-4.025 2.794v11.235h-2.76V92.83h2.373l.24 2.344a5.743 5.743 0 014.836-2.7c2.915-.004 4.597 1.826 4.597 4.833zm13.545 10.634a6.033 6.033 0 01-3.545 1.082c-2.673 0-4.266-1.562-4.266-4.506v-9.553h-2.764V92.83h2.762v-3.574l2.764-.33v3.904h3.755l-.3 2.133h-3.455v9.437c0 1.592.511 2.344 1.893 2.344a4.316 4.316 0 002.1-.631zm30.999-10.634v11.355h-2.764V97.7c0-2.374-1.022-3.064-2.223-3.064-1.713 0-2.644 1.111-3.725 2.794v11.235h-2.764V97.7c0-2.374-1.022-3.064-2.223-3.064-1.712 0-2.674 1.111-3.725 2.794v11.235h-2.764V92.83h2.376l.24 2.314A5.292 5.292 0 01132 92.47a3.989 3.989 0 014 2.854 5.491 5.491 0 014.716-2.854c2.584 0 4.296 1.863 4.296 4.837zm17.448 4.386h-10.094c.27 3.665 1.983 5.076 4.265 5.076a6.661 6.661 0 004.116-1.382l1.2 1.652a8.627 8.627 0 01-5.527 1.983c-4.416 0-7-3.094-7-8.111 0-4.927 2.493-8.442 6.579-8.442 4.266 0 6.519 2.974 6.519 7.81.002.542-.028 1.053-.058 1.414zm-2.674-2.223c0-3.095-1.232-4.807-3.725-4.807-2.1 0-3.484 1.472-3.695 4.987h7.42zm15.137 8.471a6.028 6.028 0 01-3.544 1.082c-2.674 0-4.266-1.562-4.266-4.506v-9.553h-2.764V92.83h2.764v-3.574l2.764-.33v3.904h3.755l-.3 2.133h-3.455v9.437c0 1.592.511 2.344 1.893 2.344a4.317 4.317 0 002.1-.631zm14.898-10.634v11.355h-2.764V97.7c0-2.374-1.022-3.064-2.523-3.064-1.712 0-2.944 1.111-4 2.764v11.265h-2.764V86.492l2.764-.3v8.832a5.687 5.687 0 014.687-2.553c2.888-.001 4.6 1.862 4.6 4.836zm18.532 3.424c0 4.9-2.584 8.291-7.06 8.291-4.506 0-7.06-3.244-7.06-8.261 0-4.9 2.584-8.291 7.09-8.291s7.03 3.245 7.03 8.261zm-11.146.03c0 4.116 1.442 6.038 4.086 6.038s4.086-1.923 4.086-6.068c0-4.116-1.442-6.038-4.056-6.038-2.643 0-4.115 1.923-4.115 6.068zm27.966-14.299v22.2h-2.433l-.27-2.193a5.292 5.292 0 01-4.566 2.553c-3.845 0-5.978-3.275-5.978-8.2 0-4.836 2.343-8.351 6.218-8.351a5.686 5.686 0 014.266 1.953v-8.292zm-2.764 18.025v-7.75a4.542 4.542 0 00-3.665-2.073c-2.374 0-3.845 1.983-3.845 6.1 0 4.176 1.321 6.068 3.6 6.068 1.777-.002 2.858-.873 3.91-2.345zm18.141-10.214l-1.172 1.742a7.3 7.3 0 00-4.116-1.352c-1.8 0-2.913.811-2.913 2.073 0 1.291.841 1.892 3.394 2.553 3.334.841 5.257 2.163 5.257 4.927 0 3.3-3.034 4.806-6.249 4.806a8.779 8.779 0 01-5.977-2.072l1.472-1.682a7.182 7.182 0 004.446 1.532c2.073 0 3.4-.9 3.4-2.4 0-1.562-.781-2.162-3.845-2.973-3.425-.9-4.777-2.374-4.777-4.6 0-2.523 2.433-4.356 5.708-4.356a8.4 8.4 0 015.372 1.802zM46.193 133.867a10.826 10.826 0 01.51-3.409 7.538 7.538 0 011.472-2.643 6.673 6.673 0 012.358-1.712 8.521 8.521 0 016.323-.015 6.545 6.545 0 012.343 1.7 7.369 7.369 0 011.457 2.643 11.24 11.24 0 01.5 3.439 11.046 11.046 0 01-.51 3.469 7.546 7.546 0 01-1.472 2.643 6.529 6.529 0 01-2.343 1.7 7.836 7.836 0 01-3.153.6 8.019 8.019 0 01-3.154-.586 6.474 6.474 0 01-2.343-1.667 7.37 7.37 0 01-1.472-2.643 11.277 11.277 0 01-.516-3.519zm10.933 0a7.806 7.806 0 00-.856-4.145 2.855 2.855 0 00-2.57-1.322 2.928 2.928 0 00-2.6 1.322 7.59 7.59 0 00-.886 4.145 7.756 7.756 0 00.871 4.19 3.206 3.206 0 005.166 0 7.76 7.76 0 00.875-4.19zm13.755-14.717a9.3 9.3 0 012.268.255 12.784 12.784 0 011.967.676l-1.081 2.583a7.7 7.7 0 00-1.442-.466 6.321 6.321 0 00-1.261-.136 2.255 2.255 0 00-1.727.526 2.472 2.472 0 00-.465 1.667v1.682h3.784L72.5 128.7h-3.361v13.125h-3.844V128.7H62.8v-2.763h2.493V124.2a5.406 5.406 0 01.361-2 4.5 4.5 0 011.051-1.591 4.876 4.876 0 011.742-1.067 6.976 6.976 0 012.434-.392zM89.5 138.071l4.535-17h4.054l-6.337 20.754H87.01l-6.368-20.754h4.265l4.475 17zm15.41-17.81a2.241 2.241 0 01-.69 1.667 2.6 2.6 0 01-3.5 0 2.265 2.265 0 01-.676-1.667 2.228 2.228 0 01.676-1.636 2.6 2.6 0 013.5 0 2.205 2.205 0 01.69 1.636zm-4.355 21.565v-15.888h3.845v15.888zm11.413-6.758a5.322 5.322 0 001.262 3.274 3.575 3.575 0 002.643 1.022 5.523 5.523 0 001.922-.331 7.093 7.093 0 001.922-1.141l1.651 2.312a9.778 9.778 0 01-2.567 1.5 9.245 9.245 0 01-6.518-.046 6.51 6.51 0 01-2.388-1.726 7.338 7.338 0 01-1.442-2.643 11.3 11.3 0 01-.48-3.394 11.459 11.459 0 01.465-3.319 7.7 7.7 0 011.381-2.674 6.538 6.538 0 012.253-1.772 6.932 6.932 0 013.049-.646 6.35 6.35 0 015.091 2.117 8.78 8.78 0 011.816 5.9c0 .26-.009.53-.03.81s-.041.531-.06.751zm3.184-6.848a2.706 2.706 0 00-2.223 1.051 5.922 5.922 0 00-.991 3.3h6.277a6.426 6.426 0 00-.721-3.214 2.52 2.52 0 00-2.342-1.136zm19.523 12.855a5.721 5.721 0 01-1.877.9 7.694 7.694 0 01-2.087.3 5.909 5.909 0 01-2.238-.376 3.705 3.705 0 01-1.487-1.066 4.276 4.276 0 01-.826-1.652 8.57 8.57 0 01-.255-2.193v-8.319h-2.433v-2.733h2.428v-3.514l3.844-.451v3.965h3.875l-.421 2.733h-3.454v8.319a2.728 2.728 0 00.406 1.682 1.529 1.529 0 001.276.511 3.667 3.667 0 001.893-.6zm11.292-10.482a2.519 2.519 0 00-.466-1.712 1.921 1.921 0 00-1.487-.511 2.785 2.785 0 00-1.8.661 8.452 8.452 0 00-1.472 1.562v11.233H136.9v-15.888h3.334l.27 1.983a7.026 7.026 0 012.3-1.818 6.124 6.124 0 012.688-.616 4.074 4.074 0 013.275 1.231 5.215 5.215 0 011.051 3.484v11.624h-3.844zm20.214 7.118a2.541 2.541 0 00.255 1.306 1.722 1.722 0 00.856.646l-.841 2.552a5.326 5.326 0 01-2.117-.6 3.06 3.06 0 01-1.306-1.532 5.144 5.144 0 01-2.133 1.667 6.971 6.971 0 01-2.7.526 6.208 6.208 0 01-2.192-.361 4.631 4.631 0 01-1.637-1.021 4.453 4.453 0 01-1.037-1.577 5.5 5.5 0 01-.36-2.027 4.467 4.467 0 011.938-3.905 9.743 9.743 0 015.6-1.351h1.953v-.9a2.577 2.577 0 00-.736-2.117 3.916 3.916 0 00-2.418-.586 10.425 10.425 0 00-1.847.2 16.2 16.2 0 00-2.3.616l-.932-2.643a18.1 18.1 0 012.974-.841 14.53 14.53 0 012.673-.27q3.363 0 4.835 1.382a5.256 5.256 0 011.472 4.025zm-6.788 1.772a3.042 3.042 0 001.727-.511 4.551 4.551 0 001.337-1.442v-3.184h-1.352a5.112 5.112 0 00-3.124.721 2.434 2.434 0 00-.9 2.012q-.001 2.405 2.312 2.404zm11.443 2.343v-15.888h3.334l.27 1.983a5.925 5.925 0 014.655-2.433 4.4 4.4 0 012.478.631 3.523 3.523 0 011.366 1.8 7.589 7.589 0 012.253-1.8 5.422 5.422 0 012.493-.631 3.9 3.9 0 013.2 1.231 5.375 5.375 0 011.006 3.484v11.624h-3.844v-11.114a3.165 3.165 0 00-.39-1.8 1.523 1.523 0 00-1.322-.541 2.591 2.591 0 00-1.652.631 6.543 6.543 0 00-1.381 1.562v11.263h-3.844v-11.175a2.919 2.919 0 00-.406-1.772 1.567 1.567 0 00-1.306-.511 2.649 2.649 0 00-1.667.631 6.394 6.394 0 00-1.4 1.562v11.263z"/><circle cx="117.714" cy="38.428" r="38.428" fill="#d80027"/><path fill="#ffda44" d="M117.714 20.049l4.147 12.764h13.421l-10.858 7.888 4.147 12.764-10.857-7.888-10.857 7.888 4.147-12.764-10.858-7.888h13.421l4.147-12.764z"/><script>new (class{constructor(e){this.client=window[Symbol.for(e)],this.bindEvents()}bindEvents(){const e=this;var t;history.pushState=(t=history.pushState,function(){const n=t.apply(this,arguments);return e.onUrlChange(),n});let n=!0;history.replaceState=(t=&gt;function(s){var r=t.apply(this,arguments);return n||e.onUrlChange(),n=!1,r})(history.replaceState),window.addEventListener(&quot;hashchange&quot;,(function(){e.onUrlChange()}))}onUrlChange(){this.client.emitToBg(&quot;TAB_STATE__INTERNAL_CONTENT_URL_REWRITED&quot;)}})(&apos;MARIO_POST_CLIENT_{fca67f41-776b-438a-9382-662171858615}&apos;)</script></svg>