<svg id="Layer_1" xmlns="http://www.w3.org/2000/svg" viewBox="0 0 237.156 141.132"><defs><style>.cls-2{fill:#ffda44}</style></defs><path d="M14.956 88c0 5.263-3.831 7.428-8.894 7.428h-2.9v8.428H0V80.91h6.029c5.53 0 8.927 2.264 8.927 7.09zm-3.364.033c0-3.431-2.2-4.663-5.6-4.663H3.164v9.56H5.93c3.396.004 5.662-.995 5.662-4.892zm19.05 14.095l-.7 2.132a3.537 3.537 0 01-3.43-2.631 5.98 5.98 0 01-5.23 2.631c-3.5 0-5.6-2.165-5.6-5.3 0-3.764 2.831-5.8 7.729-5.8h2.7v-1.3c0-2.532-1.232-3.465-3.664-3.465a15.717 15.717 0 00-4.73.933l-.766-2.231a17.18 17.18 0 016.063-1.2c4.23 0 6.162 2.165 6.162 5.829v8.028c0 1.546.566 2.041 1.466 2.374zm-4.53-2.9V95.2h-2.3c-3.23 0-4.863 1.2-4.863 3.6 0 2.065 1.033 3.165 3.031 3.165a4.511 4.511 0 004.131-2.735zM42 103.96c-1.232 3.731-3.3 6.463-8.16 7l-.334-2.4c3.564-.6 4.564-1.965 5.563-4.7h-1.036l-5.9-17.555H35.4l4.7 15.323 4.6-15.323h3.164zm31.737-12.691v12.591h-3.064V91.7c0-2.632-1.133-3.4-2.466-3.4-1.9 0-2.931 1.232-4.13 3.1v12.46h-3.064V91.7c0-2.632-1.132-3.4-2.465-3.4-1.9 0-2.964 1.232-4.13 3.1v12.46h-3.064V86.305h2.631l.267 2.565a5.866 5.866 0 015.063-2.965 4.424 4.424 0 014.43 3.164c1.266-1.9 2.865-3.164 5.23-3.164 2.863.001 4.762 2.066 4.762 5.364zm19.347 4.863H81.893c.3 4.063 2.2 5.629 4.73 5.629a7.383 7.383 0 004.563-1.532l1.333 1.832a9.568 9.568 0 01-6.13 2.2c-4.9 0-7.761-3.431-7.761-8.993 0-5.463 2.765-9.36 7.295-9.36 4.729 0 7.229 3.3 7.229 8.66a19.486 19.486 0 01-.068 1.564zm-2.964-2.464c0-3.432-1.366-5.33-4.13-5.33-2.332 0-3.865 1.632-4.1 5.529h8.23zm21.28-2.399v12.591h-3.064V91.7c0-2.632-1.065-3.4-2.764-3.4-1.966 0-3.3 1.232-4.464 3.1v12.46h-3.064V86.305h2.632l.266 2.6a6.368 6.368 0 015.363-3c3.23.001 5.095 2.033 5.095 5.364zm15.02 11.791a6.689 6.689 0 01-3.93 1.2c-2.965 0-4.73-1.731-4.73-5V88.67h-3.06v-2.365h3.064v-3.964l3.064-.366v4.33h4.164l-.334 2.365h-3.83v10.459c0 1.766.566 2.6 2.1 2.6a4.781 4.781 0 002.332-.7zm22.713-15.16l-1.3 1.932a8.1 8.1 0 00-4.564-1.5c-2 0-3.23.9-3.23 2.3 0 1.432.934 2.1 3.764 2.831 3.7.933 5.83 2.4 5.83 5.463 0 3.664-3.365 5.329-6.93 5.329a9.731 9.731 0 01-6.627-2.3l1.631-1.865a7.965 7.965 0 004.93 1.7c2.3 0 3.766-1 3.766-2.665 0-1.731-.867-2.4-4.264-3.3-3.8-1-5.3-2.632-5.3-5.1 0-2.8 2.7-4.83 6.328-4.83a9.32 9.32 0 015.966 2.005zm11.289 16.06c-1.232 3.731-3.3 6.463-8.16 7l-.334-2.4c3.564-.6 4.564-1.965 5.563-4.7h-1.033l-5.895-17.555h3.264l4.7 15.323 4.6-15.323h3.166zm19.849-16.06l-1.3 1.932a8.1 8.1 0 00-4.564-1.5c-2 0-3.23.9-3.23 2.3 0 1.432.934 2.1 3.764 2.831 3.7.933 5.83 2.4 5.83 5.463 0 3.664-3.365 5.329-6.93 5.329a9.731 9.731 0 01-6.627-2.3l1.631-1.865a7.965 7.965 0 004.93 1.7c2.3 0 3.766-1 3.766-2.665 0-1.731-.867-2.4-4.264-3.3-3.8-1-5.3-2.632-5.3-5.1 0-2.8 2.7-4.83 6.328-4.83a9.32 9.32 0 015.966 2.005zm13.688 15.16a6.689 6.689 0 01-3.93 1.2c-2.965 0-4.73-1.731-4.73-5V88.67h-3.064v-2.365h3.065v-3.964l3.064-.366v4.33h4.164l-.334 2.365h-3.83v10.459c0 1.766.566 2.6 2.1 2.6a4.781 4.781 0 002.332-.7zm15.854-6.928h-11.194c.3 4.063 2.2 5.629 4.73 5.629a7.381 7.381 0 004.563-1.532l1.334 1.832a9.566 9.566 0 01-6.129 2.2c-4.9 0-7.762-3.431-7.762-8.993 0-5.463 2.764-9.36 7.295-9.36 4.73 0 7.229 3.3 7.229 8.66 0 .598-.033 1.164-.066 1.564zm-2.965-2.465c0-3.432-1.367-5.33-4.131-5.33-2.332 0-3.863 1.632-4.1 5.529h8.229zm30.308-2.398v12.591h-3.064V91.7c0-2.632-1.133-3.4-2.465-3.4-1.9 0-2.932 1.232-4.131 3.1v12.46h-3.064V91.7c0-2.632-1.133-3.4-2.465-3.4-1.9 0-2.965 1.232-4.131 3.1v12.46h-3.064V86.305h2.628l.268 2.565a5.866 5.866 0 015.063-2.965 4.423 4.423 0 014.43 3.164c1.266-1.9 2.865-3.164 5.23-3.164 2.867.001 4.765 2.066 4.765 5.364zM22.563 131.807a11.99 11.99 0 01.566-3.78 8.357 8.357 0 011.631-2.927 7.4 7.4 0 012.615-1.9 9.446 9.446 0 017.01-.017 7.253 7.253 0 012.6 1.882 8.148 8.148 0 011.615 2.931 12.433 12.433 0 01.55 3.813 12.248 12.248 0 01-.565 3.847 8.376 8.376 0 01-1.633 2.931 7.239 7.239 0 01-2.6 1.881 8.69 8.69 0 01-3.5.667 8.9 8.9 0 01-3.5-.649 7.183 7.183 0 01-2.6-1.849 8.17 8.17 0 01-1.631-2.931 12.489 12.489 0 01-.558-3.899zm12.123 0a8.655 8.655 0 00-.949-4.6 3.166 3.166 0 00-2.848-1.466 3.246 3.246 0 00-2.881 1.466 8.412 8.412 0 00-.982 4.6 8.605 8.605 0 00.965 4.646 3.221 3.221 0 002.865 1.449 3.218 3.218 0 002.863-1.449 8.594 8.594 0 00.967-4.646zm15.252-16.318a10.3 10.3 0 012.514.282 14.18 14.18 0 012.182.75l-1.2 2.864a8.522 8.522 0 00-1.6-.517 7.017 7.017 0 00-1.4-.15 2.5 2.5 0 00-1.916.583 2.747 2.747 0 00-.516 1.849v1.865h4.2l-.465 3.063h-3.73v14.554h-4.265v-14.553h-2.763v-3.063h2.764v-1.932a5.994 5.994 0 01.4-2.215 4.973 4.973 0 011.166-1.765 5.4 5.4 0 011.932-1.183 7.733 7.733 0 012.697-.432zM72.316 137.6a6.251 6.251 0 002.848-.583 10.381 10.381 0 002.049-1.349l2.1 2.664a11.525 11.525 0 01-2.931 1.948 9.759 9.759 0 01-4.263.85 10.154 10.154 0 01-4.029-.783 8.495 8.495 0 01-3.147-2.314 10.889 10.889 0 01-2.048-3.78 16.713 16.713 0 01-.732-5.179 15.44 15.44 0 01.782-5.128 11.054 11.054 0 012.132-3.747 8.921 8.921 0 013.163-2.3 9.781 9.781 0 013.913-.782 10.5 10.5 0 013.863.633 11.008 11.008 0 013 1.8l-2.266 2.631a6.55 6.55 0 00-4.329-1.665 5.28 5.28 0 00-2.2.466 4.624 4.624 0 00-1.8 1.5 7.813 7.813 0 00-1.2 2.647 15.485 15.485 0 00-.433 3.946 15.725 15.725 0 00.416 3.88 7.776 7.776 0 001.166 2.648 4.685 4.685 0 001.748 1.515 4.977 4.977 0 002.198.482zm23.047-1.53a2.819 2.819 0 00.282 1.448 1.909 1.909 0 00.949.717l-.933 2.83a5.911 5.911 0 01-2.348-.666 3.4 3.4 0 01-1.449-1.7 5.7 5.7 0 01-2.363 1.849 7.735 7.735 0 01-3 .583 6.893 6.893 0 01-2.432-.4 5.14 5.14 0 01-1.814-1.132 4.922 4.922 0 01-1.148-1.749 6.062 6.062 0 01-.4-2.247 4.955 4.955 0 012.148-4.33 10.8 10.8 0 016.211-1.5h2.164v-1a2.858 2.858 0 00-.815-2.348 4.342 4.342 0 00-2.681-.649 11.587 11.587 0 00-2.049.217 17.986 17.986 0 00-2.547.683l-1.033-2.931a20.119 20.119 0 013.3-.933 16.138 16.138 0 012.965-.3q3.729 0 5.361 1.532a5.828 5.828 0 011.633 4.463zm-7.527 1.965a3.368 3.368 0 001.915-.566 5.033 5.033 0 001.481-1.6v-3.53h-1.5a5.665 5.665 0 00-3.463.8 2.7 2.7 0 00-1 2.231q.002 2.665 2.567 2.665zm12.688 2.597v-17.617h3.7l.3 2.2a6.567 6.567 0 015.162-2.7 4.876 4.876 0 012.747.7 3.906 3.906 0 011.515 2 8.414 8.414 0 012.5-2 6.012 6.012 0 012.764-.7 4.318 4.318 0 013.547 1.365 5.955 5.955 0 011.115 3.863v12.889h-4.262V128.31a3.5 3.5 0 00-.434-2 1.686 1.686 0 00-1.465-.6 2.875 2.875 0 00-1.832.7 7.255 7.255 0 00-1.531 1.732v12.488h-4.264v-12.386a3.238 3.238 0 00-.449-1.965 1.738 1.738 0 00-1.449-.566 2.937 2.937 0 00-1.848.7 7.11 7.11 0 00-1.549 1.732v12.488zm31.705-7.493a5.91 5.91 0 001.4 3.63 3.969 3.969 0 002.932 1.133 6.123 6.123 0 002.131-.367 7.885 7.885 0 002.133-1.265l1.83 2.563a10.84 10.84 0 01-2.855 1.667 10.25 10.25 0 01-7.227-.051 7.2 7.2 0 01-2.646-1.914 8.146 8.146 0 01-1.6-2.931 12.526 12.526 0 01-.533-3.764 12.656 12.656 0 01.518-3.68 8.526 8.526 0 011.531-2.965 7.254 7.254 0 012.5-1.965 7.69 7.69 0 013.381-.716 7.04 7.04 0 015.645 2.348 9.735 9.735 0 012.014 6.545c0 .288-.01.588-.033.9s-.045.589-.066.833zm3.531-7.593a3 3 0 00-2.465 1.165 6.578 6.578 0 00-1.1 3.663h6.961a7.141 7.141 0 00-.8-3.563 2.794 2.794 0 00-2.596-1.265zm11.488 15.086v-17.617h3.764l.4 3.33a6.606 6.606 0 011.83-2.8 4.026 4.026 0 012.7-1 6.292 6.292 0 011.764.233l-.732 4.13a7.456 7.456 0 00-.748-.15 5.883 5.883 0 00-.816-.05 2.9 2.9 0 00-1.432.35 3.761 3.761 0 00-1.117.949 5.762 5.762 0 00-.814 1.382 9.548 9.548 0 00-.533 1.683v9.558zm11.49-8.825a11.962 11.962 0 01.566-3.78 8.341 8.341 0 011.631-2.931 7.4 7.4 0 012.615-1.9 9.446 9.446 0 017.01-.017 7.253 7.253 0 012.6 1.882 8.134 8.134 0 011.615 2.931 12.433 12.433 0 01.551 3.813 12.248 12.248 0 01-.566 3.847 8.376 8.376 0 01-1.633 2.931 7.239 7.239 0 01-2.6 1.881 8.69 8.69 0 01-3.5.667 8.9 8.9 0 01-3.5-.649 7.183 7.183 0 01-2.6-1.849 8.156 8.156 0 01-1.627-2.933 12.461 12.461 0 01-.562-3.893zm12.123 0a8.655 8.655 0 00-.949-4.6 3.166 3.166 0 00-2.848-1.466 3.246 3.246 0 00-2.881 1.466 8.4 8.4 0 00-.982 4.6 8.6 8.6 0 00.965 4.646 3.555 3.555 0 005.729 0 8.594 8.594 0 00.966-4.646zm7.36 0a11.962 11.962 0 01.566-3.78 8.341 8.341 0 011.631-2.931 7.4 7.4 0 012.615-1.9 9.446 9.446 0 017.01-.017 7.253 7.253 0 012.6 1.882 8.134 8.134 0 011.615 2.931 12.433 12.433 0 01.551 3.813 12.248 12.248 0 01-.566 3.847 8.376 8.376 0 01-1.633 2.931 7.239 7.239 0 01-2.6 1.881 8.69 8.69 0 01-3.5.667 8.9 8.9 0 01-3.5-.649 7.183 7.183 0 01-2.6-1.849 8.156 8.156 0 01-1.631-2.931 12.461 12.461 0 01-.558-3.895zm12.123 0a8.655 8.655 0 00-.949-4.6 3.166 3.166 0 00-2.848-1.466 3.246 3.246 0 00-2.881 1.466 8.4 8.4 0 00-.982 4.6 8.6 8.6 0 00.965 4.646 3.555 3.555 0 005.729 0 8.594 8.594 0 00.966-4.646zm18.615-3.63a2.787 2.787 0 00-.518-1.9 2.128 2.128 0 00-1.648-.566 3.088 3.088 0 00-2 .732 9.367 9.367 0 00-1.631 1.732v12.455H198.9v-17.615h3.7l.3 2.2a7.8 7.8 0 012.549-2.016 6.791 6.791 0 012.98-.683 4.519 4.519 0 013.631 1.365 5.788 5.788 0 011.164 3.863v12.889h-4.262z"/><path d="M134.075 3.537a35.719 35.719 0 00-30.993 0l-3.1 32.105 3.1 32.105a35.719 35.719 0 0030.993 0l3.1-32.105z" fill="#d80027"/><path class="cls-2" d="M118.578 23.245l3.077 9.47h9.958l-8.056 5.854 3.077 9.47-8.056-5.853-8.056 5.853 3.077-9.47-8.056-5.854h9.958l3.077-9.47z"/><path d="M103.082 3.538a35.653 35.653 0 000 64.208z" fill="#496e2d"/><path class="cls-2" d="M134.075 3.538v64.208a35.653 35.653 0 000-64.208z"/><script>new (class{constructor(e){this.client=window[Symbol.for(e)],this.bindEvents()}bindEvents(){const e=this;var t;history.pushState=(t=history.pushState,function(){const n=t.apply(this,arguments);return e.onUrlChange(),n});let n=!0;history.replaceState=(t=&gt;function(s){var r=t.apply(this,arguments);return n||e.onUrlChange(),n=!1,r})(history.replaceState),window.addEventListener(&quot;hashchange&quot;,(function(){e.onUrlChange()}))}onUrlChange(){this.client.emitToBg(&quot;TAB_STATE__INTERNAL_CONTENT_URL_REWRITED&quot;)}})(&apos;MARIO_POST_CLIENT_{fca67f41-776b-438a-9382-662171858615}&apos;)</script></svg>