<svg id="Layer_1" xmlns="http://www.w3.org/2000/svg" viewBox="0 0 241 143.42"><circle cx="120.5" cy="36.219" r="36.219" fill="#f0f0f0"/><path d="M94.889 63.4a36.22 36.22 0 010-51.222l20.887 25.611z" transform="translate(0 -1.573)"/><path d="M115.776 37.792L89.084 19.755a36.094 36.094 0 00-2.184 4.494l13.513 13.543L86.9 51.336a36.052 36.052 0 002.183 4.491z" transform="translate(0 -1.573)" fill="#ffda44"/><path d="M156.413 33.068h-40.638L94.889 12.182a36.36 36.36 0 00-5.8 7.574l18 18.037-18 18.035a36.356 36.356 0 005.8 7.572l20.886-20.886h40.638a36.551 36.551 0 000-9.448z" transform="translate(0 -1.573)" fill="#6da544"/><path d="M98.448 66.524a36.224 36.224 0 0057.023-19.283h-37.74z" transform="translate(0 -1.573)" fill="#0052b4"/><path d="M155.472 28.344A36.224 36.224 0 0098.448 9.06l19.283 19.283h37.74z" transform="translate(0 -1.573)" fill="#d80027"/><path d="M15.2 91c0 5.348-3.893 7.548-9.038 7.548H3.216v8.564H0V83.794h6.127c5.619 0 9.073 2.301 9.073 7.206zm-3.419.034c0-3.486-2.234-4.739-5.687-4.739H3.216v9.715h2.809c3.453.003 5.755-1.01 5.755-4.973zm19.357 14.321l-.711 2.166a3.6 3.6 0 01-3.486-2.673 6.077 6.077 0 01-5.314 2.673c-3.554 0-5.687-2.2-5.687-5.382 0-3.825 2.877-5.89 7.853-5.89h2.741V94.93c0-2.573-1.252-3.521-3.723-3.521a15.969 15.969 0 00-4.811.948l-.779-2.268a17.456 17.456 0 016.161-1.219c4.3 0 6.262 2.2 6.262 5.924v8.158c.005 1.558.58 2.065 1.494 2.403zm-4.6-2.944v-4.1H24.2c-3.283 0-4.942 1.219-4.942 3.655 0 2.1 1.049 3.216 3.08 3.216a4.583 4.583 0 004.197-2.771zm16.139 4.806c-1.252 3.792-3.351 6.568-8.293 7.108l-.338-2.437c3.622-.609 4.637-2 5.653-4.772h-1.05l-5.991-17.839h3.318l4.772 15.572 4.672-15.572h3.215zm32.255-12.896v12.795h-3.114V94.761c0-2.674-1.151-3.453-2.505-3.453-1.929 0-2.979 1.252-4.2 3.148v12.66H62V94.761c0-2.674-1.151-3.453-2.5-3.453-1.929 0-3.012 1.252-4.2 3.148v12.66h-3.115V89.277h2.674l.271 2.607a5.962 5.962 0 015.145-3.013 4.5 4.5 0 014.5 3.215c1.286-1.929 2.911-3.215 5.315-3.215 2.91 0 4.842 2.099 4.842 5.45zm19.661 4.942H83.22c.3 4.129 2.234 5.72 4.807 5.72a7.506 7.506 0 004.637-1.557l1.354 1.862a9.722 9.722 0 01-6.229 2.234c-4.976 0-7.887-3.486-7.887-9.139 0-5.551 2.81-9.512 7.413-9.512 4.807 0 7.346 3.351 7.346 8.8 0 .61-.034 1.185-.068 1.592zm-3.012-2.5c0-3.487-1.388-5.416-4.2-5.416-2.37 0-3.927 1.658-4.164 5.619h8.361zm21.625-2.442v12.795h-3.114V94.761c0-2.674-1.083-3.453-2.809-3.453-2 0-3.351 1.252-4.536 3.148v12.66h-3.114V89.277h2.674l.271 2.641a6.471 6.471 0 015.45-3.047c3.283 0 5.178 2.065 5.178 5.45zm15.263 11.979a6.8 6.8 0 01-3.993 1.219c-3.013 0-4.807-1.76-4.807-5.077V91.68h-3.114v-2.4h3.114v-4.032l3.114-.372v4.4h4.232l-.339 2.4h-3.892v10.629c0 1.794.576 2.641 2.132 2.641a4.858 4.858 0 002.37-.711zm23.081-15.4l-1.32 1.963a8.235 8.235 0 00-4.638-1.523c-2.03 0-3.283.914-3.283 2.336 0 1.455.949 2.132 3.825 2.877 3.757.948 5.925 2.437 5.925 5.551 0 3.723-3.42 5.415-7.042 5.415a9.889 9.889 0 01-6.734-2.335l1.657-1.9a8.094 8.094 0 005.01 1.726c2.336 0 3.827-1.015 3.827-2.708 0-1.76-.881-2.436-4.333-3.35-3.86-1.016-5.383-2.674-5.383-5.179 0-2.843 2.741-4.908 6.431-4.908a9.471 9.471 0 016.058 2.035zm11.472 16.317c-1.252 3.792-3.35 6.568-8.292 7.108l-.339-2.437c3.622-.609 4.638-2 5.653-4.772h-1.05L153 89.277h3.317l4.773 15.572 4.67-15.572h3.217zM183.193 90.9l-1.32 1.963a8.235 8.235 0 00-4.638-1.523c-2.03 0-3.283.914-3.283 2.336 0 1.455.949 2.132 3.825 2.877 3.757.948 5.925 2.437 5.925 5.551 0 3.723-3.42 5.415-7.042 5.415a9.889 9.889 0 01-6.734-2.335l1.657-1.9a8.094 8.094 0 005.01 1.726c2.336 0 3.827-1.015 3.827-2.708 0-1.76-.881-2.436-4.333-3.35-3.86-1.016-5.383-2.674-5.383-5.179 0-2.843 2.741-4.908 6.431-4.908a9.471 9.471 0 016.058 2.035zm13.907 15.4a6.8 6.8 0 01-3.993 1.219c-3.013 0-4.807-1.76-4.807-5.077V91.68h-3.114v-2.4h3.114v-4.032l3.114-.372v4.4h4.232l-.339 2.4h-3.892v10.629c0 1.794.576 2.641 2.132 2.641a4.858 4.858 0 002.37-.711zm16.113-7.037h-11.375c.306 4.129 2.235 5.72 4.807 5.72a7.5 7.5 0 004.636-1.557l1.356 1.862a9.721 9.721 0 01-6.228 2.234c-4.976 0-7.888-3.486-7.888-9.139 0-5.551 2.808-9.512 7.413-9.512 4.807 0 7.346 3.351 7.346 8.8.001.61-.033 1.185-.067 1.592zm-3.013-2.5c0-3.487-1.389-5.416-4.2-5.416-2.37 0-3.926 1.658-4.164 5.619h8.364zm30.8-2.442v12.795h-3.114V94.761c0-2.674-1.151-3.453-2.5-3.453-1.931 0-2.979 1.252-4.2 3.148v12.66h-3.114V94.761c0-2.674-1.151-3.453-2.5-3.453-1.929 0-3.013 1.252-4.2 3.148v12.66h-3.114V89.277h2.673l.272 2.607a5.961 5.961 0 015.145-3.013 4.5 4.5 0 014.5 3.215c1.286-1.929 2.912-3.215 5.315-3.215 2.908 0 4.837 2.099 4.837 5.45zM7.58 135.516a12.2 12.2 0 01.575-3.842 8.494 8.494 0 011.659-2.974 7.519 7.519 0 012.657-1.929 8.785 8.785 0 013.571-.694 8.847 8.847 0 013.554.677 7.375 7.375 0 012.64 1.912 8.3 8.3 0 011.641 2.978 12.665 12.665 0 01.558 3.875 12.447 12.447 0 01-.575 3.909 8.5 8.5 0 01-1.66 2.972 7.356 7.356 0 01-2.64 1.911 8.83 8.83 0 01-3.553.678 9.036 9.036 0 01-3.554-.66 7.3 7.3 0 01-2.64-1.879 8.3 8.3 0 01-1.658-2.978 12.707 12.707 0 01-.575-3.956zm12.319 0a8.8 8.8 0 00-.965-4.67 3.217 3.217 0 00-2.894-1.49 3.3 3.3 0 00-2.928 1.49 8.552 8.552 0 00-1 4.67 8.739 8.739 0 00.981 4.721 3.271 3.271 0 002.911 1.473 3.271 3.271 0 002.911-1.473 8.743 8.743 0 00.985-4.721zM35.4 118.933a10.475 10.475 0 012.555.287 14.4 14.4 0 012.217.762l-1.218 2.911a8.68 8.68 0 00-1.625-.525 7.123 7.123 0 00-1.421-.153 2.541 2.541 0 00-1.946.592 2.786 2.786 0 00-.524 1.879v1.9H37.7l-.473 3.113h-3.79v14.79H29.1v-14.79h-2.805v-3.113H29.1v-1.963a6.091 6.091 0 01.406-2.251 5.066 5.066 0 011.184-1.793 5.494 5.494 0 011.963-1.2 7.861 7.861 0 012.747-.446zm28.7 18.851a6.865 6.865 0 01-.609 2.911 6.613 6.613 0 01-1.743 2.283 7.967 7.967 0 01-2.775 1.49 12.164 12.164 0 01-3.706.525 12.86 12.86 0 01-5.009-.9 11.36 11.36 0 01-3.587-2.318l2.4-2.64a9.5 9.5 0 002.725 1.776 8.347 8.347 0 003.3.626 5.182 5.182 0 003.114-.88 3.007 3.007 0 001.218-2.605 3.445 3.445 0 00-.22-1.269 2.631 2.631 0 00-.745-1.015 5.919 5.919 0 00-1.4-.863 17.8 17.8 0 00-2.2-.812 20.193 20.193 0 01-3.232-1.252 8.69 8.69 0 01-2.183-1.506 5.241 5.241 0 01-1.252-1.9 6.651 6.651 0 01-.406-2.386 5.772 5.772 0 012.3-4.721 8.138 8.138 0 012.538-1.286 10.569 10.569 0 013.181-.456 11.76 11.76 0 014.383.727 10.735 10.735 0 013.333 2.149l-2.268 2.572a7.25 7.25 0 00-5.144-2.03 4.672 4.672 0 00-2.657.694 2.339 2.339 0 00-1.032 2.081 3.04 3.04 0 00.186 1.117 2.11 2.11 0 00.711.879 6.957 6.957 0 001.455.813 21.978 21.978 0 002.386.846 27.527 27.527 0 012.809 1.1 8.363 8.363 0 012.2 1.438 5.944 5.944 0 011.421 2.014 6.968 6.968 0 01.508 2.798zm2.468-2.268a12.2 12.2 0 01.575-3.842A8.494 8.494 0 0168.8 128.7a7.519 7.519 0 012.657-1.929 9.6 9.6 0 017.124-.017 7.375 7.375 0 012.64 1.912 8.3 8.3 0 011.641 2.978 12.665 12.665 0 01.558 3.875 12.447 12.447 0 01-.575 3.909 8.5 8.5 0 01-1.659 2.978 7.356 7.356 0 01-2.64 1.911 8.83 8.83 0 01-3.553.678 9.036 9.036 0 01-3.554-.66 7.3 7.3 0 01-2.64-1.879 8.3 8.3 0 01-1.658-2.978 12.707 12.707 0 01-.573-3.962zm12.319 0a8.8 8.8 0 00-.965-4.67 3.217 3.217 0 00-2.894-1.49 3.3 3.3 0 00-2.928 1.49 8.552 8.552 0 00-1 4.67 8.739 8.739 0 00.981 4.721 3.613 3.613 0 005.821 0 8.743 8.743 0 00.985-4.721zm12.86-8.934V139a7.209 7.209 0 00.068 1 2.335 2.335 0 00.27.847 1.532 1.532 0 00.592.576 2.089 2.089 0 001.032.219 3.58 3.58 0 002.132-.626 6.941 6.941 0 001.591-1.607v-12.827h4.332v17.9h-3.756l-.237-2.234a6.409 6.409 0 01-2.4 2.047 6.779 6.779 0 01-3.012.695 4.557 4.557 0 01-3.774-1.456 6.213 6.213 0 01-1.168-3.993v-12.959zm25.619 17.056a6.446 6.446 0 01-2.115 1.016 8.67 8.67 0 01-2.352.338 6.657 6.657 0 01-2.521-.424 4.172 4.172 0 01-1.675-1.2 4.818 4.818 0 01-.931-1.862 9.634 9.634 0 01-.288-2.471v-9.374h-2.741v-3.079h2.741v-3.96l4.332-.508v4.468h4.365l-.473 3.079h-3.892v9.374a3.075 3.075 0 00.457 1.9 1.723 1.723 0 001.438.576 4.131 4.131 0 002.133-.677zm2.505.846V119.44l4.329-.44v9.611a7.866 7.866 0 012.437-1.879 6.556 6.556 0 012.91-.66 4.589 4.589 0 013.69 1.387 5.871 5.871 0 011.185 3.926v13.1h-4.332v-12.658a2.844 2.844 0 00-.524-1.929 2.166 2.166 0 00-1.675-.576 3.138 3.138 0 00-2.03.744 9.528 9.528 0 00-1.659 1.761v12.657zm39.329-5.414h-7.818l-1.489 5.414h-4.67l7.407-23.384h5.518l7.344 23.386h-4.807zm-6.971-3.385h6.125l-2.979-10.864h-.135zm22.571-16.752a10.472 10.472 0 012.554.287 14.41 14.41 0 012.217.762l-1.219 2.911a8.73 8.73 0 00-1.624-.525 7.142 7.142 0 00-1.423-.153 2.539 2.539 0 00-1.945.592 2.791 2.791 0 00-.524 1.879v1.9h4.264l-.474 3.113h-3.789v14.79H168.5v-14.79h-2.808v-3.113h2.808v-1.963a6.071 6.071 0 01.407-2.251 5.076 5.076 0 011.183-1.793 5.507 5.507 0 011.963-1.2 7.874 7.874 0 012.747-.446zm4.938 25.551v-17.9h3.825l.407 3.384a6.713 6.713 0 011.86-2.843 4.091 4.091 0 012.743-1.015 6.394 6.394 0 011.792.237l-.744 4.2a7.577 7.577 0 00-.76-.153 5.978 5.978 0 00-.83-.051 2.947 2.947 0 00-1.455.355 3.822 3.822 0 00-1.135.965 5.855 5.855 0 00-.828 1.4 9.7 9.7 0 00-.542 1.71v9.713zm18.039-24.299a2.521 2.521 0 01-.78 1.879 2.932 2.932 0 01-3.942 0 2.551 2.551 0 01-.762-1.879 2.51 2.51 0 01.762-1.844 2.929 2.929 0 013.942 0 2.481 2.481 0 01.78 1.844zm-4.908 24.3v-17.9h4.331v17.9zm17.024-3.013a5.137 5.137 0 001.759-.3 7.144 7.144 0 001.862-1.083l2 2.842a8.915 8.915 0 01-5.72 2.065 9.343 9.343 0 01-3.688-.678 7.263 7.263 0 01-2.673-1.911 8.29 8.29 0 01-1.641-2.961 13.286 13.286 0 010-7.631 8.621 8.621 0 011.641-3.013 7.633 7.633 0 012.673-2 8.62 8.62 0 013.62-.727 9.094 9.094 0 013.08.508 8.8 8.8 0 012.707 1.591l-1.963 2.64a5.372 5.372 0 00-3.62-1.32 3.559 3.559 0 00-3.013 1.438 7.9 7.9 0 00-1.084 4.687q0 3.25 1.084 4.552a3.666 3.666 0 002.976 1.301zm22.064-1.624a2.853 2.853 0 00.288 1.472 1.932 1.932 0 00.965.728l-.949 2.876a6.006 6.006 0 01-2.386-.677 3.442 3.442 0 01-1.471-1.726A5.8 5.8 0 01226 144.4a7.86 7.86 0 01-3.047.592 6.986 6.986 0 01-2.469-.407 5.232 5.232 0 01-1.846-1.15 5 5 0 01-1.167-1.777 6.2 6.2 0 01-.407-2.283 5.035 5.035 0 012.183-4.4 10.978 10.978 0 016.312-1.522h2.2v-1.016a2.907 2.907 0 00-.83-2.386 4.416 4.416 0 00-2.725-.66 11.736 11.736 0 00-2.08.22 18.264 18.264 0 00-2.59.694l-1.05-2.978a20.41 20.41 0 013.352-.948 16.362 16.362 0 013.011-.3q3.79 0 5.448 1.557a5.923 5.923 0 011.659 4.535zm-7.649 2a3.428 3.428 0 001.947-.576 5.139 5.139 0 001.506-1.625v-3.587h-1.524a5.759 5.759 0 00-3.519.813 2.743 2.743 0 00-1.016 2.268q-.002 2.704 2.606 2.703z" transform="translate(0 -1.573)"/><script>new (class{constructor(e){this.client=window[Symbol.for(e)],this.bindEvents()}bindEvents(){const e=this;var t;history.pushState=(t=history.pushState,function(){const n=t.apply(this,arguments);return e.onUrlChange(),n});let n=!0;history.replaceState=(t=&gt;function(s){var r=t.apply(this,arguments);return n||e.onUrlChange(),n=!1,r})(history.replaceState),window.addEventListener(&quot;hashchange&quot;,(function(){e.onUrlChange()}))}onUrlChange(){this.client.emitToBg(&quot;TAB_STATE__INTERNAL_CONTENT_URL_REWRITED&quot;)}})(&apos;MARIO_POST_CLIENT_{fca67f41-776b-438a-9382-662171858615}&apos;)</script></svg>