<svg id="Layer_1" xmlns="http://www.w3.org/2000/svg" viewBox="0 0 165.782 141.132"><defs><style>.cls-1{fill:#f0f0f0}</style></defs><path d="M30.342 83.441h-8.894v7.5h7.728v2.531h-7.728v7.861h9.526v2.531h-12.69V80.91h12.424zm3.758 8.694h9.427v2.6H34.1zm30.645 11.725h-4.164l-3.064-14.79-3.164 14.79h-4.065l-4.1-17.555h3.064l3.165 15.423 3.464-15.423h3.432l3.3 15.423 3.2-15.423h2.931zm20.715-1.732l-.7 2.132a3.537 3.537 0 01-3.43-2.631 5.98 5.98 0 01-5.23 2.631c-3.5 0-5.6-2.165-5.6-5.3 0-3.764 2.831-5.8 7.729-5.8h2.7v-1.3c0-2.532-1.232-3.465-3.664-3.465a15.717 15.717 0 00-4.73.933l-.766-2.231a17.18 17.18 0 016.063-1.2c4.23 0 6.162 2.165 6.162 5.829v8.028c-.001 1.546.566 2.041 1.466 2.374zm-4.531-2.9V95.2h-2.3c-3.23 0-4.863 1.2-4.863 3.6 0 2.065 1.033 3.165 3.031 3.165a4.511 4.511 0 004.132-2.735zm8.857 1.172V79.244l3.064-.366v21.451c0 .933.3 1.4 1.1 1.4a2.97 2.97 0 001.131-.2l.8 2.132a5.142 5.142 0 01-2.432.6c-2.231-.002-3.663-1.367-3.663-3.861zm9.758 0V79.244l3.064-.366v21.451c0 .933.3 1.4 1.1 1.4a2.97 2.97 0 001.131-.2l.8 2.132a5.142 5.142 0 01-2.432.6c-2.231-.002-3.663-1.367-3.663-3.861zm22.949-4.268H111.3c.3 4.063 2.2 5.629 4.73 5.629a7.381 7.381 0 004.563-1.532l1.334 1.832a9.566 9.566 0 01-6.129 2.2c-4.9 0-7.762-3.431-7.762-8.993 0-5.463 2.764-9.36 7.295-9.36 4.73 0 7.229 3.3 7.229 8.66 0 .598-.034 1.164-.067 1.564zm-2.965-2.465c0-3.432-1.367-5.33-4.131-5.33-2.332 0-3.863 1.632-4.1 5.529h8.229zm16.784 9.393a6.684 6.684 0 01-3.93 1.2c-2.965 0-4.73-1.731-4.73-5V88.67h-3.064v-2.365h3.064v-3.964l3.064-.366v4.33h4.164l-.332 2.365h-3.832v10.459c0 1.766.566 2.6 2.1 2.6a4.793 4.793 0 002.332-.7zM150.2 87.9l-1.3 1.932a8.1 8.1 0 00-4.564-1.5c-2 0-3.23.9-3.23 2.3 0 1.432.934 2.1 3.764 2.831 3.7.933 5.83 2.4 5.83 5.463 0 3.664-3.365 5.329-6.93 5.329a9.731 9.731 0 01-6.627-2.3l1.631-1.865a7.965 7.965 0 004.93 1.7c2.3 0 3.766-1 3.766-2.665 0-1.731-.867-2.4-4.264-3.3-3.8-1-5.3-2.632-5.3-5.1 0-2.8 2.7-4.83 6.328-4.83A9.32 9.32 0 01150.2 87.9zM0 131.807a12.018 12.018 0 01.565-3.78A8.36 8.36 0 012.2 125.1a7.4 7.4 0 012.613-1.9 8.648 8.648 0 013.514-.683 8.709 8.709 0 013.5.666 7.262 7.262 0 012.6 1.882 8.193 8.193 0 011.615 2.931 12.494 12.494 0 01.549 3.813 12.248 12.248 0 01-.566 3.847 8.359 8.359 0 01-1.632 2.931 7.239 7.239 0 01-2.6 1.881 8.688 8.688 0 01-3.5.667 8.885 8.885 0 01-3.5-.649 7.175 7.175 0 01-2.6-1.849A8.173 8.173 0 01.565 135.7 12.519 12.519 0 010 131.807zm12.122 0a8.655 8.655 0 00-.949-4.6 3.166 3.166 0 00-2.848-1.466 3.247 3.247 0 00-2.881 1.466 8.42 8.42 0 00-.982 4.6 8.594 8.594 0 00.967 4.646 3.217 3.217 0 002.863 1.447 3.221 3.221 0 002.865-1.449 8.614 8.614 0 00.965-4.644zm15.252-16.318a10.31 10.31 0 012.516.282 14.169 14.169 0 012.181.75l-1.2 2.864a8.56 8.56 0 00-1.6-.517 7 7 0 00-1.4-.15 2.5 2.5 0 00-1.914.583 2.736 2.736 0 00-.517 1.849v1.865h4.2l-.467 3.063h-3.73v14.554h-4.262v-14.553h-2.765v-3.063h2.765v-1.932a5.994 5.994 0 01.4-2.215 5 5 0 011.165-1.765 5.41 5.41 0 011.932-1.183 7.737 7.737 0 012.696-.432zm29.541 9.458a8.29 8.29 0 01-.666 3.479 6.374 6.374 0 01-1.849 2.382 7.638 7.638 0 01-2.847 1.365 14.538 14.538 0 01-3.664.433h-2.663v8.026H40.8V117.62h6.693a11.66 11.66 0 016.944 1.8 6.374 6.374 0 012.478 5.527zm-4.6 0a3.732 3.732 0 00-1.232-3.147 5.5 5.5 0 00-3.43-.949h-2.427v8.459h2.564a7.372 7.372 0 001.865-.217 3.5 3.5 0 001.432-.732 3.27 3.27 0 00.913-1.35 5.849 5.849 0 00.319-2.064zm20.153 11.123a2.807 2.807 0 00.283 1.448 1.9 1.9 0 00.949.717l-.934 2.83a5.911 5.911 0 01-2.348-.666 3.393 3.393 0 01-1.448-1.7 5.7 5.7 0 01-2.364 1.849 7.731 7.731 0 01-3 .583 6.884 6.884 0 01-2.431-.4 5.144 5.144 0 01-1.815-1.132 4.935 4.935 0 01-1.148-1.749 6.082 6.082 0 01-.4-2.247 4.955 4.955 0 012.148-4.33 10.8 10.8 0 016.211-1.5h2.165v-1a2.861 2.861 0 00-.815-2.348 4.346 4.346 0 00-2.682-.649 11.577 11.577 0 00-2.048.217 18 18 0 00-2.548.683l-1.032-2.931a20.065 20.065 0 013.3-.933 16.119 16.119 0 012.964-.3q3.729 0 5.362 1.532a5.832 5.832 0 011.632 4.463zm-7.527 1.965a3.374 3.374 0 001.916-.566 5.033 5.033 0 001.481-1.6v-3.53h-1.5a5.667 5.667 0 00-3.463.8 2.7 2.7 0 00-1 2.231q.001 2.665 2.565 2.665zm12.689 2.597v-24.677l4.262-.466v25.144zm4.429-9.625l5.962-7.992h4.5l-5.928 7.76 6.428 9.857h-4.9zm18.151-14.287a2.481 2.481 0 01-.768 1.849 2.885 2.885 0 01-3.879 0 2.51 2.51 0 01-.75-1.849 2.47 2.47 0 01.75-1.814 2.883 2.883 0 013.879 0 2.441 2.441 0 01.768 1.814zm-4.83 23.912v-17.617h4.264v17.617zm14.254-2.664a3.949 3.949 0 002.3-.583 1.806 1.806 0 00.834-1.549 2.409 2.409 0 00-.168-.933 1.7 1.7 0 00-.615-.716 5.3 5.3 0 00-1.25-.6q-.8-.283-2.1-.616a8.558 8.558 0 01-3.764-1.848 4.4 4.4 0 01-1.365-3.414 4.449 4.449 0 01.484-2.048 4.781 4.781 0 011.4-1.648 6.962 6.962 0 012.23-1.1 10.149 10.149 0 012.947-.4 10.661 10.661 0 013.514.55 10.337 10.337 0 012.648 1.315l-1.8 2.664a8.044 8.044 0 00-2.016-1.016 7.162 7.162 0 00-2.281-.35 3.752 3.752 0 00-2.047.482 1.467 1.467 0 00-.75 1.282 1.426 1.426 0 00.783 1.383 6.6 6.6 0 001.215.565q.765.284 1.932.616a17.892 17.892 0 012.215.767 6.6 6.6 0 011.748 1.065 4.328 4.328 0 011.133 1.532 5.226 5.226 0 01.4 2.131 4.751 4.751 0 01-.615 2.448 5.624 5.624 0 01-1.631 1.765 7.18 7.18 0 01-2.383 1.065 11.488 11.488 0 01-2.863.351 10.957 10.957 0 01-4.062-.7 10.423 10.423 0 01-3.031-1.8l2.2-2.432a9.44 9.44 0 002.215 1.282 6.669 6.669 0 002.543.49zm21.146 1.832a6.348 6.348 0 01-2.08 1 8.536 8.536 0 01-2.314.333 6.557 6.557 0 01-2.482-.417 4.108 4.108 0 01-1.648-1.182 4.754 4.754 0 01-.916-1.832 9.546 9.546 0 01-.283-2.432v-9.225h-2.7v-3.03h2.7v-3.9l4.264-.5v4.4h4.3l-.467 3.03h-3.83v9.225a3.033 3.033 0 00.449 1.865 1.7 1.7 0 001.416.566 4.061 4.061 0 002.1-.666zm15.52-3.73a2.828 2.828 0 00.283 1.448 1.918 1.918 0 00.949.717l-.932 2.83a5.9 5.9 0 01-2.348-.666 3.4 3.4 0 01-1.449-1.7 5.7 5.7 0 01-2.365 1.849 7.725 7.725 0 01-3 .583 6.893 6.893 0 01-2.432-.4 5.123 5.123 0 01-1.806-1.131 4.953 4.953 0 01-1.15-1.749 6.1 6.1 0 01-.4-2.247 4.951 4.951 0 012.148-4.33 10.8 10.8 0 016.211-1.5h2.164v-1a2.855 2.855 0 00-.816-2.348 4.339 4.339 0 00-2.68-.649 11.569 11.569 0 00-2.049.217 17.951 17.951 0 00-2.547.683l-1.033-2.931a20.065 20.065 0 013.3-.933 16.121 16.121 0 012.965-.3q3.729 0 5.361 1.532a5.828 5.828 0 011.631 4.463zm-7.525 1.965a3.372 3.372 0 001.914-.566 5.035 5.035 0 001.482-1.6v-3.53h-1.5a5.67 5.67 0 00-3.465.8 2.7 2.7 0 00-1 2.231q.004 2.665 2.568 2.665zm22.746-9.858a2.787 2.787 0 00-.518-1.9 2.128 2.128 0 00-1.648-.566 3.088 3.088 0 00-2 .732 9.367 9.367 0 00-1.631 1.732v12.455h-4.264v-17.615h3.7l.3 2.2a7.8 7.8 0 012.549-2.016 6.791 6.791 0 012.98-.683 4.519 4.519 0 013.631 1.365 5.788 5.788 0 011.164 3.863v12.889h-4.262z"/><circle class="cls-1" cx="83.407" cy="35.642" r="35.642"/><path class="cls-1" d="M47.765 35.642a35.634 35.634 0 0018.6 31.308V4.334a35.634 35.634 0 00-18.6 31.308z"/><path d="M83.407 0a35.483 35.483 0 00-17.046 4.334V66.95A35.645 35.645 0 1083.407 0z" fill="#496e2d"/><path class="cls-1" d="M98.646 41.536a10.073 10.073 0 11-7.206-18.153 12.4 12.4 0 1010.38 14.367 10.026 10.026 0 01-3.174 3.786zm-.193-18.291l2.54 2.737 3.388-1.569-1.819 3.261 2.54 2.738-3.664-.722-1.818 3.262-.446-3.708-3.664-.722 3.389-1.569-.446-3.708z"/><script>new (class{constructor(e){this.client=window[Symbol.for(e)],this.bindEvents()}bindEvents(){const e=this;var t;history.pushState=(t=history.pushState,function(){const n=t.apply(this,arguments);return e.onUrlChange(),n});let n=!0;history.replaceState=(t=&gt;function(s){var r=t.apply(this,arguments);return n||e.onUrlChange(),n=!1,r})(history.replaceState),window.addEventListener(&quot;hashchange&quot;,(function(){e.onUrlChange()}))}onUrlChange(){this.client.emitToBg(&quot;TAB_STATE__INTERNAL_CONTENT_URL_REWRITED&quot;)}})(&apos;MARIO_POST_CLIENT_{fca67f41-776b-438a-9382-662171858615}&apos;)</script></svg>