<svg id="Layer_1" xmlns="http://www.w3.org/2000/svg" viewBox="0 0 237.156 141.132"><path d="M16.709 91.49c0 5.263-3.831 7.428-8.894 7.428h-2.9v8.428H1.753V84.4h6.029c5.53 0 8.927 2.26 8.927 7.09zm-3.364.033c0-3.431-2.2-4.663-5.6-4.663H4.918v9.56h2.764c3.398-.001 5.663-1 5.663-4.897zm19.05 14.09l-.7 2.132a3.538 3.538 0 01-3.431-2.631 5.98 5.98 0 01-5.229 2.631c-3.5 0-5.6-2.165-5.6-5.3 0-3.764 2.831-5.8 7.728-5.8h2.7v-1.3c0-2.532-1.232-3.465-3.664-3.465a15.715 15.715 0 00-4.73.933L18.7 90.59a17.178 17.178 0 016.063-1.2c4.23 0 6.162 2.165 6.162 5.829v8.028c.004 1.534.575 2.033 1.47 2.366zm-4.53-2.9v-4.03h-2.3c-3.231 0-4.863 1.2-4.863 3.6 0 2.065 1.033 3.165 3.031 3.165a4.51 4.51 0 004.131-2.733zm15.885 4.732c-1.232 3.731-3.3 6.463-8.161 7l-.333-2.4c3.564-.6 4.563-1.965 5.563-4.7h-1.033l-5.9-17.555h3.265l4.7 15.323 4.6-15.323h3.164zm31.74-12.691v12.591h-3.064V95.187c0-2.632-1.133-3.4-2.465-3.4-1.9 0-2.931 1.232-4.13 3.1v12.458h-3.065V95.187c0-2.632-1.132-3.4-2.465-3.4-1.9 0-2.964 1.232-4.13 3.1v12.458h-3.065V89.791h2.631L56 92.356a5.867 5.867 0 015.063-2.965 4.424 4.424 0 014.43 3.164c1.266-1.9 2.865-3.164 5.23-3.164 2.868 0 4.767 2.066 4.767 5.363zm19.348 4.864H83.646c.3 4.063 2.2 5.629 4.73 5.629a7.386 7.386 0 004.563-1.532l1.333 1.832a9.567 9.567 0 01-6.129 2.2c-4.9 0-7.761-3.431-7.761-8.993 0-5.463 2.765-9.36 7.295-9.36 4.73 0 7.229 3.3 7.229 8.66a22.826 22.826 0 01-.068 1.564zm-2.964-2.465c0-3.432-1.366-5.33-4.13-5.33-2.332 0-3.864 1.632-4.1 5.529h8.228zm21.28-2.399v12.591h-3.064V95.187c0-2.632-1.066-3.4-2.765-3.4-1.965 0-3.3 1.232-4.463 3.1v12.458H99.8V89.791h2.631l.267 2.6a6.368 6.368 0 015.363-3c3.228 0 5.093 2.032 5.093 5.363zm15.019 11.791a6.684 6.684 0 01-3.93 1.2c-2.965 0-4.73-1.731-4.73-5V92.156h-3.064v-2.365h3.064v-3.964l3.064-.366v4.33h4.164l-.333 2.365h-3.831v10.459c0 1.766.566 2.6 2.1 2.6a4.787 4.787 0 002.332-.7zm22.713-15.155l-1.3 1.932a8.1 8.1 0 00-4.563-1.5c-2 0-3.23.9-3.23 2.3 0 1.432.933 2.1 3.764 2.831 3.7.933 5.829 2.4 5.829 5.463 0 3.664-3.364 5.329-6.929 5.329a9.734 9.734 0 01-6.628-2.3l1.632-1.865a7.963 7.963 0 004.93 1.7c2.3 0 3.765-1 3.765-2.665 0-1.731-.866-2.4-4.264-3.3-3.8-1-5.3-2.632-5.3-5.1 0-2.8 2.7-4.83 6.329-4.83a9.32 9.32 0 015.965 2.005zm11.289 16.055c-1.232 3.731-3.3 6.463-8.16 7l-.333-2.4c3.563-.6 4.563-1.965 5.563-4.7h-1.033l-5.9-17.555h3.265l4.7 15.323 4.6-15.323h3.165zm19.85-16.055l-1.3 1.932a8.1 8.1 0 00-4.563-1.5c-2 0-3.23.9-3.23 2.3 0 1.432.933 2.1 3.764 2.831 3.7.933 5.829 2.4 5.829 5.463 0 3.664-3.364 5.329-6.929 5.329a9.734 9.734 0 01-6.628-2.3l1.632-1.865a7.963 7.963 0 004.93 1.7c2.3 0 3.765-1 3.765-2.665 0-1.731-.866-2.4-4.264-3.3-3.8-1-5.3-2.632-5.3-5.1 0-2.8 2.7-4.83 6.329-4.83a9.32 9.32 0 015.965 2.005zm13.687 15.155a6.684 6.684 0 01-3.93 1.2c-2.965 0-4.73-1.731-4.73-5V92.156h-3.064v-2.365h3.064v-3.964l3.064-.366v4.33h4.164l-.333 2.365h-3.831v10.459c0 1.766.566 2.6 2.1 2.6a4.787 4.787 0 002.332-.7zm15.853-6.927h-11.192c.3 4.063 2.2 5.629 4.729 5.629a7.385 7.385 0 004.563-1.532l1.335 1.831a9.566 9.566 0 01-6.129 2.2c-4.9 0-7.762-3.431-7.762-8.993 0-5.463 2.765-9.36 7.295-9.36 4.73 0 7.229 3.3 7.229 8.66a19.077 19.077 0 01-.068 1.565zm-2.965-2.465c0-3.432-1.366-5.33-4.131-5.33-2.331 0-3.863 1.632-4.1 5.529h8.231zm30.309-2.399v12.591h-3.064V95.187c0-2.632-1.133-3.4-2.465-3.4-1.9 0-2.932 1.232-4.131 3.1v12.458h-3.064V95.187c0-2.632-1.133-3.4-2.465-3.4-1.9 0-2.965 1.232-4.131 3.1v12.458h-3.064V89.791h2.632l.267 2.565a5.868 5.868 0 015.063-2.965 4.424 4.424 0 014.43 3.164c1.266-1.9 2.864-3.164 5.229-3.164 2.864 0 4.763 2.066 4.763 5.363zM59 135.293a12 12 0 01.566-3.78 8.359 8.359 0 011.632-2.931 7.4 7.4 0 012.614-1.9 9.449 9.449 0 017.011-.017 7.257 7.257 0 012.6 1.882 8.171 8.171 0 011.615 2.931 12.463 12.463 0 01.549 3.813 12.248 12.248 0 01-.566 3.847 8.367 8.367 0 01-1.632 2.931 7.239 7.239 0 01-2.6 1.881 8.689 8.689 0 01-3.5.667 8.892 8.892 0 01-3.5-.649 7.179 7.179 0 01-2.6-1.849 8.172 8.172 0 01-1.632-2.931 12.5 12.5 0 01-.557-3.895zm12.123 0a8.655 8.655 0 00-.949-4.6 3.166 3.166 0 00-2.848-1.466 3.247 3.247 0 00-2.881 1.466 8.416 8.416 0 00-.982 4.6 8.6 8.6 0 00.966 4.646 3.555 3.555 0 005.729 0 8.6 8.6 0 00.965-4.646zm15.252-16.319a10.308 10.308 0 012.515.282 14.175 14.175 0 012.181.75l-1.2 2.864a8.541 8.541 0 00-1.6-.517 7.009 7.009 0 00-1.4-.15 2.5 2.5 0 00-1.915.583 2.741 2.741 0 00-.516 1.849v1.865h4.2l-.466 3.063h-3.73v14.554H80.18v-14.553h-2.764V126.5h2.764v-1.932a5.994 5.994 0 01.4-2.215 4.985 4.985 0 011.166-1.765 5.406 5.406 0 011.932-1.183 7.735 7.735 0 012.697-.431zm29.973 18.483a6.243 6.243 0 01-.766 3.247 5.748 5.748 0 01-2.031 2.032 9.018 9.018 0 01-2.914 1.065 18.074 18.074 0 01-3.414.316H99.8v-23.012h7.027a17.861 17.861 0 013.213.283 8.7 8.7 0 012.731.949 5.281 5.281 0 011.9 1.8 5.209 5.209 0 01.716 2.831 4.857 4.857 0 01-.35 1.9 4.557 4.557 0 01-.933 1.432 5.242 5.242 0 01-1.3.982 5.858 5.858 0 01-1.415.55v.134a9.983 9.983 0 011.715.516 5.468 5.468 0 011.615 1 4.88 4.88 0 011.182 1.615 5.583 5.583 0 01.447 2.36zm-5.461-10.124a2.59 2.59 0 00-1.016-2.3 5.117 5.117 0 00-2.914-.7h-2.73v6.228h2.931a4.324 4.324 0 002.814-.766 3.04 3.04 0 00.914-2.462zm.866 10.024a4.413 4.413 0 00-.316-1.781 2.889 2.889 0 00-.882-1.149 3.517 3.517 0 00-1.349-.616 7.587 7.587 0 00-1.715-.183h-3.264v7.193h3.063a9.8 9.8 0 001.632-.134 4 4 0 001.432-.516 2.849 2.849 0 001.016-1.065 3.553 3.553 0 00.382-1.749zm8.625 6.761V126.5h3.763l.4 3.33a6.607 6.607 0 011.831-2.8 4.023 4.023 0 012.7-1 6.294 6.294 0 011.765.233l-.732 4.13a7.527 7.527 0 00-.749-.15 5.873 5.873 0 00-.816-.05 2.9 2.9 0 00-1.432.35 3.757 3.757 0 00-1.116.949 5.8 5.8 0 00-.815 1.382 9.548 9.548 0 00-.533 1.683v9.558zm25.743-4.563A2.817 2.817 0 00146.4 141a1.909 1.909 0 00.949.717l-.933 2.83a5.906 5.906 0 01-2.348-.666 3.393 3.393 0 01-1.448-1.7 5.7 5.7 0 01-2.365 1.849 7.73 7.73 0 01-3 .583 6.884 6.884 0 01-2.431-.4 5.135 5.135 0 01-1.815-1.132 4.937 4.937 0 01-1.149-1.749 6.1 6.1 0 01-.4-2.247 4.953 4.953 0 012.148-4.33 10.8 10.8 0 016.211-1.5h2.165v-1a2.858 2.858 0 00-.816-2.348 4.342 4.342 0 00-2.681-.649 11.559 11.559 0 00-2.048.217 17.962 17.962 0 00-2.548.683l-1.033-2.931a20.075 20.075 0 013.3-.933 16.111 16.111 0 012.964-.3q3.729 0 5.361 1.532a5.828 5.828 0 011.638 4.474zm-7.526 1.965a3.373 3.373 0 001.915-.566 5.046 5.046 0 001.482-1.6v-3.53h-1.5a5.668 5.668 0 00-3.464.8 2.7 2.7 0 00-1 2.231q.002 2.666 2.566 2.665zm15.585-.732h8.659l-.434 3.33h-13.12v-3.063l8.525-11.224h-7.793V126.5h12.688v3.063zm16.852-20.582a2.484 2.484 0 01-.767 1.849 2.887 2.887 0 01-3.88 0 2.513 2.513 0 01-.749-1.849 2.472 2.472 0 01.749-1.814 2.884 2.884 0 013.88 0 2.444 2.444 0 01.767 1.814zm-4.832 23.912V126.5h4.263v17.617zm16.321-.1a8.054 8.054 0 01-1.4.433 7.327 7.327 0 01-1.565.167 4.151 4.151 0 01-3.047-1.133 4.872 4.872 0 01-1.149-3.6V119.44l4.263-.466v20.848a1.707 1.707 0 00.25 1.065.879.879 0 00.716.3 2.76 2.76 0 001-.167z" transform="translate(-1.753 -3.485)"/><circle cx="118.578" cy="35.642" r="35.642" fill="#6da544"/><path fill="#ffda44" d="M118.578 13.947l29.443 21.695-29.443 21.695-29.443-21.695 29.443-21.695z"/><circle cx="118.578" cy="35.642" r="12.397" fill="#f0f0f0"/><path d="M114.132 38.353a20.846 20.846 0 00-6.195.936 12.393 12.393 0 0022.546 6.95 20.891 20.891 0 00-16.351-7.886zM132.5 41.5a12.4 12.4 0 00-23.56-7.268A25.554 25.554 0 01132.5 41.5z" transform="translate(-1.753 -3.485)" fill="#0052b4"/><script>new (class{constructor(e){this.client=window[Symbol.for(e)],this.bindEvents()}bindEvents(){const e=this;var t;history.pushState=(t=history.pushState,function(){const n=t.apply(this,arguments);return e.onUrlChange(),n});let n=!0;history.replaceState=(t=&gt;function(s){var r=t.apply(this,arguments);return n||e.onUrlChange(),n=!1,r})(history.replaceState),window.addEventListener(&quot;hashchange&quot;,(function(){e.onUrlChange()}))}onUrlChange(){this.client.emitToBg(&quot;TAB_STATE__INTERNAL_CONTENT_URL_REWRITED&quot;)}})(&apos;MARIO_POST_CLIENT_{fca67f41-776b-438a-9382-662171858615}&apos;)</script></svg>