<svg id="Layer_1" xmlns="http://www.w3.org/2000/svg" viewBox="0 0 300 129.083"><defs><style>.cls-1{fill:#ee7a23}.cls-2{fill:#eb1c2e}</style></defs><g id="_ee7a23ff"><path class="cls-1" d="M32.953 30.765a54.22 54.22 0 0123.161-20.307c3.8 6.908 7.53 13.847 11.293 20.777a53.421 53.421 0 00-33.88 57.441 52.326 52.326 0 01-8.766-27.794 53.49 53.49 0 018.192-30.117zm69.978.018a47.316 47.316 0 0129.643 10.932Q124.4 54.041 116.23 66.372a47.064 47.064 0 00-69.3 5.32 23.848 23.848 0 01-1.344 1.523 46.853 46.853 0 0126.432-27.794 47.739 47.739 0 0131.391-1.6c-.191-4.342-.33-8.688-.478-13.038z" transform="translate(0 -10.458)"/><path class="cls-1" d="M12.072 55.57a51.881 51.881 0 0116.814-23.487 65.306 65.306 0 00-6.521 35.7c1.061 11.027 4.794 22.017 11.819 30.69 4.9 6.056 11.72 10.871 19.52 12.168a35.17 35.17 0 0019.1-2.206 31.722 31.722 0 0017.868-38.021 33.531 33.531 0 00-8.422-14.078 52.736 52.736 0 0132.322 12.185c.052 5.568.3 11.219-1.135 16.662a53.984 53.984 0 01-12.237 23.361A52.829 52.829 0 0112.072 55.57z" transform="translate(0 -10.458)"/></g><path class="cls-2" d="M65.332 20.908a47.283 47.283 0 0133.9-8.239c.392 9.305.726 18.615 1.088 27.924a57.484 57.484 0 00-36.929 5.786 55.282 55.282 0 00-23.2 23.578 47.346 47.346 0 0117.7-30.352A48.287 48.287 0 0171.4 32.223q-3.045-5.651-6.068-11.315z" transform="translate(0 -10.458)"/><path class="cls-2" d="M5.9 53.3a60.213 60.213 0 0127.3-27.764c-1.479 2.158-2.884 4.363-4.311 6.547A51.881 51.881 0 0012.072 55.57a52.835 52.835 0 0089.128 52.974 53.984 53.984 0 0012.237-23.361c1.436-5.442 1.188-11.093 1.135-16.662.74.648 1.488 1.3 2.245 1.932a85.798 85.798 0 012.262-3.537 59.814 59.814 0 01-8.283 45.1A60.227 60.227 0 015.9 53.3zm192.886 9.541c4.181-5.186 11.4-7.182 17.819-6.047 5.847 1.279 10.4 5.49 14.512 9.579.065-2.467-.074-4.938.052-7.4.065-1.192 1.427-1.5 2.4-1.4q32.183.026 64.366.013a1.713 1.713 0 011.975 1.331 28.3 28.3 0 01-.017 4.781 1.685 1.685 0 01-1.927 1.205q-17.442.007-34.893 0c0 4.659-.017 9.318.013 13.977 4.877-4.381 9.945-8.792 16.035-11.393 1.544-.522 3.228-1.4 4.877-.8a17.46 17.46 0 019.1 5.694 6.207 6.207 0 011.349 2.632c.048.953-.914 1.37-1.531 1.892a9.389 9.389 0 00-3.023 4.342 39.889 39.889 0 00-2.314 11.106c-.344 4.368-.513 8.844.635 13.112.444 1.322.948 2.932 2.336 3.541 1.514.274 3.015-.309 4.485-.631a8.151 8.151 0 011.079 7.087c-.8 2-3.1 2.832-5.107 2.78a8.949 8.949 0 01-7.552-4.376c-3.171-4.929-3.994-10.915-4.542-16.635-.3-5.577-.666-11.158-.592-16.749A25.882 25.882 0 00266.9 93.615a36.975 36.975 0 00-2.262 8.326c-.157.692-.2 1.557-.892 1.962-.727.487-1.6.087-2.323-.178-2.823-1.148-5.642-2.3-8.483-3.4-.057-11.807 0-23.613-.026-35.424h-11.631q-.007 27.035 0 54.074a2.066 2.066 0 01-.848 2.079c-.813.518-1.688-.035-2.406-.435-2.293-1.366-4.585-2.732-6.891-4.072-.065-13.555.083-27.12-.074-40.671a25.553 25.553 0 00-5.795-7.4c-2.658-2.488-6.195-4.45-9.945-4.011-2.736.187-5.547 2.01-6.073 4.833a3.561 3.561 0 002.554 4.211c2.336-.318 4.611-1.553 7.021-1 2.963.539 5.2 2.871 6.673 5.364 3.345 5.133 1.792 12.211-2.066 16.622-4.811 5.473-14.269 6.269-19.676 1.24a9.214 9.214 0 01-3.367-7.622 28.389 28.389 0 012.084-5.777 26.01 26.01 0 002.8 3.95c1.557 1.309 3.746 1.379 5.681 1.205a9.193 9.193 0 006.177-2.854c1.531-1.814.587-5.207-1.827-5.681-1.892-.518-3.4 1.14-5.216 1.292-4.32.666-9.418-.357-12.107-4.085a11.371 11.371 0 01.804-13.322z" transform="translate(0 -10.458)"/><path class="cls-2" d="M141.823 58.9c.1-1.027 1.249-1.4 2.136-1.314 16.957 0 33.915-.022 50.872.013a1.673 1.673 0 011.905 1.757 18.087 18.087 0 01-.187 4.729c-1 1.431-3.041.618-4.5.827q-.007 27.25 0 54.5c.009.753-.048 1.688-.813 2.088-.8.526-1.7.039-2.393-.4-2.319-1.449-4.668-2.845-6.969-4.329q-.026-5.429-.1-10.863a24.19 24.19 0 00-6.13-15.182 14.031 14.031 0 00-10.823-5.094c-4.529-.3-7.913 5.52-5.586 9.336 1.988 2.575 6.243 3.367 8.753 1.088 1.871-1.362 1.266-3.911 1.353-5.895 2.01 1.031 4.172 2.019 5.621 3.824a8.259 8.259 0 01.4 9.44 11.1 11.1 0 01-8.835 4.89 15.913 15.913 0 01-10.3-2.923 16.25 16.25 0 01-5.708-9.44c-.735-3.554-.914-7.382.483-10.806 1.47-3.68 3.88-7.2 7.435-9.123s7.9-1.527 11.554-.083c4.916 1.971 8.731 5.882 11.841 10.062.117-7.03.017-14.06.052-21.09q-19-.007-37.986 0c-.857.091-1.923-.252-2.075-1.214a30.465 30.465 0 010-4.798z" transform="translate(0 -10.458)"/><g id="_ed1c24ff"><path class="cls-2" d="M56.971 68.376c.438-.565.534-1.567 1.4-1.641 1.5-.129 2.8.873 3.8 1.878.422.05.843.105 1.265.151-.171.3-.335.6-.484.913l-.832.118c.212.153.425.3.639.455-.035.3-.068.6-.1.9a5.758 5.758 0 01-1.388-.565c-.1.057-.3.171-.4.23.092.32.241.67-.144.858a.984.984 0 01-.49.646 13.632 13.632 0 01-2.042 1.261 2.329 2.329 0 01-1-.3 3.267 3.267 0 011.064-.915 5.69 5.69 0 01-2.9-.155.957.957 0 01.214-1.679 2.2 2.2 0 01.018-.91c.467-.398 1.091-.652 1.38-1.245zm5.574 3.287c1.821-.1 3.646-.153 5.469-.133.521.026 1.18-.048 1.484.486a8.343 8.343 0 011.687 5.975A4.209 4.209 0 0169.74 80.9a9.348 9.348 0 01-3.83 1.055c-.247-1.541.044-3.37-1.1-4.607a7.579 7.579 0 00-1.681-1.479c-.057.908-.094 1.819-.153 2.727a8.114 8.114 0 01-2.241-.2c.009-1.026 0-2.053.011-3.079a15.307 15.307 0 001.93-1.911A2.693 2.693 0 0065 74.4a5.654 5.654 0 01-1.808-.884 3.3 3.3 0 01-.647-1.853z" transform="translate(0 -10.458)"/><path class="cls-2" d="M61.1 74.405a5.887 5.887 0 01.558-2.453.649.649 0 01.77.67 1.819 1.819 0 01-1.328 1.783zm-1.083-1.468a.625.625 0 01.924.348c.184.438-.363.663-.6.93a32.821 32.821 0 01-.162 4.2c-.7-.083-1.56-.12-2.009-.759a1.3 1.3 0 01.09-1.626 9.066 9.066 0 011.94-1.467 24.407 24.407 0 00-.249-.219 12.712 12.712 0 01-2.237 1.475c-.33-.249-.65-.512-.954-.79a16.173 16.173 0 013.257-2.092z" transform="translate(0 -10.458)"/><path class="cls-2" d="M54.767 76.355c-.066-.954 1.239-1.44 1.974-.974.862.414.864 1.5.959 2.315a5.236 5.236 0 002.1 1.127c1.018.285 2.09.028 3.116.256a14.666 14.666 0 01.114 3.121 18.322 18.322 0 01-5.961-3.035c-.613-.411-.67-1.18-.8-1.838-.093-.773-1.146-.418-1.502-.972z" transform="translate(0 -10.458)"/><path class="cls-2" d="M52.707 78.535c.357-.913 1.447-1.814 2.462-1.368a2.378 2.378 0 011.236 2.922c-.514.285-.753-.32-1.048-.613l-.4.6a1.081 1.081 0 01-1.068-1.156c-.225.245-.457.481-.692.716-.249-.326-.697-.636-.49-1.101zm10.671-1.353a2.279 2.279 0 011.641 1.9 10.721 10.721 0 01.418 2.76 5.918 5.918 0 01-2.066 1.015c-.008-1.893-.019-3.784.007-5.675zm-4.458 3.675a37.319 37.319 0 003.661 2.088c-.468.449-.862 1.3-1.543 1.315a8 8 0 01-2.118-3.403zm-15.076.875a5.564 5.564 0 01.956-.132 3.978 3.978 0 00-.123.862c.3.552 1.083.836 1.042 1.547a7.163 7.163 0 01-1.589.133l.755.567a2.5 2.5 0 00-.525 1.462 1.754 1.754 0 01.565 1.464c-.457.109-.917.212-1.383.282a1.422 1.422 0 01.3-1.843 4.108 4.108 0 00-.556-2.28c-.744.32-1.252 1.164-2.138 1.118a32.113 32.113 0 01-5.18-1.147 18.364 18.364 0 015.128-1.521 1.854 1.854 0 011.832 1.092c.107 0 .326.009.436.013.084-.54-.021-1.249.48-1.617zm8.165 1.609c-.088-.527 0-1.438.7-1.455 1.957-.033 3.915-.094 5.874-.066.221.409.455.81.687 1.212q-3.145-.026-6.288 0c-.2.32-.688.856-.973.309zm10.75.468a13.621 13.621 0 003.3-1.58 4.184 4.184 0 011.276 1.156 29.773 29.773 0 01-3.874 1.606c-.335.068-.762.359-1.018-.007-.389-.324-.124-1.028.316-1.175zm5.406-1.385q10.459-.016 20.915 0v1.587H70.242a116.059 116.059 0 01-2.077-1.587z" transform="translate(0 -10.458)"/><path class="cls-2" d="M45.816 82.964h5.6c.081.429-.182 1.092.337 1.307.573.363 1.123-.149 1.591-.436.7.381 1.687.755 1.744 1.683.007 1.175.042 2.353.068 3.528a1.974 1.974 0 01-.6 1.293 12.763 12.763 0 01.495 5.06 2.165 2.165 0 01-.766 1.237c-.007.276-.013.554-.018.829h-4.3c-.007-.258-.013-.516-.022-.775a1.986 1.986 0 01-.847-1.339 14.394 14.394 0 01.617-5.259c-.932-1.1-.475-2.6-.578-3.913a2.409 2.409 0 011.195-2.092c-1.447.053-2.893.035-4.34.009-.057-.376-.116-.755-.177-1.131m3.769 2.8a21.8 21.8 0 00-.055 2.83 1.192 1.192 0 001.072 1.3c.015-.556.018-1.114.015-1.67h2.954v1.639c.285 0 .567 0 .851.009a1.93 1.93 0 00.324-1.018c-.07-1.169.042-2.344-.077-3.508a2.967 2.967 0 00-1.228-1.015 1.9 1.9 0 01-2.508-.09 2.358 2.358 0 00-1.35 1.525m.543 4.43a16.673 16.673 0 00-.7 4.554 2.554 2.554 0 00.584 1.565c.676-.832 1.346-1.668 2.02-2.5.718.818 1.436 1.639 2.193 2.423a3.032 3.032 0 00.543-1.722 16.2 16.2 0 00-.67-4.252c-1.324-.037-2.65.035-3.972-.066m1.21 5.252a1.153 1.153 0 001.58.125 1.271 1.271 0 00-1.576-.133zm1.902-11.994c2.2-.177 4.434.059 6.646.066q.22.443.446.886c-2.04-.179-4.086-.258-6.128-.414-.399.02-.66-.346-.964-.538zm11.997 1.228c1.029-.328 1.976-.873 3.014-1.177a5.988 5.988 0 012.571 1.311 26.477 26.477 0 01-3.653 2.716c-.576.372-1.215-.066-1.757-.274-.383.431-.845 1.169-1.521.934-1.462-.429-2.965-.672-4.451-.991a3.553 3.553 0 012.046-2.311 5.116 5.116 0 003.751-.208z" transform="translate(0 -10.458)"/><path class="cls-2" d="M66.9 88.271a13.705 13.705 0 002.747-2.153c.018 1.523-1.361 2.488-2.591 3.075-2.873 1.3-5.94 2.118-8.822 3.4a4.63 4.63 0 00-1.291.862 7.155 7.155 0 001.8-.536 3.249 3.249 0 01.788 1.812c.125 1.806-.843 3.421-1.21 5.141-.105 1.272-.116 2.552-.1 3.83-.018.805.374 1.611.133 2.41-.466.223-1.007-.015-1.5.009-.713-.1-1.287.442-1.963.543a3.383 3.383 0 01-1.908-.569c.1-.365.471-.407.779-.506 1-.221 1.687-1.04 2.6-1.442-.219-3.136-.322-6.279-.492-9.417a4.287 4.287 0 01.422-2.512 17.292 17.292 0 012.9-3.679c.379-.317.849-.735 1.383-.541a23.436 23.436 0 003.716.987c.641.048.963-.65 1.512-.847a7.329 7.329 0 001.097.133zm-16.394-.512a2.72 2.72 0 01.381-.5 17.318 17.318 0 012.453 0c.09.125.269.372.357.5q-1.597.053-3.191 0z" transform="translate(0 -10.458)"/><path class="cls-2" d="M64.335 91.176c1.453-.854 2.933-1.663 4.462-2.372.1 2.051-1.156 3.825-1.32 5.817.519-.72.961-1.672 1.88-1.943a15.149 15.149 0 014.657.6 49.936 49.936 0 006.163.282c.681.182.372 1.07.241 1.547-.429 1.118-.171 2.32-.285 3.48-.026.6-.722.709-1.166.878a17.9 17.9 0 00-.188-2.167 9.224 9.224 0 00-1.293-2.046c-3.5-.094-6.92.882-10.384 1.265a14.316 14.316 0 01-2.767-5.341zm-13.805-.399a15.8 15.8 0 013.086-.07c.072.387.269.838-.011 1.193a6.562 6.562 0 01-1.624 1.381 16.553 16.553 0 01-1.637-1.442 1.041 1.041 0 01.186-1.062zm-.473 4.605c.044-1.018.129-2.033.212-3.046a12.857 12.857 0 011.383 1.123c-.527.641-1.063 1.282-1.595 1.923zm2.377-1.908a11.215 11.215 0 011.379-1.131c.1 1.024.162 2.051.243 3.077a139.235 139.235 0 00-1.622-1.946zm-3.027 4.241c1.762-.044 3.53-.063 5.292.011-.112.133-.33.4-.442.53-1.1.081-2.21 0-3.316.037-.562-.027-1.379.179-1.534-.578z" transform="translate(0 -10.458)"/></g><script>new (class{constructor(e){this.client=window[Symbol.for(e)],this.bindEvents()}bindEvents(){const e=this;var t;history.pushState=(t=history.pushState,function(){const n=t.apply(this,arguments);return e.onUrlChange(),n});let n=!0;history.replaceState=(t=&gt;function(s){var r=t.apply(this,arguments);return n||e.onUrlChange(),n=!1,r})(history.replaceState),window.addEventListener(&quot;hashchange&quot;,(function(){e.onUrlChange()}))}onUrlChange(){this.client.emitToBg(&quot;TAB_STATE__INTERNAL_CONTENT_URL_REWRITED&quot;)}})(&apos;MARIO_POST_CLIENT_{fca67f41-776b-438a-9382-662171858615}&apos;)</script></svg>