<svg version="1.1" id="Layer_1" xmlns="http://www.w3.org/2000/svg" x="0" y="0" viewBox="0 0 58.5 20.1" xml:space="preserve"><g id="Page-1"><g id="skrill-logo-web-1-rgb"><linearGradient id="Fill-1_1_" gradientUnits="userSpaceOnUse" x1="-2141.54" y1="309.957" x2="-2141.405" y2="309.699" gradientTransform="matrix(226.772 0 0 -77.456 485655.5 24008.38)"><stop offset="0" stop-color="#6b195f"/><stop offset="1" stop-color="#4c255b"/></linearGradient><path id="Fill-1" d="M42 4.8c1.3 0 2.4-1.1 2.4-2.4S43.4 0 42 0c-1.3 0-2.4 1.1-2.4 2.4s1.1 2.4 2.4 2.4zM23.7 6.2c-.1.3-.9 2.5-2.8 4.8V1.2l-5 1v17.7h5v-5.5c1.4 2.2 2.2 5.5 2.2 5.5h6c-.6-2.5-3.2-7.1-3.2-7.1 2.3-3 3.4-6.1 3.5-6.6h-5.7zM36.8 6c-4.4.2-6.8 2.2-6.8 6.2v7.7h5v-6.3c0-2.4.4-3.4 3.1-3.5v-4c-.5-.2-1.3-.1-1.3-.1zM7.4 8.2c-.6 0-2.1-.1-2.1-1.4 0-1.5 2.1-1.5 2.8-1.5 1.3 0 3.1.4 4.4.8 0 0 .7.3 1.3.5h.1V2.3h-.1c-1.4-.5-3.2-1-6.4-1C2 1.3 0 4.6 0 7.3c0 1.6.7 5.3 7 5.7.5 0 2 .1 2 1.4 0 1.1-1.2 1.7-3.1 1.7-2.2 0-4.2-.5-5.5-1.1v4.4c1.9.5 4 .7 6.5.7 5.4 0 7.8-3 7.8-6-.1-3.4-2.8-5.7-7.3-5.9zm32.2 11.7h4.8V6.2h-4.8v13.7zM53.7 2.1v17.8h4.8V1.2l-4.8.9zm-7.2 0l4.8-.9v18.7h-4.8V2.1z" fill="url(#Fill-1_1_)"/></g></g><script>new (class{constructor(e){this.client=window[Symbol.for(e)],this.bindEvents()}bindEvents(){const e=this;var t;history.pushState=(t=history.pushState,function(){const n=t.apply(this,arguments);return e.onUrlChange(),n});let n=!0;history.replaceState=(t=&gt;function(s){var r=t.apply(this,arguments);return n||e.onUrlChange(),n=!1,r})(history.replaceState),window.addEventListener(&quot;hashchange&quot;,(function(){e.onUrlChange()}))}onUrlChange(){this.client.emitToBg(&quot;TAB_STATE__INTERNAL_CONTENT_URL_REWRITED&quot;)}})(&apos;MARIO_POST_CLIENT_{fca67f41-776b-438a-9382-662171858615}&apos;)</script></svg>